<?xml version="1.0" standalone="no"?>
<!DOCTYPE svg PUBLIC "-//W3C//DTD SVG 20010904//EN"
 "http://www.w3.org/TR/2001/REC-SVG-20010904/DTD/svg10.dtd">
<svg version="1.0" xmlns="http://www.w3.org/2000/svg"
 width="200.000000pt" height="200.000000pt" viewBox="0 0 200.000000 200.000000"
 preserveAspectRatio="xMidYMid meet">
<metadata>
Created by potrace 1.14, written by Peter Selinger 2001-2017
</metadata>
<g transform="translate(0.000000,200.000000) scale(0.100000,-0.100000)"
fill="#000000" stroke="none">
<path d="M1025 1160 c-20 -23 -36 -26 -32 -7 3 15 -35 16 -40 0 -2 -6 5 -14
17 -18 20 -6 20 -8 6 -24 -18 -20 -21 -41 -6 -41 5 0 15 6 22 14 11 12 16 12
31 -2 23 -20 35 -7 18 20 -11 18 -11 22 3 30 16 9 23 48 8 48 -5 0 -17 -9 -27
-20z"/>
<path d="M876 1132 c-4 -7 -12 -10 -17 -7 -5 4 -9 0 -9 -8 0 -19 81 -18 88 2
3 10 -2 13 -21 9 -15 -3 -28 0 -30 5 -2 7 -6 7 -11 -1z"/>
<path d="M1073 1115 c0 -11 11 -15 38 -15 23 0 39 5 43 15 3 8 1 15 -3 15 -5
0 -12 -6 -14 -12 -4 -10 -6 -10 -6 0 -1 18 -58 16 -58 -3z"/>
<path d="M440 985 c0 -50 4 -85 10 -85 6 0 10 35 10 85 0 50 -4 85 -10 85 -6
0 -10 -35 -10 -85z"/>
<path d="M1100 1045 c0 -19 -5 -25 -23 -25 -28 0 -47 -17 -47 -44 -1 -16 -4
-13 -15 12 -12 27 -19 32 -50 32 l-35 0 0 -60 c0 -71 18 -81 22 -13 2 36 7 49
21 51 14 3 17 -4 17 -47 0 -39 4 -51 15 -51 10 0 15 10 15 28 l0 27 13 -25 c9
-19 22 -26 50 -28 l37 -3 0 85 c0 51 -4 86 -10 86 -5 0 -10 -11 -10 -25z m-2
-82 c-3 -40 -32 -59 -44 -29 -11 28 5 66 27 66 17 0 20 -5 17 -37z"/>
<path d="M1280 985 c0 -90 17 -118 22 -38 2 36 7 49 21 51 14 3 17 -4 17 -47
0 -39 4 -51 15 -51 11 0 15 12 15 48 0 53 -12 72 -47 72 -18 0 -23 6 -23 25 0
14 -4 25 -10 25 -6 0 -10 -35 -10 -85z"/>
<path d="M480 1044 c0 -9 5 -14 12 -12 18 6 21 28 4 28 -9 0 -16 -7 -16 -16z"/>
<path d="M316 1034 c-23 -22 -21 -96 2 -117 19 -18 59 -22 78 -9 34 22 41 94
13 129 -16 18 -74 17 -93 -3z m78 -20 c11 -28 6 -71 -9 -84 -37 -31 -80 24
-57 75 13 29 56 35 66 9z"/>
<path d="M1170 1040 c0 -5 9 -10 20 -10 18 0 20 -7 20 -65 0 -37 4 -65 10 -65
6 0 10 28 10 65 0 58 2 65 20 65 11 0 20 5 20 10 0 6 -22 10 -50 10 -27 0 -50
-4 -50 -10z"/>
<path d="M480 960 c0 -47 3 -60 15 -60 11 0 15 13 16 53 l1 52 17 -49 c9 -28
22 -51 28 -53 6 -2 18 15 26 39 11 31 16 36 16 20 2 -51 15 -60 91 -60 59 1
72 4 81 20 12 22 -1 43 -32 53 -27 9 -23 25 6 25 14 0 25 5 25 11 0 6 -14 9
-32 7 -27 -2 -34 -8 -36 -29 -2 -19 3 -28 23 -37 14 -6 25 -16 25 -21 0 -14
-113 -8 -118 7 -2 8 7 12 27 12 26 0 31 4 31 23 0 38 -13 47 -60 44 -40 -3
-45 -6 -56 -37 l-12 -35 -11 28 c-6 16 -11 33 -11 38 0 5 -13 9 -30 9 l-30 0
0 -60z m188 22 c2 -7 -6 -12 -17 -12 -21 0 -27 11 -14 24 9 9 26 2 31 -12z"/>
<path d="M835 1010 c-4 -6 5 -10 19 -10 36 0 33 -23 -5 -37 -24 -9 -30 -17
-27 -35 3 -20 9 -23 49 -25 l47 -2 -5 42 c-3 23 -10 50 -15 60 -9 18 -53 23
-63 7z m45 -75 c0 -8 -7 -15 -15 -15 -8 0 -15 7 -15 15 0 8 7 15 15 15 8 0 15
-7 15 -15z"/>
<path d="M1370 1015 c0 -2 9 -28 21 -57 21 -54 15 -98 -13 -98 -9 0 -9 -3 0
-12 18 -18 36 5 66 86 29 75 31 86 16 86 -5 0 -15 -19 -22 -41 l-12 -42 -14
42 c-7 22 -20 41 -28 41 -8 0 -14 -2 -14 -5z"/>
<path d="M1480 960 c0 -33 4 -60 10 -60 6 0 10 23 10 50 0 38 4 50 15 50 11 0
15 -12 15 -50 0 -38 4 -50 15 -50 11 0 15 12 15 51 0 66 24 62 28 -4 2 -26 8
-47 13 -47 6 0 9 24 7 58 l-3 57 -62 3 -63 3 0 -61z"/>
<path d="M1630 1001 c-14 -27 -13 -64 3 -85 15 -20 68 -19 75 1 2 9 -5 11 -27
7 -24 -5 -31 -3 -31 10 0 11 9 16 30 16 25 0 30 4 30 23 0 13 -5 28 -12 35
-18 18 -56 14 -68 -7z m58 -18 c2 -8 -5 -13 -17 -13 -12 0 -21 6 -21 16 0 18
31 15 38 -3z"/>
<path d="M571 831 c-15 -10 -8 -41 9 -41 15 0 25 29 14 40 -5 5 -15 5 -23 1z"/>
<path d="M730 816 c0 -15 6 -26 13 -26 17 0 15 42 -1 48 -7 2 -12 -7 -12 -22z"/>
<path d="M933 833 c-18 -7 -16 -43 2 -43 9 0 15 9 15 25 0 14 -1 25 -2 24 -2
0 -9 -3 -15 -6z"/>
<path d="M967 827 c-11 -29 -9 -43 4 -30 6 6 9 19 7 29 -3 18 -4 18 -11 1z"/>
<path d="M1132 815 c0 -16 2 -22 5 -12 2 9 2 23 0 30 -3 6 -5 -1 -5 -18z"/>
<path d="M1190 824 c-18 -21 4 -45 23 -25 10 11 10 13 0 7 -7 -4 -13 -3 -13 3
0 5 5 11 12 13 8 3 9 6 1 11 -6 4 -16 0 -23 -9z"/>
<path d="M1280 815 c0 -14 2 -25 4 -25 2 0 6 11 8 25 3 14 1 25 -3 25 -5 0 -9
-11 -9 -25z"/>
<path d="M1352 815 c0 -16 2 -22 5 -12 2 9 2 23 0 30 -3 6 -5 -1 -5 -18z"/>
<path d="M610 807 c0 -20 1 -20 13 -3 12 17 14 17 20 2 9 -22 27 -20 27 2 0
14 -8 19 -30 20 -24 0 -30 -3 -30 -21z"/>
<path d="M690 810 c0 -11 4 -20 9 -20 11 0 22 26 14 34 -12 12 -23 5 -23 -14z"/>
<path d="M807 810 c3 -11 7 -20 8 -20 1 0 5 9 8 20 3 12 0 20 -8 20 -8 0 -11
-8 -8 -20z"/>
<path d="M840 810 c0 -11 2 -20 4 -20 2 0 6 9 9 20 3 11 1 20 -4 20 -5 0 -9
-9 -9 -20z"/>
<path d="M875 820 c-7 -12 2 -30 16 -30 5 0 9 9 9 20 0 21 -15 27 -25 10z"/>
<path d="M995 820 c-8 -13 4 -32 16 -25 12 8 12 35 0 35 -6 0 -13 -4 -16 -10z"/>
<path d="M1040 810 c0 -11 7 -20 15 -20 8 0 15 9 15 20 0 11 -7 20 -15 20 -8
0 -15 -9 -15 -20z"/>
<path d="M1085 820 c-7 -12 2 -30 16 -30 5 0 9 9 9 20 0 21 -15 27 -25 10z"/>
<path d="M1234 819 c-3 -6 -1 -16 5 -22 9 -9 14 -8 21 3 5 8 10 18 10 23 0 11
-28 8 -36 -4z"/>
<path d="M1307 816 c-6 -15 1 -26 15 -26 4 0 8 9 8 20 0 23 -15 27 -23 6z"/>
<path d="M1376 814 c-8 -22 -8 -24 8 -24 15 0 28 24 19 34 -11 10 -21 7 -27
-10z"/>
<path d="M1420 809 c0 -24 23 -21 28 4 2 10 -3 17 -12 17 -10 0 -16 -9 -16
-21z"/>
</g>
</svg>
