<?xml version="1.0" encoding="utf-8"?>
<!-- Generator: Adobe Illustrator 16.0.3, SVG Export Plug-In . SVG Version: 6.00 Build 0)  -->
<!DOCTYPE svg PUBLIC "-//W3C//DTD SVG 1.1//EN" "http://www.w3.org/Graphics/SVG/1.1/DTD/svg11.dtd">
<svg version="1.1" id="Layer_1" xmlns="http://www.w3.org/2000/svg" xmlns:xlink="http://www.w3.org/1999/xlink" x="0px" y="0px"
	 width="512px" height="512px" viewBox="0 0 512 512" style="enable-background:new 0 0 512 512;" xml:space="preserve">
<style type="text/css">
<![CDATA[
	.st0{fill:#14B6B9;}
	.st1{fill:#4B7BB2;}
	.st2{fill:#1E4384;}
	.st3{fill:#ED488B;}
	.st4{fill:#EF4754;}
	.st5{fill:#EF4823;}
	.st6{fill:#8A4581;}
	.st7{fill:#BCBCBC;}
	.st8{fill:#F26322;}
	.st9{fill:#F6851F;}
	.st10{fill:#283D5B;}
	.st11{fill:#C56528;}
	.st12{fill:#2B8C5E;}
	.st13{fill:#FCBF95;}
	.st14{fill:#FEBF10;}
	.st15{fill:none;}
	.st16{fill:#CAD7D6;}
	.st17{fill:#CBDB2D;}
	.st18{fill:#373837;}
	.st19{fill:#D03827;}
	.st20{fill:#3AB37C;}
	.st21{fill:#D6E5E5;}
	.st22{fill:#71C598;}
]]>
</style>
<g>
	<g>
		<g>
			<path class="st8" d="M351,232.973c-2.449-18.332-12.307-34.328-28.185-44.05c-19.599-12-42.26-12.31-63.223-3.608
				c-18.252,7.574-37.326,20.673-47.709,37.895c-2.926,4.852-5.598,10.102-7.705,15.518c-0.15,0.385-0.287,0.773-0.431,1.16
				c0.531,0.683,0.899,1.494,1.077,2.337c0.867,0.525,1.735,1.047,2.627,1.528c2.482,1.338,5.002,2.607,7.516,3.885
				c3.938,2.004,8.979,3.922,11.705,7.568c9.492,12.701-8.152,21.631-17.421,28.043c0.569,1.238,1.161,2.469,1.792,3.684
				c7.617,14.666,19.457,27.529,33.369,36.068c7.996,4.906,17.68,8.936,27.225,8.822c9.578-0.113,19.16-2.527,27.823-6.564
				C332.813,309.705,355.921,269.795,351,232.973z"/>
		</g>
	</g>
	<g>
		<g>
			<path class="st8" d="M173.571,264.35c-23.479-20.558-49.389-38.04-75.549-54.984c-0.004,6.658,0.693,13.372,1.365,19.931
				c0.969,9.433,1.962,18.876,3.016,28.298c2.412,21.549,2.537,43.211,2.371,64.865c0.275-0.16,0.546-0.32,0.799-0.475
				c3.662-2.223,7.189-4.666,10.646-7.197c8.757-6.414,17.194-13.26,25.511-20.23c10.707-8.977,21.254-18.154,31.594-27.553
				C173.122,266.15,173.165,265.24,173.571,264.35z"/>
		</g>
	</g>
	<g>
		<g>
			<path class="st21" d="M478.771,167.445c-21.34-43.359-61.608-77.51-104.185-99.043C331.78,46.75,282.314,35.35,234.446,42.908
				c-78.904,12.461-155.354,70.33-177.907,147.928c0.017,0.859-0.206,1.748-0.737,2.609c-0.389,1.424-0.766,2.852-1.118,4.289
				c-0.501,1.012-0.958,2.035-1.39,3.066c-0.131,0.949-0.26,1.871-0.445,2.697c-0.922,4.109-1.983,8.18-2.733,12.326
				c-1.384,7.654-1.136,15.721-3.812,23.021c-0.234,2.115-0.49,4.221-0.794,6.307c-0.036,0.256-0.024,0.492,0.011,0.719
				c-0.475,4.389-0.883,8.791-1.287,13.205c-0.842,9.178-1.24,18.393-1.072,27.609c0.33,18.053,2.354,36.18,6.904,53.678
				c8.67,33.336,25.497,64.824,52.007,87.348c18.228,15.486,39.549,25.66,62.419,32.326c25.009,7.289,51.032,11.408,77.107,11.471
				c51.486,0.125,103.197-13.916,145.553-43.721C465.644,372.555,524.761,260.889,478.771,167.445z M119.562,324.697
				c-5.693,4.037-12.355,9.318-19.504,10.244c-2.554,0.332-5.352-2.045-5.326-4.652c0.239-24.994-0.16-49.736-2.534-74.631
				c-1.759-18.433-5.452-37.208-3.634-55.767c0.421-4.303,4.961-4.786,7.722-2.725c0.764,0.009,1.585,0.251,2.431,0.796
				c17.11,11.046,34.17,22.217,50.59,34.272c8.309,6.101,16.498,12.376,24.387,19.017c5.161,4.346,14.512,9.939,9.622,16.812
				c0.513,1.436,0.257,3.074-1.286,4.48c-11.628,10.605-23.513,20.953-35.596,31.031
				C137.688,310.869,128.852,318.109,119.562,324.697z M390.208,334.834c-28.313,34.414-71.496,56.127-116.327,56.479
				c-22.801,0.18-45.147-5.553-64.597-17.607c-18.35-11.371-33.73-26.275-47.807-42.461c-3.357-0.148-6.428-2.291-6.428-6.67v-3
				c0-7.812,8.845-10.572,13.697-4.771c14.186,16.957,30.168,33.654,49.466,44.816c18.438,10.664,38.995,15.912,60.329,14.521
				c43.481-2.84,83.351-24.98,107.855-61.191c23.022-34.021,29.145-78.075,11.762-115.863
				c-21.054-45.764-69.449-71.58-119.111-67.584c-24.074,1.938-47.772,8.674-68.007,22.123
				c-20.124,13.377-36.163,31.466-50.376,50.83c-5.721,7.793-16.959-2.152-11.27-9.904c19.162-26.105,42.193-49.897,71.914-63.752
				c30.132-14.045,66.748-18.755,99.261-11.283c47.862,11.001,88.198,48.178,99.274,96.694
				C429.416,258.139,417.374,301.812,390.208,334.834z M201.732,276.355c5.348-4.133,13.019-7.008,16.999-12.643
				c0.468-0.662,0.863-1.295,0.299-2.051c-0.312-0.416-0.424-0.609-0.449-0.691c-0.04-0.02-0.092-0.047-0.166-0.094
				c-2.008-1.258-4.111-2.35-6.219-3.426c-4.93-2.52-10.257-4.779-14.695-8.139c-1.828-1.383-2.96-3.426-3.129-5.412
				c-0.744-0.549-1.475-1.113-2.221-1.659c1.064-3.305,2.342-6.559,3.703-9.644c2.553-5.788,5.395-10.973,7.658-14.728
				c10.309-17.099,28.374-30.601,46.177-39.081c19.983-9.519,43.3-13.426,64.42-5.178c18.233,7.12,33.934,20.207,41.587,38.541
				c7.049,16.889,7.504,36.178,2.816,53.764c-9.809,36.811-39.534,70.619-78.904,75.355c-20.31,2.443-39.631-6.758-54.365-20.291
				c-8.562-7.861-16.194-17.061-21.893-27.273c-1.678-3.008-3.184-6.104-4.5-9.277c0.533-0.469,1.059-0.943,1.591-1.412
				C199.31,280.967,199.364,278.184,201.732,276.355z"/>
		</g>
	</g>
	<g>
		<g>
			<path d="M478.458,146.518c-25.208-40.398-65.945-71.646-108.668-91.566c-43.311-20.195-92.883-29.541-140.295-21.322
				C147.671,47.811,69.541,108.289,46.62,189.26c-3.336,5.541-3.768,13.082-5.205,19.189c-1.015,4.303-1.729,8.689-2.326,13.068
				c-0.06,0.432-0.109,0.865-0.156,1.295c-0.098,0.264-0.188,0.533-0.248,0.832c-0.836,4.189-1.518,8.41-2.104,12.646
				c-0.033,0.074-0.061,0.148-0.096,0.223c-0.533,1.158-0.606,2.258-0.367,3.238c-1.014,8.078-1.688,16.207-2.263,24.316
				c-0.812,11.434-0.903,22.898-0.26,34.342c1.253,22.287,5.647,44.52,13.341,65.482c15.342,41.799,45.506,76.547,86.127,95.293
				c23.07,10.645,48.766,16.691,73.87,19.959c25.53,3.324,51.527,3.104,76.999-0.598c50.868-7.389,98.493-29.662,136.1-64.754
				c36.375-33.939,64.978-77.57,78.113-125.768C511.26,239.908,504.95,188.973,478.458,146.518z M387.151,427.787
				c-42.355,29.805-94.066,43.846-145.553,43.721c-26.075-0.062-52.099-4.182-77.107-11.471
				c-22.87-6.666-44.191-16.84-62.419-32.326c-26.51-22.523-43.337-54.012-52.007-87.348c-4.551-17.498-6.574-35.625-6.904-53.678
				c-0.168-9.217,0.23-18.432,1.072-27.609c0.404-4.414,0.812-8.816,1.287-13.205c-0.035-0.227-0.047-0.463-0.011-0.719
				c0.304-2.086,0.56-4.191,0.794-6.307c2.676-7.301,2.428-15.367,3.812-23.021c0.75-4.146,1.812-8.217,2.733-12.326
				c0.186-0.826,0.314-1.748,0.445-2.697c0.432-1.031,0.889-2.055,1.39-3.066c0.353-1.438,0.729-2.865,1.118-4.289
				c0.531-0.861,0.754-1.75,0.737-2.609c22.554-77.598,99.003-135.467,177.907-147.928c47.868-7.559,97.334,3.842,140.14,25.494
				c42.576,21.533,82.845,55.684,104.185,99.043C524.761,260.889,465.644,372.555,387.151,427.787z"/>
		</g>
	</g>
	<g>
		<g>
			<path d="M173.692,251.252c-7.889-6.641-16.078-12.916-24.387-19.017c-16.42-12.056-33.479-23.227-50.59-34.272
				c-0.846-0.545-1.667-0.787-2.431-0.796c-2.761-2.062-7.301-1.578-7.722,2.725c-1.818,18.559,1.875,37.334,3.634,55.767
				c2.374,24.895,2.773,49.637,2.534,74.631c-0.025,2.607,2.772,4.984,5.326,4.652c7.148-0.926,13.811-6.207,19.504-10.244
				c9.29-6.588,18.127-13.828,26.871-21.121c12.083-10.078,23.968-20.426,35.596-31.031c1.543-1.406,1.799-3.045,1.286-4.48
				C188.204,261.191,178.854,255.598,173.692,251.252z M173.323,267.004c-10.34,9.398-20.887,18.576-31.594,27.553
				c-8.316,6.971-16.754,13.816-25.511,20.23c-3.456,2.531-6.983,4.975-10.646,7.197c-0.253,0.154-0.523,0.314-0.799,0.475
				c0.166-21.654,0.041-43.316-2.371-64.865c-1.054-9.422-2.047-18.865-3.016-28.298c-0.672-6.559-1.369-13.272-1.365-19.931
				c26.16,16.944,52.07,34.427,75.549,54.984C173.165,265.24,173.122,266.15,173.323,267.004z"/>
		</g>
	</g>
	<g>
		<g>
			<path d="M355.696,212.152c-7.653-18.334-23.354-31.421-41.587-38.541c-21.12-8.248-44.437-4.341-64.42,5.178
				c-17.803,8.48-35.868,21.982-46.177,39.081c-2.264,3.755-5.105,8.939-7.658,14.728c2.793,2.018,5.566,4.062,8.324,6.129
				c2.107-5.416,4.779-10.666,7.705-15.518c10.383-17.222,29.457-30.32,47.709-37.895c20.963-8.701,43.624-8.392,63.223,3.608
				c15.878,9.722,25.735,25.718,28.185,44.05c4.921,36.822-18.187,76.732-51.539,92.285c-8.663,4.037-18.245,6.451-27.823,6.564
				c-9.545,0.113-19.229-3.916-27.225-8.822c-13.912-8.539-25.752-21.402-33.369-36.068c-2.553,2.271-5.119,4.527-7.693,6.775
				c5.698,10.213,13.331,19.412,21.893,27.273c14.734,13.533,34.056,22.734,54.365,20.291c39.37-4.736,69.096-38.545,78.904-75.355
				C363.2,248.33,362.745,229.041,355.696,212.152z"/>
		</g>
	</g>
	<g>
		<g>
			<path d="M226.673,255.205c-2.727-3.646-7.767-5.564-11.705-7.568c-2.514-1.277-5.033-2.547-7.516-3.885
				c-0.892-0.481-1.76-1.003-2.627-1.528c-0.178-0.843-0.546-1.654-1.077-2.337c0.144-0.387,0.28-0.775,0.431-1.16
				c-2.758-2.066-5.531-4.111-8.324-6.129c-1.361,3.085-2.639,6.339-3.703,9.644c0.746,0.546,1.477,1.11,2.221,1.659
				c0.169,1.986,1.301,4.029,3.129,5.412c4.438,3.359,9.766,5.619,14.695,8.139c2.107,1.076,4.211,2.168,6.219,3.426
				c0.074,0.047,0.126,0.074,0.166,0.094c0.025,0.082,0.138,0.275,0.449,0.691c0.564,0.756,0.169,1.389-0.299,2.051
				c-3.98,5.635-11.651,8.51-16.999,12.643c-2.368,1.828-2.423,4.611-1.291,6.662c-0.532,0.469-1.058,0.943-1.591,1.412
				c1.316,3.174,2.822,6.27,4.5,9.277c2.574-2.248,5.141-4.504,7.693-6.775c-0.631-1.215-1.223-2.445-1.792-3.684
				C218.521,276.836,236.165,267.906,226.673,255.205z"/>
		</g>
	</g>
	<g>
		<g>
			<path class="st0" d="M419.845,216.21c-11.076-48.517-51.412-85.693-99.274-96.694c-32.513-7.472-69.129-2.762-99.261,11.283
				c-29.721,13.854-52.752,37.646-71.914,63.752c-5.689,7.752,5.549,17.697,11.27,9.904c14.213-19.364,30.252-37.453,50.376-50.83
				c20.234-13.449,43.933-20.186,68.007-22.123c49.662-3.996,98.058,21.82,119.111,67.584
				c17.383,37.788,11.261,81.842-11.762,115.863c-24.505,36.211-64.374,58.352-107.855,61.191
				c-21.334,1.391-41.891-3.857-60.329-14.521c-19.298-11.162-35.28-27.859-49.466-44.816c-4.853-5.801-13.697-3.041-13.697,4.771v3
				c0,4.379,3.07,6.521,6.428,6.67c14.076,16.186,29.457,31.09,47.807,42.461c19.449,12.055,41.796,17.787,64.597,17.607
				c44.831-0.352,88.014-22.064,116.327-56.479C417.374,301.812,429.416,258.139,419.845,216.21z"/>
		</g>
	</g>
</g>
</svg>
