<?xml version="1.0" encoding="utf-8"?>
<!-- Generator: Adobe Illustrator 16.0.0, SVG Export Plug-In . SVG Version: 6.00 Build 0)  -->
<!DOCTYPE svg PUBLIC "-//W3C//DTD SVG 1.1//EN" "http://www.w3.org/Graphics/SVG/1.1/DTD/svg11.dtd">
<svg version="1.1" id="Layer_1" xmlns="http://www.w3.org/2000/svg" xmlns:xlink="http://www.w3.org/1999/xlink" x="0px" y="0px"
	 width="66px" height="66px" viewBox="0 0 66 66" enable-background="new 0 0 66 66" xml:space="preserve">
<g>
	<g>
		<g>
			<circle fill="#16A885" cx="12.583" cy="25.169" r="6.369"/>
			<circle fill="#16A885" cx="53.417" cy="25.169" r="6.369"/>
		</g>
		<g>
			<ellipse fill="#0A8968" cx="12.583" cy="24.296" rx="6.369" ry="4.188"/>
			<ellipse fill="#0A8968" cx="53.417" cy="24.296" rx="6.369" ry="4.188"/>
		</g>
		<path fill="#3CD3A4" d="M55.872,54.188c0,4.067-3.297,7.364-7.363,7.364H17.491c-4.068,0-7.363-3.297-7.363-7.364L13.61,8.539
			c0-4.067,3.295-7.363,7.363-7.363h24.053c4.066,0,7.363,3.296,7.363,7.363L55.872,54.188z"/>
		<path fill="#3CD3A4" d="M55.872,54.188c0,4.067-3.297,7.364-7.363,7.364H17.491c-4.068,0-7.363-3.297-7.363-7.364L13.61,8.539
			c0-4.067,3.295-7.363,7.363-7.363h24.053c4.066,0,7.363,3.296,7.363,7.363L55.872,54.188z"/>
		<path fill="#30BF9A" d="M20.974,1.176h24.053c4.066,0,7.363,3.296,7.363,7.363l3.482,45.649c0,4.067-3.297,7.364-7.363,7.364"/>
		<g>
			<g>
				<path fill="#16A885" d="M30.175,25.127c0,0.409-0.332,0.741-0.742,0.741H17.655c-0.41,0-0.742-0.332-0.742-0.741l0,0
					c0-0.41,0.332-0.742,0.742-0.742h11.777C29.843,24.385,30.175,24.717,30.175,25.127L30.175,25.127z"/>
				<path fill="#16A885" d="M18.337,25.039c0.777,3.224,2.805,5.539,5.207,5.539s4.43-2.315,5.207-5.539H18.337z"/>
				<path fill="#680000" d="M18.337,25.039c0.777,2.132,2.805,3.663,5.207,3.663s4.43-1.531,5.207-3.663H18.337z"/>
				<path fill="#960E08" d="M18.608,25.605c0.914,1.668,2.768,2.181,4.936,2.181s4.021-0.513,4.936-2.181H18.608z"/>
				<circle fill="#3CD3A4" cx="23.544" cy="26.412" r="0.621"/>
				<circle fill="#ACEAD5" cx="23.412" cy="26.368" r="0.403"/>
			</g>
			<g>
				<path fill="#16A885" d="M49.087,25.127c0,0.409-0.332,0.741-0.742,0.741H36.565c-0.408,0-0.74-0.332-0.74-0.741l0,0
					c0-0.41,0.332-0.742,0.74-0.742h11.779C48.755,24.385,49.087,24.717,49.087,25.127L49.087,25.127z"/>
				<path fill="#16A885" d="M37.249,25.039c0.777,3.224,2.805,5.539,5.207,5.539c2.4,0,4.43-2.315,5.207-5.539H37.249z"/>
				<path fill="#680000" d="M37.249,25.039c0.777,2.132,2.805,3.663,5.207,3.663c2.4,0,4.43-1.531,5.207-3.663H37.249z"/>
				<path fill="#960E08" d="M37.519,25.605c0.914,1.668,2.768,2.181,4.938,2.181c2.168,0,4.021-0.513,4.936-2.181H37.519z"/>
				<circle fill="#3CD3A4" cx="42.455" cy="26.412" r="0.622"/>
				<circle fill="#ACEAD5" cx="42.322" cy="26.368" r="0.403"/>
			</g>
		</g>
		<path fill="#065177" d="M51.468,4.975C50.214,2.71,47.8,1.176,45.026,1.176H20.974c-2.773,0-5.188,1.534-6.443,3.8
			c0.297,4.503,4.033,8.065,8.609,8.065H42.86C47.437,13.041,51.173,9.478,51.468,4.975z"/>
		<path fill="#102D35" d="M26.558,13.041H42.86c4.576,0,8.312-3.563,8.607-8.066C50.214,2.71,47.8,1.176,45.026,1.176H20.974"/>
		<g>
			<path fill="#16A885" d="M18.153,37.524c0-3.354-2.717-6.072-6.07-6.072c-0.076,0-0.146,0.008-0.223,0.011l-1.732,22.726
				c0,4.067,3.295,7.364,7.363,7.364h0.584c0.047-0.303,0.078-0.609,0.078-0.925V37.524z"/>
			<path fill="#0A8968" d="M17.491,61.553h0.584c0.047-0.303,0.078-0.609,0.078-0.925V37.524c0-3.354-2.717-6.072-6.07-6.072
				c-0.076,0-0.146,0.008-0.223,0.011"/>
		</g>
		<g>
			<path fill="#16A885" d="M47.847,37.524c0-3.354,2.717-6.072,6.07-6.072c0.074,0,0.146,0.008,0.221,0.011l1.734,22.726
				c0,4.067-3.297,7.364-7.363,7.364h-0.586c-0.045-0.303-0.076-0.609-0.076-0.925V37.524z"/>
			<path fill="#0A8968" d="M48.509,61.553h-0.586c-0.045-0.303-0.076-0.609-0.076-0.925V37.524c0-3.354,2.717-6.072,6.07-6.072
				c0.074,0,0.146,0.008,0.221,0.011"/>
		</g>
		<g>
			<g>
				<g>
					<path fill="#16A885" d="M32.032,15.326c0.4,0,0.754,0.226,0.877,0.561c0.016,0.033,0.055,0.052,0.09,0.043
						c0.039,0.009,0.08-0.01,0.09-0.043c0.125-0.335,0.479-0.561,0.881-0.561c0.508,0,0.924,0.364,0.924,0.812
						c0,0.163-0.055,0.32-0.158,0.455l-0.002,0.002c-0.002,0.004-0.006,0.007-0.008,0.009l-1.727,2.96l-1.723-2.96
						c-0.002-0.004-0.004-0.005-0.008-0.008c0-0.001,0-0.003,0-0.003c-0.107-0.135-0.16-0.292-0.16-0.455
						C31.108,15.69,31.522,15.326,32.032,15.326z"/>
				</g>
				<g>
					<path fill="#960E08" d="M32.032,15.178c0.4,0,0.754,0.226,0.877,0.561c0.016,0.034,0.055,0.053,0.09,0.043
						c0.039,0.01,0.08-0.009,0.09-0.043c0.125-0.335,0.479-0.561,0.881-0.561c0.508,0,0.924,0.365,0.924,0.812
						c0,0.163-0.055,0.32-0.158,0.454c-0.002,0.002-0.002,0.003-0.002,0.003c-0.002,0.004-0.006,0.006-0.008,0.008l-1.727,2.041
						l-1.723-2.041c-0.002-0.003-0.004-0.004-0.008-0.008c0,0,0-0.001-0.002-0.003c-0.105-0.134-0.158-0.291-0.158-0.454
						C31.108,15.543,31.522,15.178,32.032,15.178z"/>
				</g>
				<g>
					<path fill="#660303" d="M32.999,15.781c0.039,0.01,0.08-0.009,0.09-0.043c0.125-0.335,0.479-0.561,0.881-0.561
						c0.508,0,0.924,0.365,0.924,0.812c0,0.163-0.055,0.32-0.158,0.454c-0.002,0.002-0.002,0.003-0.002,0.003
						c-0.002,0.004-0.006,0.006-0.008,0.008l-1.727,2.041 M31.269,16.447"/>
				</g>
			</g>
		</g>
		<path fill="#0A8968" d="M37.319,33.414c0,0.578-0.469,1.047-1.047,3.141h-6.545c-0.578-2.094-1.047-2.562-1.047-3.141l0,0
			c0-0.579,0.469-1.047,1.047-1.047h6.545C36.851,32.367,37.319,32.835,37.319,33.414L37.319,33.414z"/>
		<path fill="#066D63" d="M28.681,33.414L28.681,33.414c0-0.579,0.469-1.047,1.047-1.047h6.545c0.578,0,1.047,0.468,1.047,1.047l0,0
			c0,0.578-0.469,1.047-1.047,3.141"/>
		<path fill="#16A885" d="M25.03,42.291v4.799c0,4.385,3.555,7.94,7.939,7.94c4.387,0,7.941-3.556,7.941-7.94v-4.799H25.03z"/>
		<path fill="#680000" d="M25.03,41.113v4.799c0,4.385,3.555,7.939,7.939,7.939c4.387,0,7.941-3.555,7.941-7.939v-4.799H25.03z"/>
		<path fill="#0A8968" d="M22.851,32.281c0,0.265-0.215,0.479-0.48,0.479h-2.096c-0.264,0-0.479-0.215-0.479-0.479l0,0
			c0-0.266,0.215-0.48,0.479-0.48h2.096C22.636,31.801,22.851,32.016,22.851,32.281L22.851,32.281z"/>
		<path fill="#0A8968" d="M22.851,34.55c0,0.265-0.215,0.479-0.48,0.479h-2.096c-0.264,0-0.479-0.215-0.479-0.479l0,0
			c0-0.266,0.215-0.48,0.479-0.48h2.096C22.636,34.069,22.851,34.284,22.851,34.55L22.851,34.55z"/>
		<path fill="#0A8968" d="M22.851,36.818c0,0.266-0.215,0.48-0.48,0.48h-2.096c-0.264,0-0.479-0.215-0.479-0.48l0,0
			c0-0.266,0.215-0.48,0.479-0.48h2.096C22.636,36.338,22.851,36.553,22.851,36.818L22.851,36.818z"/>
		<path fill="#0A8968" d="M22.851,39.088c0,0.265-0.215,0.479-0.48,0.479h-2.096c-0.264,0-0.479-0.215-0.479-0.479l0,0
			c0-0.266,0.215-0.48,0.479-0.48h2.096C22.636,38.607,22.851,38.822,22.851,39.088L22.851,39.088z"/>
		<path fill="#0A8968" d="M22.851,41.356c0,0.265-0.215,0.479-0.48,0.479h-2.096c-0.264,0-0.479-0.215-0.479-0.479l0,0
			c0-0.266,0.215-0.48,0.479-0.48h2.096C22.636,40.876,22.851,41.091,22.851,41.356L22.851,41.356z"/>
		<path fill="#0A8968" d="M21.321,43.601c-0.264,0-0.479-0.215-0.479-0.48V30.557c0-0.266,0.215-0.48,0.479-0.48l0,0
			c0.268,0,0.48,0.215,0.48,0.48V43.12C21.802,43.386,21.589,43.601,21.321,43.601L21.321,43.601z"/>
		<path fill="#AF2E2E" d="M32.97,53.852c3.543,0,6.541-2.319,7.562-5.521c-0.932-0.998-2.25-1.632-3.723-1.632
			c-1.539,0-2.902,0.696-3.84,1.773c-0.934-1.077-2.299-1.773-3.838-1.773c-1.475,0-2.791,0.634-3.723,1.633
			C26.433,51.532,29.429,53.852,32.97,53.852z"/>
		<g>
			<path fill="#3CD3A4" d="M34.833,60.57c0,2.35-1.904,4.254-4.254,4.254h-8.246c-2.35,0-4.254-1.904-4.254-4.254l0,0
				c0-2.35,1.904-4.253,4.254-4.253h8.246C32.929,56.317,34.833,58.221,34.833,60.57L34.833,60.57z"/>
			<path fill="#3CD3A4" d="M47.919,60.57c0,2.35-1.902,4.254-4.252,4.254h-8.246c-2.35,0-4.254-1.904-4.254-4.254l0,0
				c0-2.35,1.904-4.253,4.254-4.253h8.246C46.017,56.317,47.919,58.221,47.919,60.57L47.919,60.57z"/>
		</g>
		<path fill="#66EDC0" d="M22.851,22.115c0,0.482-0.391,0.873-0.875,0.873h-3.75c-0.482,0-0.873-0.391-0.873-0.873l0,0
			c0-0.482,0.391-0.873,0.873-0.873h3.75C22.46,21.242,22.851,21.633,22.851,22.115L22.851,22.115z"/>
		<path fill="#3CD3A4" d="M41.435,22.115c0,0.482-0.391,0.873-0.873,0.873H36.81c-0.482,0-0.873-0.391-0.873-0.873l0,0
			c0-0.482,0.391-0.873,0.873-0.873h3.752C41.044,21.242,41.435,21.633,41.435,22.115L41.435,22.115z"/>
		<path fill="#66EDC0" d="M41.54,40.394c0,0.351-0.148,0.634-0.328,0.634H24.788c-0.182,0-0.328-0.283-0.328-0.634l0,0
			c0-0.351,0.146-0.634,0.328-0.634h16.424C41.392,39.76,41.54,40.043,41.54,40.394L41.54,40.394z"/>
		<path fill="#66EDC0" d="M15.187,19.566c-0.041,0.45-0.439,0.781-0.889,0.739l0,0c-0.449-0.042-0.781-0.44-0.738-0.891l0.744-8.014
			c0.041-0.45,0.439-0.78,0.891-0.739l0,0c0.449,0.042,0.781,0.44,0.738,0.891L15.187,19.566z"/>
		<g>
			<path fill="#66EDC0" d="M27.929,59.545c0,0.531-0.43,0.961-0.961,0.961H22.78c-0.529,0-0.959-0.43-0.959-0.961l0,0
				c0-0.53,0.43-0.96,0.959-0.96h4.188C27.499,58.585,27.929,59.015,27.929,59.545L27.929,59.545z"/>
			<path fill="#66EDC0" d="M36.054,59.545c0,0.531-0.43,0.961-0.961,0.961h-4.188c-0.529,0-0.959-0.43-0.959-0.961l0,0
				c0-0.53,0.43-0.96,0.959-0.96h4.188C35.624,58.585,36.054,59.015,36.054,59.545L36.054,59.545z"/>
			<path fill="#66EDC0" d="M44.179,59.545c0,0.531-0.43,0.961-0.961,0.961H39.03c-0.529,0-0.959-0.43-0.959-0.961l0,0
				c0-0.53,0.43-0.96,0.959-0.96h4.188C43.749,58.585,44.179,59.015,44.179,59.545L44.179,59.545z"/>
		</g>
		<path fill="#66EDC0" d="M37.319,32.956c0,0.458-0.371,0.829-0.83,0.829h-6.979c-0.459,0-0.83-0.371-0.83-0.829l0,0
			c0-0.458,0.371-0.829,0.83-0.829h6.979C36.948,32.127,37.319,32.498,37.319,32.956L37.319,32.956z"/>
		<polygon fill="#E87B18" points="54.647,5.557 50.851,12.929 54.647,12.929 51.897,18.818 59.097,11.488 55.433,11.488 
			59.228,5.469 		"/>
		<polygon fill="#E5971A" points="9.351,4.747 11.562,9.038 9.351,9.038 10.952,12.467 6.761,8.199 8.894,8.199 6.685,4.695 		"/>
		<g>
			<g>
				<path fill="#036D4F" d="M50.878,41.176c0,0.742-0.602,1.344-1.344,1.344l0,0c-0.742,0-1.344-0.602-1.344-1.344v-3.5
					c0-0.742,0.602-1.344,1.344-1.344l0,0c0.742,0,1.344,0.602,1.344,1.344V41.176z"/>
				<g>
					<path fill="#CCF2EE" d="M57.521,43.325c1.217,0.02,2.219-0.949,2.238-2.167l0.051-3.213c0.02-1.216-0.953-2.218-2.168-2.237
						c-1.076-0.017-1.979,0.738-2.189,1.756l-5.457-0.087c-1.117-0.018-0.933,0.89-0.95,2.005c-0.019,1.115-0.231,2.015,0.886,2.033
						l5.457,0.086C55.565,42.524,56.445,43.309,57.521,43.325z"/>
					<path fill="#A6DDD6" d="M49.045,39.382c-0.019,1.115-0.231,2.015,0.886,2.033l5.457,0.086c0.178,1.023,1.058,1.808,2.133,1.824
						c1.217,0.02,2.219-0.949,2.238-2.167l0.051-3.213"/>
					<path fill="#8DCCC3" d="M49.045,39.382c-0.019,1.115-0.231,2.015,0.886,2.033l5.457,0.086c0.178,1.023,1.058,1.808,2.133,1.824
						c1.217,0.02,2.219-0.949,2.238-2.167"/>
				</g>
			</g>
			<g>
				<path fill="#036D4F" d="M15.122,41.176c0,0.742,0.602,1.344,1.344,1.344l0,0c0.742,0,1.344-0.602,1.344-1.344v-3.5
					c0-0.742-0.602-1.344-1.344-1.344l0,0c-0.742,0-1.344,0.602-1.344,1.344V41.176z"/>
				<g>
					<path fill="#CCF2EE" d="M8.479,43.325c-1.217,0.02-2.219-0.949-2.238-2.167L6.19,37.945c-0.02-1.216,0.951-2.218,2.168-2.237
						c1.076-0.017,1.979,0.738,2.189,1.756l5.457-0.087c1.117-0.018,0.933,0.89,0.95,2.005c0.019,1.115,0.231,2.015-0.886,2.033
						l-5.457,0.086C10.435,42.524,9.556,43.309,8.479,43.325z"/>
					<path fill="#A6DDD6" d="M16.955,39.382c0.019,1.115,0.231,2.015-0.886,2.033l-5.457,0.086
						c-0.178,1.023-1.057,1.808-2.133,1.824c-1.217,0.02-2.219-0.949-2.238-2.167L6.19,37.945"/>
					<path fill="#8DCCC3" d="M16.955,39.382c0.019,1.115,0.231,2.015-0.886,2.033l-5.457,0.086
						c-0.178,1.023-1.057,1.808-2.133,1.824c-1.217,0.02-2.219-0.949-2.238-2.167"/>
				</g>
			</g>
		</g>
	</g>
	<path fill="#D4F9F3" d="M26.306,41.415v0.292c0,0.943,0.765,1.708,1.709,1.708c0.941,0,1.707-0.765,1.707-1.708v-0.292H26.306z"/>
</g>
</svg>
