<?xml version="1.0" encoding="UTF-8"?>
<svg id="Layer_1" xmlns="http://www.w3.org/2000/svg" version="1.1" viewBox="0 0 7000 5000">
  <!-- Generator: Adobe Illustrator 29.5.1, SVG Export Plug-In . SVG Version: 2.1.0 Build 141)  -->
  <defs>
    <style>
      .st0 {
        fill: #8b2f26;
      }

      .st1 {
        fill: #d9f2ff;
      }

      .st2 {
        fill: #fff;
      }

      .st3 {
        fill: #206069;
      }

      .st4 {
        fill: #ba5842;
      }

      .st5 {
        fill: #9f4134;
      }

      .st6 {
        fill: #301817;
      }

      .st7 {
        fill: #2a1c22;
      }

      .st8 {
        fill: #4e3435;
      }

      .st9 {
        fill: #194e55;
      }

      .st10 {
        fill: #bc3d34;
      }

      .st11 {
        fill: #1a0906;
      }

      .st12 {
        fill: #e78805;
      }

      .st13 {
        fill: #d5d8db;
      }

      .st14 {
        fill: #ffaf4a;
      }

      .st15 {
        fill: #a2a6bf;
      }
    </style>
  </defs>
  <g id="Generative_Object">
    <path class="st14" d="M4395.9,2838.4l-336.5,127.2-31.8-339.2-34.4,434.6c-16.9,4.8-9.4,10.1-10.6,10.6-47.4,17.2-107.2,63.2-161.6,79.5-53.1,15.9-123.3-10.6-124.5,58.3-9.5-5.1-43.9-13.8-47.7-23.8-7.1-18.5,3.2-97.1-5.3-132.5-5.6-23.1-54.8-100.6-74.2-113.9-6.7-37.6,14.2-275.8-13.2-286.2-13.9-5.3-282.9-5.3-296.8,0-30.7,11.7-.3,276.6-18.5,318-78.2-41.9-17,51.1,5.3,79.5l-10.6,21.2c-59.6-25.3-6.6,44.2,10.6,68.9,2.9,10.9-1.7,14.2-5.3,21.2s-15.6-3.6-10.6,13.2,15,22.7,15.9,23.8c4.5,26.8-13.2,96,18.5,106l304.7-10.6c53.4,22.4,171.1,138.1,227.9,180.2-208.4,275.8-533.5,311.1-757.9,23.8-138.4-177.2-9.5-177.1,74.2-318-4.2-16.8-115.7-29.1-145.7-39.7-42.5-15-87.2-53.4-124.5-63.6-4.8-1.3-5.9-4.3-10.6-5.3l-39.7-434.6-37.1,333.9-331.2-132.5c104.6-363,112.4-529.4,498.2-636,171.4,402.5,800.4,427.4,943.4-10.6,66.4,14.8,204.3,27.4,257,58.3,118.8,69.6,237.5,452.9,272.9,588.3Z"/>
    <path class="st4" d="M2763.5,3172.3c-39.4,103.8-163.1,333.7-174.9,424-6.1-21-101.4-61.2-106-34.4l106,50.3,58.3,535.3h-196.1c-28-99-63.6-198.7-84.8-299.4-63.4-301.1,16.4-537.8,68.9-834.7l328.6,159Z"/>
    <path class="st4" d="M3563.8,2001c8.2,21.7,21,43.1,31.8,63.6,9,17.1,30.2,70.3,45,79.5,10.7,6.6,136.8,31.7,161.6,37.1-102.4,370.5-686.2,348.1-810.9,5.3,25-6.4,170.2-37,177.5-42.4,13.2-9.6,32.4-74.3,39.7-90.1,11.1-23.9,23-43.2,31.8-68.9,106.4,72.8,210.5,81.1,323.3,15.9Z"/>
    <path class="st14" d="M3797,3474.4c33.7,25,66.7,55.6,100.7,79.5,0,41.9-22.3,93.8-26.5,132.5-286.1,102.9-627.7,84.9-916.9,0l-111.3-609.5c37.4,10.2,82,48.6,124.5,63.6,30.1,10.6,141.5,23,145.7,39.7-83.7,140.9-212.6,140.8-74.2,318,224.4,287.3,549.5,251.9,757.9-23.8Z"/>
    <path class="st15" d="M4046.1,4142.2c4.1,3.9,5.7,4.9,7.9,10.6h1256.1v26.5H1520.7l-7.9-23.8c308.1-2.6,626.9-7.9,938.1-7.9h196.1c39.9,0,81.3-5.3,111.3-5.3,400.4.3,869.9,39.9,1274.6,10.6,3-.2,17.1-2.4,13.2-10.6Z"/>
    <path class="st14" d="M3850,2186.5c-138.4,424.2-743.7,398.9-911.6,10.6,20.4-5.6,37-6.5,53-10.6,124.6,342.8,708.5,365.2,810.9-5.3,12.9,2.8,30.1,1.5,47.7,5.3Z"/>
    <path class="st5" d="M4364.1,2949.7c2.9,42.6,11.2,84.9,15.9,127.2l-10.6,7.9c-1.5-10.3,6.2-18.9-7.9-23.8-6.9-2.4-116,49.1-137.8,47.7l-188.1,21.2c-7.3-20.6-20.7-40.5-21.2-63.6,4.3-.9,21.3-7.3,37.1-10.6,110.3-23.3,216.3-39.6,312.7-106Z"/>
    <path class="st14" d="M2779.4,3066.3c-113.8-25.6-235.2-45.1-333.9-116.6-12-8.7-33.6-34.9-47.7-45,11.8-16.5,15.8-36.7,21.2-55.6,48.3,33,102,63.3,156.3,84.8,30.9,12.2,177.9,47,185.5,53,9,7.2,13,64.3,18.5,79.5Z"/>
    <path class="st14" d="M4401.2,2849c4.5,18.8,13.1,36.3,15.9,55.6-.8,4-45.6,40-53,45-96.4,66.4-202.4,82.7-312.7,106-16.6-8.1,2.4-69.9,7.9-74.2,7.5-5.8,132.7-32.3,159-42.4,63.5-24.3,122.9-58.8,182.8-90.1Z"/>
    <path class="st5" d="M2779.4,3066.3c6.7,1.5,13.8,3.8,21.2,5.3-11.6,33.8-24.4,67.3-37.1,100.7l-328.6-159c3.7-20.9,12-41.8,10.6-63.6,98.7,71.5,220.1,91,333.9,116.6Z"/>
    <path class="st12" d="M2832.4,3071.6c-9-2-22.6,1.9-31.8,0-7.4-1.5-14.5-3.8-21.2-5.3-5.5-15.2-9.5-72.3-18.5-79.5-7.6-6-154.6-40.8-185.5-53-54.4-21.5-108.1-51.8-156.3-84.8,1.3-4.5,4-6.1,5.3-10.6l331.2,132.5,37.1-333.9,39.7,434.6Z"/>
    <path class="st12" d="M4395.9,2838.4c1.2,4.8,4.2,5.9,5.3,10.6-60,31.3-119.4,65.8-182.8,90.1-26.3,10.1-151.5,36.6-159,42.4-5.6,4.3-24.6,66.1-7.9,74.2-15.8,3.3-32.8,9.7-37.1,10.6s-9.7-8.5-21.2-5.3l34.4-434.6,31.8,339.2,336.5-127.2Z"/>
    <path class="st12" d="M3865.9,2191.8c-143,438-772,413.1-943.4,10.6,3.1-.9,9.4-3.5,15.9-5.3,167.8,388.3,773.2,413.6,911.6-10.6,7.7,1.7,11.2,4.3,15.9,5.3Z"/>
    <path class="st5" d="M3240.5,2970.9c33.5,18,66.2,62,106,74.2,38,30.6,97.2,33,121.9,82.1-26.3,24.4-71.1,12.7-103.3,2.6-19.9,8,49.7,33.8,50.3,39.7-7.3,43.4-153.1,14.4-153.7,26.5,29.3,27.5,52.5,12.9,92.7,23.8l161.6,63.6c-66.6-16.4-227.1-32.7-270.3-84.8-.9-1.1-15.5-22.5-15.9-23.8-5-16.8,10.2-12.5,10.6-13.2l31.8,7.9c0-13.5-21.7-22.3-26.5-29.1-17.2-24.7-70.2-94.2-10.6-68.9,23.6,10,53.9,44.8,84.8,45-20.7-23.4-55.1-42-74.2-66.2-22.3-28.4-83.5-121.4-5.3-79.5Z"/>
    <path class="st14" d="M3982.5,3071.6l-37.1,233.2c-82.4-31.5-170.8-53.4-249.1-95.4,1.3-68.9,71.4-42.4,124.5-58.3,54.4-16.3,114.3-62.3,161.6-79.5Z"/>
    <path class="st1" d="M3516.1,3283.6c18.4,4.5,33.2,2.3,53,10.6l-304.7,10.6c-31.8-10-14.1-79.2-18.5-106,43.1,52.1,203.7,68.4,270.3,84.8Z"/>
    <path class="st13" d="M3235.2,3071.6l10.6-21.2c19.1,24.3,53.5,42.9,74.2,66.2-30.9-.2-61.2-35-84.8-45Z"/>
    <path class="st2" d="M3240.5,3161.7c3.6-7,8.2-10.3,5.3-21.2,4.8,6.9,26.4,15.7,26.5,29.1l-31.8-7.9Z"/>
    <path class="st14" d="M2996.7,1449.9c-.3.1-1.1,2-5.3,5.3-131.5-242.9,24.5-586.8,310-609.5,74.6-5.9,215.4,16.9,286.2,42.4,205.9,74.3,305.3,297.8,233.2,503.5-7.3-188.7-55.7-329.8-238.5-408.1-341.4-146.3-702.2,81.7-585.6,466.4Z"/>
    <path class="st5" d="M3696.3,1322.7c-34-7.3-75.7-21.2-103.3-42.4-21-16.2-55.4-75.6-63.6-79.5-11.6-5.5-65.4-4.2-84.8-10.6-34-11.2-133.3-65.9-153.7-63.6-51.5,5.9-64.4,81.5-87.4,113.9-21.5,30.3-66,67.8-79.5,90.1s-1.3,62.3-31.8,55.6c26.8-119.2,32.4-66.9,74.2-140.4,18.7-32.9,18.2-87,42.4-121.9,13.3-19.2,77-61.7,98-60.9,8.2.3,120.5,68.8,143.1,79.5,22.3,10.6,93.4,23.1,106,31.8,4.2,2.9,45.5,62.3,63.6,79.5,28.1,26.7,58.6,16.6,76.8,68.9Z"/>
    <path class="st5" d="M3542.6,1926.9c6.7,24.5,12.2,50.5,21.2,74.2-112.8,65.2-216.9,56.9-323.3-15.9,6.5-18.9,13.3-38.4,15.9-58.3,107.4,81.6,179.4,84.1,286.2,0Z"/>
    <g>
      <path class="st6" d="M3595.6,2064.6c-10.8-20.5-23.6-41.9-31.8-63.6s-14.5-49.7-21.2-74.2c31.2-24.6,92.3-96.2,116.6-129.8,15.9-21.9,43.9-96.6,47.7-100.7,9.2-9.7,63.2-23.4,90.1-63.6,55.8-83.4,39.5-272.8-71.5-145.7l-7.9-7.9c-6.6-44.4-7-115.8-21.2-156.3-18.3-52.3-48.7-42.2-76.8-68.9-18.1-17.2-59.4-76.6-63.6-79.5-12.6-8.7-83.7-21.2-106-31.8-22.6-10.7-134.9-79.2-143.1-79.5-21-.7-84.7,41.7-98,60.9-24.2,34.9-23.7,89-42.4,121.9-41.8,73.5-47.4,21.2-74.2,140.4-7,31.3-8.3,64.6-18.5,95.4-4.6,3.3-30.7-50.8-76.8-31.8-116.6-384.7,244.3-612.6,585.6-466.4,182.7,78.3,231.2,219.4,238.5,408.1,72.1-205.7-27.3-429.2-233.2-503.5-70.8-25.5-211.6-48.3-286.2-42.4-285.5,22.7-441.6,366.6-310,609.5-42.9,34-15.9,137.5,10.6,177.5,24.4,36.8,91,62.7,95.4,68.9s2.4,26.7,5.3,31.8c38.8,68.6,89.9,145,153.7,193.4-2.6,19.9-9.4,39.4-15.9,58.3-8.8,25.7-20.7,45-31.8,68.9-51.6,13.5-93.3-4.2-145.7-5.3-7-.1-28.4,16.9-47.7,10.6s-54.2-57.5-58.3-58.3-23.6,18.8-42.4,15.9-27.5-30.7-31.8-31.8-25.1,10.9-26.5,10.6c-89.4-16.9-54.3-86-74.2-95.4-13.2-6.2-94,19.4-124.5-34.4-8.7-15.3-9.2-50.7-10.6-53-5.9-9.5-65-12.1-79.5-58.3-13.8-44.2,24.1-110,15.9-132.5-2.7-7.4-69.5-19.6-79.5-68.9-11.3-55.9,26.2-96.4,26.5-111.3,0-3.1-28.9-36.6-31.8-53-16.5-93.9,87.8-126.3,90.1-143.1,2-14.2-21.1-36.8,0-79.5,18.9-38.2,87.7-53.3,90.1-58.3,3.1-6.4-25.1-70.4,5.3-121.9,7.4-12.6,34.2-25.9,37.1-31.8,13.1-26.1-1.1-75.6,39.7-103.3,60.4-41.1,130.2,7.2,137.8,5.3s22.7-59.9,63.6-68.9c17.3-3.8,65.5,6.1,68.9,5.3,5.4-1.2,59.7-54.7,90.1-63.6s65.5-.5,79.5-5.3c6.7-2.3,18.9-33.4,37.1-37.1,42.8-8.8,74.9,37.1,79.5,37.1,9.3,0,63.5-49.2,143.1-37.1,22.5,3.4,70.1,36.6,74.2,37.1,26.3,3.1,64-27.5,121.9-10.6,42.6,12.4,76.2,76.6,84.8,79.5,27.6,9.1,61.4-6.5,100.7,21.2,24.7,17.4,41.7,71.3,47.7,74.2,14.7,7,55.5,1,84.8,21.2,38.2,26.3,30,59.8,45,82.1,31.9,47.5,105.6,19.9,116.6,106,2.2,17.4-7.3,69.8-5.3,74.2,1.7,3.7,23.2,7.5,26.5,15.9,9.9,25.1-15.3,60.6-15.9,79.5-.7,21.5-.3,67.5,0,90.1,0,2.6,18,16.5,15.9,47.7-.8,11.5-18,37.1-15.9,47.7,2.9,15,43.4,34,37.1,90.1-5.2,45.9-47.5,58.7-58.3,79.5-22.5,43.6,16.1,53.7,21.2,79.5,18.4,92.9-100,98.4-111.3,116.6-2.7,4.4.2,33.1-5.3,42.4-14.8,24.8-56.8,49.4-58.3,53-9.8,23.3,12.4,54.1-34.4,82.1-51.8,31-104.3,1.7-116.6,5.3-13.1,3.9-12,43.3-42.4,47.7-19.1,2.8-64.2-21.2-68.9-21.2s-33.6,19.4-42.4,21.2c-26.7,5.4-42.6-13.7-66.2,15.9Z"/>
      <path class="st8" d="M2750.3,1269.7c4.9-.8,15.7-1.4,18.5,2.6-55.2,41.5-88.6,80.3-84.8,153.7.6,12.2,23.1,43.9,13.2,55.6-74.7-54.2-26.9-199.5,53-212Z"/>
      <path class="st8" d="M2766.2,1667.2c-15.5,61.9,9.6,20.2,13.2,29.1s-16.4,52.8-10.6,79.5,30.7,32.2,29.1,50.3c-68.2-27.1-73.3-108.6-31.8-159Z"/>
      <path class="st2" d="M2803.3,851c14.7-2.4,50.3-1.1,60.9,13.2-67.4-2.8-87.3,32-119.2,82.1-14.7-39.4,19.5-89,58.3-95.4Z"/>
      <path class="st8" d="M4006.3,1587.7c43.9,56.7,35.3,140.7-47.7,148.4,57.8-50.1,62.4-73.4,47.7-148.4Z"/>
      <path class="st8" d="M3979.8,1121.3c65.6,29.3,77.2,105.9,42.4,164.3,14.2-67.4-13.9-108.7-42.4-164.3Z"/>
      <path class="st2" d="M2591.3,1688.4c20.9,12.7,9.8,39.2,18.5,55.6,12.8,24.2,64.9,12,29.1,50.3-47.4-18.2-72.8-56.8-47.7-106Z"/>
      <path class="st8" d="M3900.3,1783.8c25.3,62.1,1.3,141.7-74.2,137.8,48.9-35.9,77.6-74,74.2-137.8Z"/>
      <path class="st2" d="M3895,904c32.2-17.5,119.3,56.9,103.3,76.8-22.9,28.7-36.5-35.1-42.4-42.4-21-25.9-39.7-16.2-60.9-34.4Z"/>
      <path class="st2" d="M3773.1,808.6c39.5-3,115.5,55,82.1,87.4-18-42.7-44.9-63.1-82.1-87.4Z"/>
      <path class="st8" d="M2856.3,1031.2c31.1,4.1-49.7,39.8-53,42.4-18.7,14.9-30,38-50.3,50.3,11.3-50.8,60.2-74.5,103.3-92.7Z"/>
      <path class="st2" d="M2570.1,1280.3c26.5,26.1-37.4,33.6-45,66.2s13,44.9,13.2,71.5c-51.7-51.3-13.4-99.7,31.8-137.8Z"/>
      <path class="st2" d="M2824.5,882.8c-10.9,21.9-15.3,74.2-47.7,63.6-22-7.2,36.1-64,47.7-63.6Z"/>
      <path class="st2" d="M2660.2,1709.6c16.7,4.7-4.9,84.5-39.7,7.9,7.9,1.3,37.8-8.5,39.7-7.9Z"/>
    </g>
    <g>
      <path class="st4" d="M3569.1,2939.1c19.4,13.4,68.6,90.9,74.2,113.9,8.5,35.4-1.8,114,5.3,132.5s38.2,18.8,47.7,23.8c78.3,42,166.7,63.9,249.1,95.4,49.2,18.8,105.1,57.2,156.3,68.9s18.3,6.8,23.8-2.6c-35.6-78.3-61.6-160.2-90.1-241.1l188.1-21.2c21.8,1.4,130.9-50.1,137.8-47.7,14.2,5,6.4,13.6,7.9,23.8l10.6-7.9c13,116.8,69.3,587.1-18.5,657.2-2.3,1.8-25,15.5-26.5,15.9-106.8,25.8-347.1-132.9-437.2-196.1-34-23.9-67-54.5-100.7-79.5-56.8-42.1-174.5-157.8-227.9-180.2-19.7-8.3-34.6-6.1-53-10.6l-161.6-63.6c-40.2-10.9-63.4,3.7-92.7-23.8.6-12.1,146.4,16.9,153.7-26.5-.7-5.9-70.3-31.8-50.3-39.7,32.3,10,77.1,21.7,103.3-2.6-24.7-49.2-83.9-51.5-121.9-82.1-11-8.9-86.7-96.4-71.5-106,54.3,1,242.7,132.8,280.9,121.9,35.8-10.2-5.6-100.6-2.6-129.8,4-3.3,11.5,4.9,15.9,7.9Z"/>
      <path class="st0" d="M4133.5,3373.7c5.9-3.6,127.9,42.8,124.5,55.6-7.9,9.8-119.8-29.7-124.5-34.4-4-4-4.6-18.4,0-21.2Z"/>
    </g>
    <path class="st0" d="M2588.6,3596.3c-.7,5.1.4,10.7,0,15.9l-106-50.3c4.6-26.8,99.9,13.4,106,34.4Z"/>
    <g>
      <path class="st9" d="M3871.2,3686.4c-10.9,99.9,22.5,97.3,58.3,177.5,16.7,37.5,105.7,267.9,116.6,278.2,3.9,8.2-10.3,10.4-13.2,10.6-404.8,29.3-874.2-10.3-1274.6-10.6,49.4-159.2,143.2-300.4,196.1-455.8,289.2,84.9,630.8,102.9,916.9,0Z"/>
      <path class="st3" d="M3052.4,3797.7c232.2,42.7,472.3,44.2,704.9,5.3l198.7,331.2-1110.3,2.6,206.7-339.2Z"/>
    </g>
    <g>
      <path class="st1" d="M3569.1,2939.1c-4.4-3-11.9-11.3-15.9-7.9-3,29.2,38.5,119.6,2.6,129.8-38.2,10.9-226.6-120.9-280.9-121.9-15.1,9.6,60.5,97.1,71.5,106-39.8-12.2-72.5-56.2-106-74.2,18.3-41.4-12.2-306.3,18.5-318,13.9-5.3,282.9-5.3,296.8,0,27.5,10.4,6.6,248.6,13.2,286.2Z"/>
      <path class="st7" d="M3285.5,2690c42.5-11.5,43.5,47.7,15.9,53-33.6,6.5-46.9-44.6-15.9-53Z"/>
    </g>
    <g>
      <path class="st4" d="M3696.3,1322.7c14.2,40.5,14.6,112,21.2,156.3l7.9,7.9c111.1-127,127.4,62.3,71.5,145.7-26.9,40.2-80.9,53.9-90.1,63.6-3.8,4.1-31.8,78.7-47.7,100.7-24.3,33.6-85.4,105.3-116.6,129.8-106.8,84.1-178.8,81.6-286.2,0s-114.9-124.9-153.7-193.4c-2.9-5.1-4.4-30.5-5.3-31.8-4.4-6.1-71-32.1-95.4-68.9-26.5-40.1-53.5-143.5-10.6-177.5,4.2-3.3,5-5.2,5.3-5.3,46.1-19,72.3,35.1,76.8,31.8,10.2-30.8,11.5-64.1,18.5-95.4,30.5,6.6,25.4-45.1,31.8-55.6,13.5-22.3,58-59.7,79.5-90.1,23-32.5,36-108.1,87.4-113.9,20.4-2.3,119.7,52.4,153.7,63.6,19.4,6.4,73.2,5.1,84.8,10.6,8.2,3.9,42.6,63.3,63.6,79.5,27.6,21.2,69.3,35.1,103.3,42.4Z"/>
      <path class="st2" d="M3526.7,1752c-66.2,96.5-179.1,98.4-249.1,5.3l249.1-5.3Z"/>
      <path class="st10" d="M3277.6,1757.3c70,93.1,182.9,91.2,249.1-5.3-57.7,154.1-197,152.3-249.1,5.3Z"/>
      <path class="st6" d="M3545.2,1381c37.3-4.5,92.9.7,124.5,23.8l-188.1,29.1c-28-29.5,40.8-50.3,63.6-53Z"/>
      <path class="st6" d="M3195.5,1381c35.7-3.5,123.4.4,135.1,45-5.8,13.8-162.8-26.9-193.4-13.2-30.7-9.9,52.3-31.2,58.3-31.8Z"/>
      <path class="st5" d="M3015.3,1476.4c67.5-34.3,83,164.1,68.9,169.6-24.5,9.5-42.8-43.1-34.4-60.9,8.4-17.9,39,10.9,21.2-47.7-11.9-39.2-69.7-80.4-47.7-15.9-24,29-18.2-39.8-7.9-45Z"/>
      <path class="st5" d="M3778.4,1471.1c9.5.6,12.5,7.9,18.5,13.2-37.8-18.1-80.6,66.8-74.2,84.8,1.9,5.4,70.1,44.9-7.9,76.8-13.9-5.8.7-178.8,63.6-174.9Z"/>
      <path class="st5" d="M3365,1661.9l82.1,2.6c-23.7,31.3-57.9,30.9-87.4,7.9l5.3-10.6Z"/>
      <path class="st5" d="M3783.7,1502.9c15.8.6,6.5,26.4,0,26.5-4.4,0-11.7-26.9,0-26.5Z"/>
      <g>
        <path class="st11" d="M3298.8,1534.7l-15.9-13.2c2.7,14.4,5.6,19.8,0,34.4-21.7,57.2-57.8,17.2-79.5,0,0-38.2,22.2-85.1-26.5-31.8-1-1.2-27.4-7.5-23.8-21.2,45.8-36.4,145.4-45,145.7,31.8Z"/>
        <path class="st2" d="M3203.4,1555.9c-17.9-14.2-16.3-19.4-26.5-31.8,48.7-53.3,26.4-6.4,26.5,31.8Z"/>
        <path class="st2" d="M3298.8,1534.7c0,6.3,11.6,30.5-15.9,21.2,5.6-14.7,2.7-20,0-34.4l15.9,13.2Z"/>
        <path class="st2" d="M3221.9,1513.5c9.2,0,9.1,21.2,0,21.2-9.2,0-9.1-21.2,0-21.2Z"/>
      </g>
      <g>
        <path class="st11" d="M3503,1535.2l15.9-13.2c-2.7,14.4-5.6,19.8,0,34.4,21.7,57.2,57.8,17.2,79.5,0,0-38.2-22.2-85.1,26.5-31.8,1-1.2,27.4-7.5,23.8-21.2-45.8-36.4-145.4-45-145.7,31.8Z"/>
        <path class="st2" d="M3598.4,1556.4c17.9-14.2,16.3-19.4,26.5-31.8-48.7-53.3-26.4-6.4-26.5,31.8Z"/>
        <path class="st2" d="M3503,1535.2c0,6.3-11.6,30.5,15.9,21.2-5.6-14.7-2.7-20,0-34.4l-15.9,13.2Z"/>
        <path class="st2" d="M3579.8,1514c-9.2,0-9.1,21.2,0,21.2,9.2,0,9.1-21.2,0-21.2Z"/>
      </g>
    </g>
  </g>
</svg>