<svg xmlns="http://www.w3.org/2000/svg" viewBox="0 0 2978 3351.8">
    <defs>
        <style>
            .st3{fill:#15133f}.st6{fill:#712915}.st7{fill:#231f20}.st8{fill:#cf9184}.st12{fill:#fff}.st13{fill:#fcb853}.st14{fill:#92453e}.st15{fill:#bc94c3}.st16{fill:#6fc281}.st17{fill:#f5b752}.st19{fill:#f26642}.st20{fill:#fffefa}.st21{fill:#1d2350}.st25{fill:#f26744}.st26{fill:#f2644b}.st29{fill:#048cb8}.st30{fill:#84688b}.st32{fill:#d7a178}.st33{fill:#1d2451}.st36{fill:#9e8dc2}.st37{fill:#304598}
        </style>
    </defs>
    <path style="fill:#675faa;stroke:#675faa;stroke-width:.5px;stroke-miterlimit:10" d="M0 0h2978v3351.8H0z" id="Layer_14"/>
    <g id="Layer_13">
        <path class="st12" d="M606.6 678.6h719l16.2-129.6s-39.7-8.8-107.1 40.2c-5.7-18.4-28-82.4-90.9-114.4-14-7.1-40.4-20.1-74.6-16.3-55 6.1-86.3 50.7-92.9 60.3-19.7 28.1-24.9 56.4-26.6 71.5-14.7-4.8-70.9-21-131.8 6.1-25.5 11.4-51.5 30.5-74.5 61.6 0 0-84.8-46.3-136.9 20.7Z"/>
        <path class="st13" d="M608.2 788.9c11.1 12.7 14.4 29 13.3 45.2-.6 11.4-2.9 23.1-7.4 33.9-1.6 3.8-3.4 7.5-5.9 11.3h-1c-2.6-3.8-4.3-7.5-5.9-11.3-4.4-10.8-6.7-22.5-7.4-33.9-.8-11.6.6-23.2 5.8-33.9 1.9-3.8 4-7.5 7.5-11.3h1Z"/>
        <path class="st13" d="M567.3 827.4c21.4-14.2 54.5-13.9 76.8-2 1.7.9 3.4 1.9 5.1 3.2v1c-3.3 2.3-6.7 3.9-10.3 5.4-19.7 7.5-42 7.3-61.4-.8-3.6-1.6-6.9-3.3-10.2-5.7v-1Z"/>
        <path class="st12" d="M711.7 874.4v39.1c0 2.4 3.8 2.4 3.8 0v-39.1c0-2.4-3.8-2.4-3.8 0Z"/>
        <path class="st12" d="M696.5 894.3h33.4c2.4 0 2.4-3.8 0-3.8h-33.4c-2.4 0-2.4 3.8 0 3.8Z"/>
        <path class="st13" d="M2248 979.4c10.4 12.4 11.7 30.9 6.4 45.8-.9 2.2-1.8 4.5-3.4 6.8h-.2c-1.8-2.1-3-4.2-4.1-6.3-6-12.2-7.2-26.6-2.5-39.4.9-2.4 2-4.6 3.5-6.8h.2Z"/>
        <path class="st13" d="M2223.8 1008c12.6-10.8 32.7-12.7 47.3-4.9 1.1.6 2.2 1.3 3.3 2.1v1c-1.8 1.8-3.9 3.2-6 4.4-11.6 6.3-25.7 6.9-37.9 2-2.2-.9-4.3-2-6.5-3.6v-1Z"/>
        <path class="st12" d="M2322 1044.4c5.2 8.4 4.9 20.8 0 29.3h-1c-4.9-8.4-5.2-20.9 0-29.3h1Z"/>
        <path class="st12" d="M2305.7 1056.5c9.3-5.4 23.2-4.5 32.3.9v1c-2.7 1.5-5.5 2.3-8.2 2.8-6.8 1.2-13.7 1-20.2-1.5-1.3-.6-2.7-1.2-4-2.1v-1Z"/>
        <path class="st13" d="M1863.3 1958.6c14.7 22.4 13.8 57.5 2.9 81.4-.8 1.8-1.8 3.6-2.9 5.4h-1c-4.1-6.7-6.6-14.2-8.4-21.7-4.1-18.9-3.8-38.9 3.9-57 1.3-2.8 2.6-5.5 4.5-8.1h1Z"/>
        <path class="st13" d="M1825.3 2001.4c17.2-18.1 45.7-20.5 67.4-9.5 3.5 1.8 6.8 3.8 9.9 6.7v1c-5.3 5.5-12.1 9.4-18.9 12-16.7 6.2-35.4 5.7-51-3.6-2.7-1.7-5-3.2-7.5-5.6v-1Z"/>
        <path class="st12" d="M1769.1 2056.6c4.1 8.4 4 18 2.6 27-.5 3-1.3 6-2.6 9h-1c-4-9.6-4.5-21.5-1.8-31.5.5-1.5 1-3 1.8-4.5h1Z"/>
        <path class="st12" d="M1752 2071.8c10.6-5.9 27.3-4.8 38.2 0v1c-3.2 1.5-6.4 2.3-9.5 2.9-9.6 1.6-19.9 1.8-28.6-2.9v-1Z"/>
        <path class="st13" d="M863.5 1885.7c8.3 11.9 7.7 31.3 0 43.5h-1c-2.4-3.6-3.6-7.3-4.6-10.9-2.3-10-2-20.7 2.9-29.9.5-.9 1.1-1.8 1.7-2.7h1Z"/>
        <path class="st13" d="M840.9 1906.9c12.6-6.1 31.7-6.3 44.3 0v1c-3.7 2-7.4 2.9-11.1 3.6-11.2 1.8-22.8 1.3-33.2-3.6v-1Z"/>
        <path class="st12" d="M706 1957.4v38.5c0 4.8 7.5 4.8 7.5 0v-38.5c0-4.8-7.5-4.8-7.5 0Z"/>
        <path class="st12" d="M690.6 1980.4h38.5c4.8 0 4.8-7.5 0-7.5h-38.5c-4.8 0-4.8 7.5 0 7.5Z"/>
    </g>
    <g id="Layer_12">
        <path class="st7" d="M1526.8 2590.4c8.5 3.6 21.8 7.8 38.3 7.2 7.2-.2 22.7-.9 38.1-10.5 11-6.9 20-17 18.3-19.8l-9.9-.9-84.7 23.9Z"/>
        <circle class="st16" cx="2107.9" cy="2360.7" r="52.9"/>
        <circle class="st33" cx="2107.9" cy="2360.7" r="27.4"/>
        <circle class="st16" cx="1652.9" cy="2605" r="52.9"/>
        <path d="M1409.8 2570s17.9 29.6 136.4 18.9c0 0 54.1-5.6 130.7-47s439.7-232.9 439.7-232.9c38.4-22 62.7-47.4 76.6-64.3 13.8-16.9 76-92.6 55.1-172.1-3.2-12.1-7.5-21.4-10.6-27.3-276 174.9-551.9 349.8-827.9 524.7Z" style="fill:#f2685b"/>
        <path d="M1584.9 2334.6c66.4-37.1 132.9-74.2 199.3-111.3 18.4-11.2 47.2-28.2 83.7-47 58.8-30.2 84.1-37.5 123.6-63.3 19.4-12.7 46.9-32.8 76.6-63.3 8.9-9.7 22.8-23.6 41.9-37.8 26.5-19.8 40.9-30.2 61.3-29.6 25.3.7 42.5 18 45.8 21.3 24.2 24.3 22 56.4 21.6 61.4 0 0 9.2 145.7-117.4 218.9-21 12-52.5 30.1-90.9 51.8-52.2 29.5-115.7 64.9-195.1 108.3-206.6 112.7-231.4 120.6-260.4 126.6-29.2 6.1-123.6 25.7-174.5-5.6-8.1-4.9-15-11.1-20.5-18.9-13.1-18.6-12.5-39.6-12.5-44.8 1.2-134.9 217.5-166.6 217.5-166.6Z" style="fill:#294093"/>
        <path d="M1481.2 2528s-73.3 4.1-80.9 37c0 0-38.8-17.9-32.9-65.2 5.9-47.3 113.8 28.3 113.8 28.3Z" style="fill:#27336e"/>
        <circle class="st33" cx="1652.9" cy="2605" r="27.4"/>
        <path class="st36" d="M1404.4 2605c-17.6.7-40.8.6-67.9-2.5-25-2.8-70.7-10.1-123.6-32-68.5-28.4-112.3-66.1-122.2-74.9-53.1-46.8-83.4-97.9-100.1-132.4-.3-1.2-4.2-15.3-18.4-20.4-.7-.3-15.2-5.2-26.9 3.7-9.8 7.6-10.6 19.5-10.9 24.9-1 16.6 8.4 29 13.3 35.4 7.3 9.5 15.4 15.2 20.8 18.4-21.8-7.5-52-21.3-81.4-47-16.2-14.1-42-37.2-57.5-75.9-14.2-35.3-13.4-67.3-12.9-80 1.8-52.3 22.3-73.9 7.1-102.8-1.3-2.4-9.7-18.1-27.5-26.5-39.9-18.9-89.1 16.5-111 32.2-11.9 8.6-35.6 27.5-55.7 59.2-22.4 35.5-28.4 68.2-31.1 84.4-2 11.7-8.8 56.2 4.1 104.2 20.6 76.9 80.3 121.3 115.1 146.4 79.2 57.2 154 69.6 273.7 89.5 56.9 9.5 169.6 24 311.5 10.2 41.6-4 76.4-9.6 101.6-14.2Z"/>
    </g>
    <g id="Layer_11">
        <path d="M2388.2 1271.7s18.6-12.1 59.7 26.3c0 0 47.9 28.4 68.4 45.4 0 0 48 39.1 44.8 104.7 1.3 13.9.7 34.3-9.9 54.5-1.6 3-19.7 36.6-36.7 33.1-4.7-1-8.1-4.5-10.5-7.9 0 0-33.5 38.4-54.2 9.2 0 0-25.1 12.6-36.3-18.6-3.4 0-12.7-.5-20-7.4-4.8-4.5-6.6-9.6-8.5-15.1-1.6-4.7-3.7-12.5-3.2-22.7 0 0 3-56.7-39-74.9 0 0-49.9-38-46.1-62.9.3-4.6 1.3-11.7 5.1-19.2 5.5-10.8 13.7-16.4 22.7-22.5 12.2-8.4 23.1-12.2 30-14.6 8-2.8 19.5-5.9 33.6-7.4Z" style="fill:#a84925"/>
        <path class="st6" d="M2431.6 1498.6c20.1-42-.7-101.1-.7-101.1-10.9-9-9.4 2.2-9.4 2.2 17.1 67.9 1.7 94.6 1.7 94.6-12.4 27.6-36.1 6.6-36.1 6.6 5.6 17.8 26.7 17.5 26.7 17.5 12.7-9.2 17.7-19.8 17.7-19.8Z"/>
        <path class="st6" d="M2450.2 1537c4.3-1.9 7.2-4.6 9.3-6.7 12.2-12.8 17.7-31.6 19-36.2 6.1-21.8 6.4-39.7 6.4-45.3 0-11.9-1.3-29.4-7.6-49.6-1.4-4-4.2-5.9-5.7-5.3-1.3.5-2 3-1.6 5.9 1.2 6 2.6 14.6 3.5 24.9 1.3 15.4 3 34.1-2.4 56-2.3 9.4-6.7 23.2-16.2 38.6-3.2 5.2-9.3 10.3-17.7 11.3-12.2 1.4-21.5-8.7-22.9-10.3.4 1.3 4.2 13.8 16.6 18 9.2 3.1 17.4-.3 19.3-1.2Z"/>
        <path d="M2450.2 1537c1-1.8 10.9 4.9 23.5 1.7 3.4-.9 5.7-2.2 7.7-3.3 2.6-1.4 11.7-6.9 21.4-23.5 9.3-16 12.2-30.2 12.7-33.1 2.6-13.7 1.6-23.9.1-38.9-1-10.1-3-24-7.5-40.4-1.3-2.1-1-4.6.5-5.9 1.2-1.1 2.9-1.1 4.2-.6 1.8.6 3 2.4 3.1 4.4 3.5 8.1 8 20.4 10.3 36 1.6 11.1 6.5 48.1-14 82.6-2.3 3.9-14.5 23.7-33 30-8.3 2.8-13.9 1.6-16.1 1-7.9-2.2-13.7-8.5-12.8-10Z" style="fill:#712b17"/>
        <path d="M2242.7 1348.8c3.3 6.4 7.2 11.2 10.7 14.8 24.3 24.5 62.1 19.3 68.9 18.3 15.1-11.5 34.1-28.2 52.4-51.4 18.7-23.7 30.8-46.4 38.5-64-1.6-8.9-5.1-19.3-12.2-29.2-26.7-37-80.5-32.2-84.8-31.8" style="fill:#f26a51"/>
    </g>
    <g id="Layer_10">
        <path class="st12" d="M1620.8 2359.1c20.2 8 34.7 17.9 43.9 25.2 12 9.5 21.2 16.9 28 30.4 1.2 2.4 9.8 19.8 7.7 37.9-3.6 31.3-37.4 51-51.7 59-131.4 72.5-435.4-67-435.4-67s-154.6-77-170.9-108.4c13.6-29.5 27.2-59 40.9-88.5"/>
        <path d="M1584.9 2334.6c13 10.1 22.4 16.1 28.8 19.7 1.5.9 4 2.3 7.1 4.8 1.6 1.3 8.2 6.6 14.2 16.6.8 1.3 2.1 4.1 4.9 9.6 4.5 9 6.7 13.6 7.5 16.3 2 7 1.6 14.2.3 18.4-6.1 20.2-47.6 23.2-54.2 23.8-129.9 11.6-8.5-109.3-8.5-109.3Z" style="fill:#ed6140"/>
        <path class="st12" d="M1028.8 1959.5c-7.7 9.5-14.2 17.1-18.6 22.2-10.7 12.4-13.4 14.7-19.2 22.7-5.9 8.1-9.5 14.3-13.6 21.4-4.1 7-4.5 8.5-4.8 9.3-1.1 3.9-2.5 13.2 7.5 27.4 0 0 45.1 68.6 127.6 132.9 82.5 64.2 58-98.1 58-98.1l-136.9-137.9Z"/>
        <path d="M1452.6 1996.4c13 1.2 33.5 5.3 52.2 19.8 3.8 2.9 7.1 6 10 9 4.2 2.6 9.6 6.9 11.8 13.6 4.5 13.4-6.2 28.2-19.7 46.3-11.1 14.9-15.6 17-27.1 32.3-8.7 11.6-14.7 21.9-18.4 28.8-5.9 11.3-8.4 21.4-9.5 28.1-1.4 8.7-2.8 17.1 0 27.1 1.7 5.9 5.4 11.2 12.8 21.9 3.1 4.4 7.4 9.9 16 20.9 4.2 5.3 6.2 8 8.5 10.7 7.4 9 13.6 15.6 15.7 17.7 10.7 11.2 19.9 19 25 23.3 20.5 17.2 41.2 30.5 54.8 38.6-4.5 4.4-20.6 20.7-21.7 46.1-.8 17.7 6 39.3 30.2 63.1-35.2 3.6-63.9 1.6-84.1-1-23.4-3.1-43.6-8.1-64.3-13.3-18.1-4.5-38.2-9.5-48.2-13.6-45.3-18.5-61.7-90.1-67.9-133.8l-57.5-57.2 10.4-25.9 24.9-69.8 53.6-81.4 38.6-39.3 35.9-14.1 17.9 1.8Z" style="fill:#f6b746"/>
        <path class="st21" d="M1502 2018.7c1.8.5 3.9 1.3 6.1 2.4 2.7 1.3 5 2.8 6.8 4.1 1.6-1.3 7-5.9 14.4-12.1 11.1-9.4 13.3-11.2 17.5-12.7 1.6-.6 5.2-1.7 19.9-1.1 6 .3 14.1.8 23.8 2.2l-18.2-28.5h-39.6l-30.7 45.8Z"/>
        <path class="st12" d="M1216.1 1821.2v-13.3l23.7-13.5 34-10.2 4.6 7.1-31.2 47.8-13.1 14.1-18-32z"/>
        <path class="st19" d="M1234.1 1853.2s-21.1-43.5-19.4-44.6l-3.1 8.4c-7.2 6.1-17.9 15-31.3 25.3-28.5 22-50.4 36.3-59.3 42.2-22.1 14.7-53.3 38-92.2 74.9 0 0-3.7 18.4 6.1 28.6 15.3 25.4 30.9 43.7 42.6 55.8 10.8 11.3 20.8 20 34.4 31.7 16.8 14.5 31.3 26 41.9 34-2.7 5.8-6.8 14.5-12.5 24.8-6.8 12.2-10.5 17.2-16.1 26.6-2.8 4.7-6.1 10.4-21.2 42.4-5.5 11.5-12.5 26.6-20.7 44.4 5.6 6.5 14.1 15.6 25.2 25.5 6.6 5.9 15.6 13.4 38.1 28.9 16.9 11.6 31.7 21.8 53.1 34.4 17.7 10.4 39.6 22.1 65.4 33.7 24 10.9 44.7 19 60.6 24.9 22.9 8.4 36.5 12.3 43.9 14.3 11 3 20.3 5.1 27.2 6.5.9-12.5.9-30.8-4.4-51.7-7.6-30.2-22-50-38.1-71.5-14.8-19.7-37.8-46.6-71.8-73.2 6.3-16.4 13.8-34.2 22.8-53.1 10.2-21.4 19.2-37.8 24.2-46.6 12.7-22.4 23.5-38.9 30.6-49.7 7.3-11.1 4.4-6.2 18.7-27.2 13.8-20.3 15.4-23.3 21.1-28.2 8-6.9 17.2-14.9 30-15.7 8.3-.5 15.3 2.2 22.8-2.6 1.6-1 6.7-4.2 6.2-7l-82.8-5.1-141.9-131.1Z"/>
        <path class="st12" d="m1279.4 1907.5-64.8 98.9c25.5 1.4 47.5 4.2 64.9 7.1 10.7 1.8 24.9 4.4 41.3 8.3 15.6 3.7 29.7 7.7 42.2 11.6 3-4.7 27.4-42.5 59.7-42.6 5.4 0 16.3 1 28.1 5 9.4 3.2 13.9 6.5 28 13.1 9.8 4.6 18 7.9 23.1 9.9 6.6-5.5 13.7-13.2 21.6-22 10.7-11.9 21.1-25.6 20.3-32.8l-234.2-89.9-28.6 11.6-1.6 21.9Z"/>
        <path d="M1125.7 2164.3c7.5 16.1 16.9 31.3 28.3 44.9 4.5 5.3 9.3 10.4 14.4 15.2 4.9 4.5 10.1 8.6 15.4 12.6s10.7 7.9 15.8 12.2c6.9 5.8 13.3 12.2 19.6 18.6 6 6.1 11.9 12.4 17.2 19.2 5.9 7.6 10.9 15.9 15 24.6 7.7 16.2 12 33.9 13 51.8 0 1.7.2 3.3.2 5 0 3.2 5.1 3.2 5 0-.5-17.2-3.7-34.5-10.1-50.5-3.8-9.5-8.5-18.6-14.2-27-5.1-7.4-10.9-14.3-17-20.9-11.5-12.2-23.5-23.7-37-33.6-5.1-3.8-9.9-7.2-14.6-11.2s-10.4-9.6-15.2-14.9c-11.2-12.4-20.5-26.5-28-41.3s-2.3-4.7-3.4-7-2.3-1.5-3.4-.9-1.5 2.2-.9 3.4Z" style="fill:#f4b04e"/>
        <path d="M1116.8 1983.1c9.7-8.4 20.1-15.8 31.1-22.5 5.2-3.2 10.5-6.2 16.1-8.8 6.5-3 13.2-5.4 20.1-7.2 6.4-1.7 12.8-2.8 19.4-3.4 2.4-.2 2.4-4 0-3.8-13.3 1.2-26.4 4.5-38.7 9.9-5.8 2.6-11.3 5.6-16.8 8.9-4.9 2.9-9.7 5.9-14.4 9.2-6.7 4.7-13.2 9.7-19.4 15.1s.8 4.2 2.7 2.7Z" style="fill:#f4a84f"/>
        <path class="st20" d="M1163.5 2092.6c3.6-5.2 22.7-32.5 32.2-54.1 1.9-4.3 5.7-13.5 9.2-22.7 3.7-9.6 5.1-13.9 5.6-15.6 2.3-7.3 3.8-13.1 5.1-18.4 2.3-9.1 1.8-8.6 3.8-16.4 2.9-11.5 3.9-12.3 4.1-17.1.3-5.1.7-12.4-4-16.7-3.6-3.3-9.9-4.3-14.6-2.5-7.7 3-9.1 12.5-16.1 42.6-4.6 19.9-9.2 38.3-10 41.4-2.7 10.8-5.2 21.6-7.9 32.4-1 4-2.3 8.9-3.6 15.8-.3 1.5-.8 4.2-2.6 15.3-.9 5.4-1.6 9.9-2 13 .3.9.5 1.9.8 2.8Z"/>
        <ellipse class="st20" cx="1095.4" cy="1989.3" rx="11.1" ry="13.9" transform="rotate(-19.4 1096.417 1990.455)"/>
        <path class="st12" d="M1461.1 2146.9s-20.4-38.5-99.4-25.4c-.7 0-8.1.5-11.4 6.2-2.3 4-1.5 8.4-1 10.7.4 2.1 1 4.8 3.1 7 4.7 4.9 13 2.9 13.6 2.7 8.7-1.9 22.6-3.8 39.3-.9 23.9 4.3 40.1 16.2 47.6 22.4M1450.5 2193s-22.8-31-84.5-3.4c-2.3 1.2-7.2 4.2-10 10-1.2 2.4-3.7 7.7-1.2 12.1 2 3.7 6.4 4.8 8.4 5.3 7.3 1.8 13.7-1 16.3-2 0 0 10.8-2.3 32.2-6.8 9.7-2.1 24.2-3.4 43.5.3M1466 2225s-37.4-12.4-67.7 10.1c-1.2 1.1-4.6 4.5-5.4 10.1-.2 1.2-1.1 7.4 2.4 11.2 1.3 1.4 4.9 4.4 17.9 2.2 12.5-2.2 20.4-6.9 26.1-9.7 8.4-4 20.9-8.1 38.9-7.8M1495.1 2261.7s-26.6-4.7-52.5 21.8c-.8 1-3.8 5.1-3.2 10.7.5 4.7 3.7 10.5 9.6 11.8 6.1 1.4 11-2.9 11.5-3.4 0 0 26.3-20.9 39.6-20.4 1.3-.2 2.1-.6 2.6-1 2.3-1.8 2.7-6.1.7-10.4M1531.3 2297.1c-3.7.8-25 5.5-31.8 19.7-1 2-2.7 5.8-1.8 10.5 1 5.1 5.1 9.8 10.2 11.2 4.4 1.2 8.2-.3 10.3-1.2 14.4-5.9 23.3-25.6 25.4-30.4"/>
    </g>
    <g id="Layer_9">
        <path class="st37" d="M628.9 1515.1s58.5 337.5 497.6 219.1l150.1 56.2s-38.8 54.1-38.8 59.2c0 0-29.6 18.4 38.8 57.2 6.6-5.8 11-11.2 13.8-15.3 3.8-5.6 6.1-10.6 11.2-11.7 3.3-.8 6.1.4 7.7 1 9.3 3.8 19.4 5.6 28.1 10.7 16.6 9.8 35.8 14.2 53.6 21.4 31.2 12.6 51.4 20.1 62.8 24.5 28.8 11.1 75 31 151.7 69.4 12.3-14.5 24.6-29.9 37.3-45.8 18.9-23.6 38.3-48.6 40.3-54.3 3.2-.3 6.4-.6 9.5-.9 72.3-6.9 131-21.6 173.3-34.8 61.9-19.3 113.9-35.6 168.5-78.8 47.7-37.8 77-80 94-109.3 7.6-16.9 33.7-80.1 9.2-151.7-20.7-60.3-65.4-91.8-87.3-107.2-48.2-34-96.2-43.3-121-46.3-.2-5.5-.6-12.9-1.5-21.6-.8-7.8-1.9-14.3-2.9-20.2-3.8-21.2-9.5-44.7-10.9-49.2-7.3-25.3-54.1-78.3-128.2-132.8l-402.9 4.1-567.4 100.3-186.6 256.6Z"/>
        <path class="st37" d="M627.6 1515.4c0 .3.1.7.2 1 .2.9.4 1.9.6 2.8.3 1.5.7 3.1 1.1 4.6s1 4.1 1.6 6.1 1.4 5 2.2 7.6 1.8 5.9 2.8 8.8 2.3 6.6 3.5 9.9 2.8 7.3 4.3 10.9 3.4 8 5.2 11.9c1.9 4.2 3.9 8.3 6 12.3s4.6 8.6 7 12.9c2.6 4.5 5.2 8.9 8 13.3s5.9 9.1 9.1 13.5c3.3 4.6 6.7 9.2 10.3 13.7 3.7 4.6 7.4 9.1 11.4 13.5s8.3 9 12.7 13.3c4.5 4.5 9.2 8.8 14 12.9 5 4.3 10.1 8.5 15.4 12.4s11 8 16.7 11.7c6 3.9 12.1 7.5 18.3 10.9s13.1 6.9 19.8 9.9c7.1 3.2 14.3 6.2 21.6 8.9 7.6 2.8 15.3 5.3 23 7.6 8.2 2.4 16.5 4.4 24.9 6.2 8.8 1.9 17.7 3.4 26.6 4.6 9.5 1.3 19 2.3 28.6 2.9 10.1.7 20.2 1 30.3 1.1s21.6-.3 32.4-.9c11.5-.7 22.9-1.7 34.3-3.1 12.2-1.5 24.4-3.3 36.6-5.4 12.9-2.3 25.8-4.9 38.5-7.8 6.8-1.5 13.5-3.2 20.2-4.9 3.5-.9 6.9-1.8 10.4-2.7l1.2-.3c.4-.1-.3-.1-.3-.1h.2c2.3.8 4.6 1.7 7 2.6 5 1.9 9.9 3.7 14.9 5.6 6.8 2.5 13.5 5.1 20.3 7.6 7.9 2.9 15.7 5.9 23.6 8.8 8.1 3 16.2 6.1 24.3 9.1 7.7 2.9 15.3 5.7 23 8.6 6.4 2.4 12.7 4.8 19.1 7.2 4.4 1.6 8.7 3.3 13.1 4.9 1.5.6 3.1 1.2 4.6 1.7-.2-.6-.5-1.2-.7-1.8-4.5 6.2-8.9 12.5-13.2 18.8-7.2 10.3-14.4 20.7-21 31.4-1.2 2-2.4 3.9-3.4 6s-1.3 2.4-1.4 3.7l.6-1.1c-3.2 2-5.6 5.7-6.5 9.3-2.6 10.5 5.8 20.4 12.8 27.1 9.6 9.2 21.1 16.4 32.6 22.9.5.3 1.1.2 1.5-.2 5-4.4 9.6-9.3 13.4-14.7 3.2-4.5 6.3-12.1 12.8-12.2 3.3 0 6.4 1.7 9.4 2.8s6.9 2.3 10.4 3.4c3.5 1.2 6.9 2.4 10.2 4s6.5 3.7 9.9 5.3c13.4 6.6 27.8 10.6 41.7 15.8 7.2 2.7 14.3 5.7 21.4 8.5 6.2 2.4 12.3 4.9 18.5 7.2l25.8 9.9c6.2 2.4 12.4 4.9 18.6 7.4 7.6 3.1 15.2 6.4 22.8 9.7s18.7 8.3 28 12.5c11.3 5.2 22.5 10.4 33.6 15.8 13.4 6.4 26.8 13 40.1 19.6 3.6 1.8 7.2 3.6 10.7 5.4.5.2 1.1.2 1.5-.2 12.7-15 25-30.5 37.3-45.8 11-13.8 22.1-27.6 32.5-42 1.8-2.6 3.7-5.1 5.4-7.8s2.1-3.3 2.8-5.1l-1.2.9c19.7-1.7 39.4-4 58.9-7 17.5-2.7 35-5.9 52.3-9.7 15.1-3.3 30.2-7 45.1-11.1 14.2-3.9 28.3-8.3 42.4-12.8 16.2-5.1 32.4-10.4 48.4-16.3 15.7-5.8 31.1-12.4 46-19.9 15.7-8 30.7-17.1 45-27.3 15.4-11 30-23.3 43.5-36.6s23.4-24.5 33.8-37.8c8.6-11.1 16.7-22.6 24.1-34.5 2.7-4.3 5.6-8.6 7.7-13.3 1.6-3.6 3.1-7.2 4.4-10.9 4.2-11.1 7.5-22.6 9.9-34.3 3.2-15.6 4.7-31.6 4.4-47.5-.4-19-3.6-37.9-9.6-55.9-5.2-15.7-12.4-30.8-21.6-44.6-7.8-11.8-16.9-22.8-26.9-32.8-8.2-8.2-17-15.6-26.3-22.6-10.2-7.7-20.7-15.1-31.8-21.6-15.4-9.1-31.7-16.5-48.6-22.3-13.1-4.5-26.6-8-40.3-10.4-4.9-.9-9.9-1.6-14.8-2.2l1.2 1.2c-.5-14.6-2.1-29.1-4.7-43.4-2.5-13.7-5.4-27.3-8.8-40.8-.8-3.1-1.5-6.2-2.5-9.2-1-2.9-2.3-5.7-3.7-8.4-3.8-7.2-8.5-14-13.5-20.5s-13.7-16.7-21.1-24.6c-9.1-9.7-18.6-18.9-28.4-27.9-11.4-10.4-23.1-20.4-35.1-30-6.5-5.2-13.1-10.3-19.8-15.3s-3.4-2.6-5.2-3.8-1.3-1.1-2-1.2-.2 0-.2 0h-11.2c-3.7.1-7.5.2-11.2.2s-9.7 0-14.5.1-11.6.1-17.3.2l-19.8.2c-7.2 0-14.5.1-21.7.2s-15.7.2-23.5.2-16.5.2-24.8.3-17 .2-25.5.3-17.4.2-26.1.3c-8.7 0-17.5.2-26.2.3-8.6 0-17.2.2-25.8.3s-16.8.2-25.2.3-16.1.2-24.1.2-15 .2-22.5.2-13.8.1-20.7.2-12.3.1-18.4.2-10.4.1-15.7.2-8.4 0-12.7.1h-9.2c-1.8.1-3.5.1-5.3.1h-1.7c-.6 0-1.5.3-2.3.4l-5.2.9c-2.6.5-5.3.9-7.9 1.4s-6.9 1.2-10.4 1.8-8.4 1.5-12.7 2.2c-5 .9-9.9 1.8-14.9 2.6s-11.2 2-16.8 3-12.4 2.2-18.6 3.3-13.4 2.4-20 3.5c-7.2 1.3-14.3 2.5-21.5 3.8s-15.1 2.7-22.7 4c-7.9 1.4-15.7 2.8-23.6 4.2s-16.3 2.9-24.5 4.3c-8.4 1.5-16.7 3-25.1 4.4-8.5 1.5-16.9 3-25.4 4.5-8.6 1.5-17.2 3-25.8 4.6-8.6 1.5-17.2 3-25.8 4.6s-17 3-25.6 4.5c-8.5 1.5-16.9 3-25.4 4.5-8.3 1.5-16.6 2.9-24.8 4.4l-24 4.2c-7.7 1.4-15.5 2.7-23.2 4.1-7.4 1.3-14.7 2.6-22.1 3.9-6.9 1.2-13.8 2.4-20.7 3.7-6.5 1.1-12.9 2.3-19.4 3.4-5.9 1-11.8 2.1-17.7 3.1s-10.5 1.9-15.8 2.8l-13.8 2.4c-3.9.7-7.7 1.4-11.6 2s-6.1 1.1-9.1 1.6l-6.5 1.2-3.7.7c-.7.1-1.1.2-1.7.9l-2.4 3.3c-1.8 2.4-3.5 4.9-5.3 7.3-2.6 3.6-5.3 7.2-7.9 10.8-3.3 4.6-6.7 9.2-10 13.8-4 5.4-7.9 10.9-11.9 16.3-4.4 6.1-8.9 12.2-13.3 18.3-4.8 6.6-9.5 13.1-14.3 19.7-5 6.9-10.1 13.8-15.1 20.7-5.1 7.1-10.3 14.1-15.4 21.2s-10.2 14-15.3 21c-5 6.8-9.9 13.7-14.9 20.5-4.7 6.5-9.4 12.9-14.1 19.4l-12.9 17.7-11.4 15.6c-3.1 4.3-6.3 8.6-9.4 13-2.4 3.3-4.7 6.5-7.1 9.8-1.5 2-3 4.1-4.5 6.1-.5.6-.9 1.3-1.4 1.9-.9 1.3 1.2 2.6 2.2 1.3 1.7-2.3 3.3-4.6 5-6.9 4.5-6.2 9.1-12.5 13.6-18.7l20.1-27.6c8.2-11.2 16.3-22.5 24.5-33.7 9-12.3 17.9-24.6 26.9-36.9l27-37.2c8.4-11.6 16.8-23.1 25.2-34.7 7.1-9.8 14.2-19.6 21.4-29.4 5.1-7 10.2-14.1 15.4-21.1 2.4-3.3 4.8-6.7 7.3-10l.3-.4-.7.6c1.2-.2 2.4-.4 3.7-.6 3.5-.6 7-1.2 10.5-1.9 5.6-1 11.1-2 16.7-2.9 7.3-1.3 14.7-2.6 22-3.9 8.9-1.6 17.8-3.1 26.7-4.7 10.3-1.8 20.5-3.6 30.8-5.4 11.4-2 22.7-4 34.1-6 12.2-2.2 24.4-4.3 36.6-6.5 12.8-2.3 25.6-4.5 38.4-6.8 13.2-2.3 26.3-4.7 39.5-7 13.4-2.4 26.7-4.7 40.1-7.1 13.3-2.3 26.5-4.7 39.8-7 12.9-2.3 25.9-4.6 38.8-6.9 12.3-2.2 24.7-4.4 37-6.5 11.5-2 23.1-4.1 34.6-6.1s21.1-3.7 31.6-5.6c9.3-1.6 18.5-3.3 27.8-4.9 7.7-1.4 15.5-2.7 23.2-4.1s12-2.1 17.9-3.2 8-1.4 12-2.1 3.6-.6 5.4-.9-.5 0 .3 0h2.7c4.2 0 8.4 0 12.7-.1 7 0 14-.1 21-.2 9.3 0 18.5-.2 27.8-.3s22.2-.2 33.3-.3 24.8-.3 37.2-.4 26.5-.3 39.7-.4c13.5-.1 27-.3 40.5-.4s26.7-.3 40-.4c12.7-.1 25.5-.3 38.2-.4s23.1-.2 34.7-.4 19.8-.2 29.8-.3 15.5-.2 23.3-.2l15.4-.2h4.3c.5 0 1.3-.2 1.8 0-.9-.3.7 1 .2.4.5.6 1.4 1 2 1.5 2.8 2.1 5.5 4.1 8.3 6.2 5.2 3.9 10.3 7.9 15.3 12 9.4 7.6 18.7 15.4 27.8 23.4 15.2 13.5 29.8 27.6 43.3 42.9 9.3 10.6 18.4 21.7 25.2 34.1 2.2 3.9 4 8 5.2 12.3 2.1 7.8 3.9 15.8 5.7 23.7 4.8 21.8 8.6 43.7 9.3 66.1 0 .7.6 1.2 1.2 1.2 11.4 1.4 22.7 3.5 33.8 6.4 15.5 4 30.6 9.3 45.2 15.9 15.8 7.2 30.6 16.1 44.8 26.2 8.1 5.7 16 11.7 23.6 18.2 9.7 8.3 18.8 17.4 27 27.3 9.7 11.8 18.1 24.8 24.7 38.5 8 16.6 13.5 34.5 16.3 52.7 2.6 17.1 2.9 34.5 1 51.7-1.5 13.7-4.3 27.3-8.4 40.6-2.6 8.4-5.6 16.7-9.2 24.7-1 2.2-2.3 4.1-3.5 6.2s-3.1 5.1-4.7 7.7c-3.6 5.7-7.3 11.2-11.1 16.7-8.9 12.7-18.6 24.9-29.1 36.5-12.2 13.5-25.3 26.2-39.3 37.8-14.1 11.7-29 22.3-44.8 31.6-14.4 8.6-29.5 16.1-44.9 22.6-15.3 6.5-31 12.1-46.7 17.4-15.4 5.1-30.9 10-46.5 14.7-13.6 4.1-27.4 7.9-41.2 11.3-16.1 4-32.3 7.4-48.5 10.4-18.4 3.4-37 6.2-55.6 8.4-9.6 1.1-19.2 2.1-28.8 2.9-.6 0-1 .4-1.2.9s-.5 1-.7 1.5c-.5.8-1 1.7-1.5 2.5-1.4 2.3-3 4.5-4.6 6.7-4.5 6.3-9.2 12.5-14 18.6-11.8 15.2-23.9 30.2-35.9 45.2-6.8 8.4-13.6 16.8-20.6 25l1.5-.2c-13.9-7-27.9-13.9-41.9-20.6-11.7-5.7-23.5-11.3-35.4-16.8-9.8-4.6-19.7-9-29.6-13.4-8-3.5-16.1-7-24.2-10.4-6.5-2.7-13-5.3-19.5-7.9-7.7-3-15.4-5.9-23.1-8.8-12.7-4.9-25.5-9.9-38.1-15-7.1-2.8-14.2-5.4-21.4-7.9s-14.4-4.9-21.4-7.9c-3.5-1.5-6.9-3.1-10.2-4.9-3.2-1.7-6.3-3.6-9.7-5-6.8-2.9-14.1-4.6-21-7.3-3-1.2-6-2.2-9.3-1.4-2.8.6-5 2.5-6.8 4.7-2 2.5-3.6 5.3-5.5 8s-3.5 4.7-5.4 6.9c-2.5 2.8-5.1 5.4-7.9 7.8l1.5-.2c-9.8-5.6-19.5-11.7-28.2-19-5-4.3-9.9-9.1-13.2-14.8s-3.3-7-3.2-10.8.2-2.4.7-3.9.4-.9.2-.6c.1-.3.3-.6.4-.9.3-.5.5-1 .9-1.5s.3-.4.5-.6.2-.2 0 0c0-.1.2-.2.2-.3.3-.4.6-.7.9-1l.8-.8c.3-.3.9-.7.4-.4.3-.2.6-.4.8-.6s.3-.6.4-1 0 .4 0 0 .1-.5.2-.7c.2-.5 0-.1.2-.6s.3-.7.5-1.1c2.3-4.6 5.2-8.9 8-13.2 3.8-5.9 7.8-11.7 11.7-17.5 5.8-8.4 11.7-16.8 17.6-25.2.1-.1.2-.3.3-.4.5-.7 0-1.6-.7-1.8-1.6-.6-3.3-1.2-4.9-1.8-4.4-1.7-8.8-3.3-13.2-5-6.4-2.4-12.8-4.8-19.3-7.2s-15.3-5.7-23-8.6c-8.1-3-16.2-6.1-24.4-9.1-7.8-2.9-15.6-5.8-23.4-8.8s-13.5-5-20.2-7.6c-4.9-1.8-9.8-3.7-14.7-5.5-2.3-.8-4.5-1.9-6.8-2.6-.7-.2-1.4 0-2.1.2l-10.2 2.7c-6.7 1.7-13.5 3.4-20.2 4.9-12.8 2.9-25.7 5.6-38.6 7.8-12.1 2.1-24.2 3.9-36.4 5.4-11.4 1.4-22.9 2.4-34.3 3.1-10.8.6-21.5 1-32.3.9-10.1 0-20.2-.4-30.3-1.1-9.5-.6-18.9-1.6-28.3-2.9-8.9-1.2-17.8-2.8-26.5-4.6-8.3-1.8-16.6-3.8-24.8-6.2-7.8-2.2-15.4-4.8-23-7.6-7.2-2.7-14.3-5.6-21.3-8.8s-13.3-6.4-19.7-9.9-12.3-7-18.2-10.9c-5.7-3.7-11.3-7.6-16.7-11.7-5.2-3.9-10.2-8-15.2-12.3-4.8-4.1-9.4-8.4-13.9-12.9s-8.6-8.7-12.6-13.3c-3.9-4.4-7.7-8.9-11.3-13.5-3.5-4.4-6.8-8.9-10-13.4-3.1-4.4-6.1-8.9-9-13.5-2.8-4.3-5.4-8.8-7.9-13.2-2.4-4.2-4.7-8.5-6.9-12.8-2.1-4.1-4.1-8.2-6-12.3-1.8-3.8-3.5-7.8-5-11.5s-2.9-7.2-4.3-10.8-2.4-6.5-3.5-9.8-1.9-5.8-2.8-8.7c-.8-2.5-1.5-5-2.2-7.5s-1.1-4-1.6-6-.7-3-1-4.5-.4-1.8-.6-2.8-.1-.6-.2-.9c-.3-1.6-2.7-.9-2.4.7Z"/>
        <path class="st21" d="M1272.3 1789.6c-9.5-2.6-38.8-13.9-38.8-13.9s-24 35.4-24 37.1-1.7 6.1 4.8 3.4c5.8-2.4 46.7-24.3 58-26.6Z"/>
        <path d="M796.6 1500.6c5.4 13.7 13.3 26.3 23.5 36.9 11.3 11.7 25.3 20.5 40.5 26.2 10.6 3.9 21.7 6.2 32.9 7.5 8.5 1 17.1 1.4 25.7.9 16.7-1 33.4-4.6 48.9-10.9 14.7-5.9 28.3-14.1 40.5-24.2 8-6.6 15.2-14 22-21.8 10.8-12.6 19.8-26.8 26.6-41.9s10-25.8 12.9-39.3c2.1-9.8 3.5-19.8 4.2-29.8s.2-3.3.3-5c.1-3.2-4.9-3.2-5 0s-.4 7.3-.8 10.9c-.2 2.3-.5 4.6-.8 6.9v.5c0 .3 0 .6-.1.9 0 .6-.2 1.3-.3 1.9-.2 1.3-.4 2.7-.6 4-2.2 12.5-5.5 24.8-10 36.6-5.5 14.5-12.9 28.3-22 40.8-6.7 9.1-14.3 17.7-22.6 25.5-10.1 9.5-21.5 17.5-33.8 23.9-15.2 7.8-31.8 13-48.8 15.1-10.4 1.3-21 1.7-31.4.6-1.4-.1-2.8-.3-4.2-.5s-1.9-.2-2.9-.4-.8-.1-.3 0c-.3 0-.6 0-.9-.1-.6 0-1.2-.2-1.7-.3-5.4-.8-10.8-1.9-16.1-3.3-13.8-3.8-27-10-38.3-18.9-12.5-9.9-22.5-22.6-29.4-36.9-1.2-2.5-2.1-4.6-3.1-7.1-.5-1.3-1.7-2.1-3.1-1.7s-2.2 1.8-1.7 3.1Z" style="fill:#374b98"/>
        <path class="st29" d="M1297.9 1882.7c-3.9-2.2-9.8-5.4-17.2-9-19.7-9.6-25-9.7-27.9-9.5-4 .2-11 1.6-19.1 8.9-1.6-2.5-3.8-6.8-3.8-12.3 0-1.8 0-3.8 1-6.1 1.3-2.8 2.9-3.4 5.2-6.1 2.2-2.7 2-4.3 4.4-8.2 3.9-6.4 7.1-10.9 7.1-10.9 6.9-9.5 13.1-19.4 19.7-28.9 10.9-15.6 32.1-45.9 59.7-85.3 1.9-.9 4.1-1.7 6.6-2.3 8.9-2.1 16.7 0 20.8 1.4 44.5 10.9 92.6 25.1 143.3 43.6 83.2 30.3 154.6 65.5 213.8 99.5-9.9 24.6-20.9 42.5-29.1 54.4-5 7.2-11.5 15.5-24.3 32-18 23-16.6 20-24.7 31.2-3.7 5.1-7.9 9.8-11.9 14.7-1.8 2.3-1.2 1.6-4 5.2-9.5 12.3-10.7 13-12.1 13.3-1.8.4-2.9-.2-12.8-5.4-2.3-1.2-5.9-3.1-10.2-5.4-23.3-10.9-36.1-17.3-43.6-21.1-2.3-1.2-8.9-4.6-18.1-8.8-5.2-2.4-9.3-4.1-13.2-5.8-11.9-5.2-22.2-9.3-33.6-14 0 0-39.8-16.2-99.7-38.5-2.6-1-6.9-2.6-12.8-4.9-11.2-4.5-16.2-7.1-25.7-11.2-5-2.2-12.3-5.2-21.4-8.5-1.3-.5-3.3-1.3-5.7-2.1-2.6-.9-3.1-1-3.5-1.1-1.5-.3-4-.3-7.5 1.5Z"/>
        <path class="st21" d="M1136.3 1727.7s-3.6 3.1-2.7 4.9c.7 1.4 3.7 1.3 5.1 1.2 19.5-1.1 42.2-13.6 42.2-13.6 10.3-5.7-17.6 10.8 37.1-16.3 26.8-13.3 93.6-47.1 182.8-92.9.2-.1.3-.1.4 0 .9.6-1.5 9.5-68.5 100.1 0 0 6.5 5.1 12.3 0 0 0 24.9-33.3 49.7-67.4 6.9-9.4 14.6-19.6 24.6-34.1 11-15.8 19.6-29.2 25.4-38.4 13.9-20.9 27.7-42.3 41.8-64 21.1-32.6 42.7-66.4 44.6-71.1l84.8-62.6s11.9-10.6-3.4-19.1c-.6 2.9-1.8 7.1-4.8 11.2-3.9 5.5-8.8 8.1-10.9 9.2-9.8 5.3-18.2 12.9-27.6 19.1-7.9 5.2-18.8 13.3-31 25.9 4.7-12.8 9.3-25.6 14-38.5 0 0-.2-7-2.7-7.5-1.8-.4-4.1 2.9-5.5 5.2-9.4 15-14.9 37.3-23.8 54.5-2.3 4.4-1.1 1.4-11.9 18.4-11.6 18.3-19.5 32-21.4 35.4-8.2 14.1-26.2 41.9-67.7 100.8-58.2 32.8-120.7 65.5-187.6 97-32.3 15.2-64.1 29.5-95.3 42.9ZM1699.4 1895.8l-6.8 10c-.9.6-2.9 1.6-5.7 1.6-1.7 0-3-.4-3.8-.8 13.4-23.6 24.6-42.6 32.4-55.7 12.8-21.4 16.2-26.5 27.3-45.7 11.6-20 20.8-36.5 26.6-47 11.6-20.9 11.9-22.1 23-42.1 4.1-7.4 5.9-10.6 24-42.7 25.3-44.7 27.4-48.4 31.6-56.2 8.9-16.3 15.8-28.8 24.5-46.2 7-13.9 15.8-31.6 25.8-55.4 8.3-19.7 12.9-30.7 17.5-47.2 6.2-22.3 8.4-39.8 9-45.8 1.7-15.3 2.7-36.3-.2-61.1 2.3 6.9 4.9 16.6 6.4 28.4 1.9 15.1.9 26.6 0 36.5-1.1 12.2-3.6 28.9-9.4 48.3-6.4 22.6-13.1 41.2-18.6 55.4-5.7 14.4-10.9 25.9-13.5 31.7-3.9 8.4-7.5 15.7-10.6 21.6l40.2-5.4c2.4 0 4.5 1.1 4.9 2.5.5 1.7-1.5 4.7-5.5 5.4l-43.2 7.5c-6 11.3-15.4 28.5-27.1 49.4-22.1 39.6-28.3 48.7-58.5 100.9-29.8 51.5-33.4 59.4-54.4 94.2-14.9 24.8-27.5 44.9-35.7 57.8Z"/>
        <path d="M963.6 1428.5c47.3-15 105-31 171.6-44.4 60.7-12.3 104.3-17.5 162.4-24.5 0 0 144-17.3 257.5-13.9 18.7.6 36.4 2.4 36.4 2.4 5 .5 9.1 1 11.9 1.4 2 .5 5.7 1.7 9.2 4.8 2.7 2.3 4.2 4.8 5.1 6.5" style="stroke-miterlimit:10;fill:none;stroke:#1d2350;stroke-width:2px"/>
        <path class="st21" d="M1233.5 1873.3c.2-1.2.6-2.9 1.7-4.5 3.7-5.5 12-5.8 16.3-5.9 18.1-.5 42 15.6 46.3 18.6v1.2c-2.3 3.9-4.9 8.1-7.9 12.4-8.4 12.2-11.3 13.3-13.4 13.3-1.4 0-3.3-1.2-7.1-3.4-3.7-2.2-6.2-4.1-6.9-4.6-9.7-7.4-14.6-11-19.4-15.6-2.4-2.3-5.2-5.1-8.1-9.2-.7-.9-1.2-1.7-1.5-2.2Z"/>
    </g>
    <g id="Layer_8">
        <path class="st26" d="M619.7 1346.6s-11.5 133.3 9.2 168.5c0 0 141.7 28.3 321.7-69.7 62.1-37.3 109.2-71.1 140.8-95.1 43.1-32.8 88.3-62.6 131.9-94.8 0 0 25.4-18.8 64.3-36 11.9-5.3 21.9-8.2 30.6-10 9.6-2 9-.8 15.3-2.3 24.4-5.7 31.9-22.3 46.7-19.1 3.6.8 7.4 2.7 7.2 3.4-1.4 5.9-294.5-57.9-294.5-57.9l-473.4 213Z"/>
        <path class="st26" d="M617.8 1346.6c-.2 1.9-.3 3.9-.5 5.8-.4 5.2-.7 10.4-1 15.6-.4 7.6-.8 15.2-1.1 22.9s-.5 18.1-.6 27.1 0 19.2.4 28.7.9 18.4 1.9 27.6c.9 8.1 2 16.2 3.9 24.1.8 3.3 1.7 6.5 2.9 9.7s1.1 3 1.8 4.4 1.1 2.9 2.1 3.8c.8.8 2.5.8 3.6 1 2.8.5 5.7.8 8.6 1.2 4.4.5 8.8.9 13.2 1.2 6 .4 12 .7 18 .9 7.5.2 14.9.2 22.4 0 8.9-.2 17.7-.8 26.6-1.5 10.1-.9 20.3-2 30.4-3.5 11.2-1.6 22.4-3.6 33.5-5.9 12.3-2.6 24.4-5.5 36.5-8.9 13.2-3.7 26.3-7.8 39.2-12.4s28-10.6 41.7-16.6c14.7-6.5 29.2-13.5 43.4-21s14.4-8.2 21.5-12.6c6.8-4.2 13.6-8.4 20.4-12.7 12.4-7.9 24.7-15.9 36.9-24.1 10.7-7.2 21.4-14.6 31.9-22.1 9-6.4 18-13 26.9-19.6s21.5-16.3 32.4-24.2c13.2-9.6 26.5-19.1 39.9-28.5 13.4-9.4 26.8-18.8 40.1-28.3 10.2-7.3 20.3-14.8 30.5-22.1s10.6-7.2 16.1-10.5c11.1-6.8 22.5-13 34.2-18.7 13.2-6.4 26.6-12.2 41-15.4 2.9-.6 5.8-1.3 8.7-1.6s3.3-.3 4.9-.5c5.9-.8 11.7-2.8 17.1-5.3 4.8-2.3 9.3-5.2 13.8-8.1 3.4-2.3 7-4.7 10.8-6s8.9-1 13.1 1.1c.4.2 1.1.7 1.4.8-.1 0 .1 0 0 .1s-.3-1.4-.3-1.4.2-.5.2-.4c.1-.2.5-.5.5-.5.5-.3.4 0 0 0h-1.6c-1.1 0-2.2-.1-3.3-.3s-1.4-.1-2.1-.2-.8 0-1.2-.1-.4 0-.6 0-.8-.1-.4 0-.3 0-.4 0c-.2 0-.5 0-.7-.1-.4 0-.9-.1-1.3-.2-1-.1-1.9-.3-2.9-.4-4.7-.7-9.4-1.5-14-2.3s-11.6-2.1-17.4-3.2-13.4-2.5-20.1-3.8c-7.4-1.4-14.8-2.9-22.3-4.4s-15.9-3.2-23.9-4.8c-8.2-1.7-16.4-3.3-24.6-5-8.3-1.7-16.5-3.4-24.8-5.1s-16.3-3.4-24.4-5.1-15.6-3.3-23.4-4.9-14.5-3.1-21.8-4.6c-6.5-1.4-12.9-2.8-19.4-4.1s-11-2.4-16.5-3.5c-4.3-.9-8.6-1.9-12.9-2.8s-5.8-1.3-8.7-1.9-2.6-.6-3.9-.9-1.6.2-2.4.5l-3.6 1.6c-2.1.9-4.2 1.9-6.3 2.8l-8.7 3.9c-3.7 1.7-7.3 3.3-11 5s-8.8 3.9-13.2 5.9-10 4.5-15 6.7-11.1 5-16.7 7.5-12.1 5.5-18.2 8.2-13 5.8-19.5 8.8-13.8 6.2-20.7 9.3c-7.2 3.2-14.3 6.4-21.5 9.7-7.4 3.3-14.8 6.7-22.2 10-7.6 3.4-15.1 6.8-22.7 10.2-7.7 3.5-15.3 6.9-23 10.4-7.7 3.5-15.4 6.9-23.1 10.4-7.7 3.5-15.4 6.9-23.2 10.4l-22.8 10.2c-7.4 3.3-14.9 6.7-22.3 10-7.2 3.2-14.4 6.5-21.6 9.7-6.9 3.1-13.8 6.2-20.8 9.3s-13.2 5.9-19.8 8.9l-18.4 8.3-17 7.6-15.3 6.9c-5.1 2.3-9 4-13.5 6.1-3.8 1.7-7.7 3.4-11.5 5.2l-9.2 4.1c-2.2 1-4.5 2-6.7 3l-4.1 1.8c-.4.2-.8.4-1.3.6-.9.4-1.1 1.8-.7 2.6s1.6 1.1 2.6.7 2.2-1 3.3-1.5l9.4-4.2 14.8-6.7 19.6-8.8c7.9-3.6 15.8-7.1 23.7-10.7l27.3-12.3 30-13.5c10.7-4.8 21.4-9.6 32.1-14.5 11.2-5 22.4-10.1 33.6-15.1s23-10.3 34.4-15.5c11.5-5.2 23.1-10.4 34.6-15.6 11.4-5.1 22.7-10.2 34.1-15.3 11-4.9 22-9.9 32.9-14.8 10.4-4.7 20.7-9.3 31.1-14s19.1-8.6 28.6-12.9c8.5-3.8 17-7.6 25.5-11.5 7.2-3.3 14.5-6.5 21.7-9.8s11.5-5.2 17.3-7.8c4-1.8 8.1-3.6 12.1-5.4 2.1-.9 4.2-1.9 6.3-2.8s.5-.2.8-.4l-1.4.2c1 .2 2 .4 3 .7 2.9.6 5.7 1.2 8.6 1.9 4.5 1 8.9 1.9 13.4 2.9 5.8 1.2 11.6 2.5 17.4 3.7s13.8 3 20.8 4.4 15.5 3.3 23.2 4.9c8.4 1.8 16.7 3.5 25.1 5.3s17.3 3.6 26 5.4 17.6 3.7 26.4 5.5c8.6 1.8 17.2 3.5 25.8 5.3 8.2 1.7 16.5 3.3 24.7 4.9s15.1 3 22.6 4.4 13.3 2.5 20 3.7 10.9 1.9 16.4 2.8 8.4 1.3 12.6 1.9 4.8.6 7.3.6 1.7 0 2.5-.4.9-.7 1.1-1.3c.8-2.9-4.2-4.4-6-5-4.6-1.6-9.4-1.5-13.9.2-4.4 1.7-8.3 4.4-12.2 7s-9.9 6.2-15.3 8.4c-3.2 1.3-6.5 2.3-9.9 3-1.9.4-3.3.5-5.3.7-6 .5-11.9 1.9-17.7 3.4s-14.8 4.7-21.9 7.9c-14 6.1-27.6 13.1-40.8 20.8-7.4 4.3-14.7 8.8-21.7 13.7-9 6.3-17.8 13-26.7 19.4-14.1 10.1-28.3 20-42.4 30-14.2 10-28.4 20.1-42.5 30.3-11.4 8.3-22.6 16.9-33.9 25.3-9.6 7.1-19.3 14.2-29 21.1-11.4 8.1-22.9 16-34.5 23.7-13.3 8.9-26.7 17.6-40.3 26-7.3 4.6-14.6 9.1-22 13.5-7.6 4.6-15.5 8.6-23.4 12.6-14.9 7.5-30.1 14.4-45.6 20.7-14.1 5.8-28.5 11-43 15.7-13.3 4.3-26.8 8.1-40.4 11.4-12.3 3-24.6 5.6-37 7.7-11.1 1.9-22.2 3.5-33.4 4.7-9.8 1-19.6 1.8-29.4 2.2s-16.7.5-25.1.4c-6.7 0-13.4-.3-20.1-.7-5-.3-9.9-.7-14.9-1.3-.9-.1-1.9-.2-2.8-.3s-.9-.1-1.3-.2-.4 0-.6 0h-.2c-1.3-.2-2.5-.4-3.8-.6s-2-.3-3-.5l1.1.9c-2.4-4-3.7-8-5-12.6s-2.7-11.4-3.6-17.2c-2.1-13.8-2.9-27.9-3.3-41.9-.4-14.6-.3-29.2.1-43.8s.9-23.6 1.6-35.3.5-7.5.8-11.2.4-3.5.4-5.2v-.2c.2-2.4-3.5-2.4-3.8 0Z"/>
        <path class="st8" d="m720.7 1357.2 2.4 15.3c1.9 12.3 3.9 24.6 5.8 36.9s4.9 30 7.4 44.9 4.5 26.2 7.2 39.3 1.8 8.9 2.9 13.3 1.1 5.1 2.3 7.3.4.7.7 1c1 .9 2.5 1 3.5 0s1-2.7 0-3.5.2.5.2.3-.2-.3-.2-.4c-.3-.4.1-.6 0 0 0-.1-.2-.5-.2-.6-.4-1.2-.8-2.4-1.1-3.6-1.1-4-1.9-8-2.7-12.1-2.6-12.6-4.8-25.2-7-37.9-2.6-14.9-5-29.8-7.5-44.7s-4.1-25.5-6.1-38.3c-.6-4.2-1.3-8.3-1.9-12.5s-.5-4-.9-6 0-.2 0-.3c-.2-1.3-1.9-2.1-3.1-1.7s-1.9 1.7-1.7 3.1ZM851.9 1327.5c2.3 4.5 4.5 9 6.8 13.5 5.5 10.8 11 21.5 16.5 32.2 6.7 12.9 13.4 25.9 20.2 38.7s11.7 22.1 17.9 32.9c2 3.5 4 7.1 6.2 10.5 1.1 1.7 2.4 4.2 4.2 5.2s1.9.5 2.8 0 1.5-2.3.9-3.4-2.2-1.4-3.4-.9c.9-.4 1.6-.4 2.3 0-.4-.2.2.1.2.2 0-.2-.5-.5-.6-.7s-.6-.7-.2-.2-.2-.3-.3-.4c-.4-.5-.7-1-1.1-1.5-2.1-3.1-3.9-6.4-5.8-9.6-6-10.4-11.7-21-17.3-31.7-6.7-12.6-13.3-25.3-19.9-38.1-5.7-11-11.3-22-16.9-33.1-1.8-3.6-3.7-7.2-5.5-10.8-.9-1.7-1.7-3.5-2.6-5.2s0-.2-.1-.2c-1.4-2.9-5.8-.3-4.3 2.5ZM990.9 1260.2c3.1 3.3 6.2 6.5 9.3 9.8 7.4 7.8 14.8 15.5 22.2 23.2 9 9.4 18.1 18.7 27.2 27.9 7.8 7.9 15.7 15.8 23.8 23.4 2.7 2.5 5.3 5 8.2 7.3 1.5 1.2 3.3 3 5.3 3.5s1.6.2 2.3-.3c1.1-.8 1.6-2.2.9-3.4s-2.3-1.7-3.4-.9c.2-.2.8-.3 1.1-.3-.2 0 .9.2.4 0s.7.4.2.1-.3-.2-.4-.2c-.4-.2-.7-.5-1-.7s-.4-.3-.6-.5c-.4-.3.5.4.1 0s-.3-.2-.4-.3c-2.6-2.1-5.1-4.4-7.6-6.7-7.8-7.3-15.4-14.8-22.9-22.4-9-9.1-18-18.3-26.9-27.6-7.6-7.9-15.2-15.8-22.8-23.8-3.7-3.9-7.2-7.9-11.1-11.7l-.2-.2c-2.2-2.3-5.7 1.2-3.5 3.5ZM1112.4 1186.5c3.9 1.8 7.9 3.6 11.8 5.4 9.5 4.4 18.9 8.9 28.3 13.4 11.5 5.5 22.9 11.2 34.2 17 10.1 5.2 20.1 10.5 29.8 16.4 3.4 2.1 6.7 4.2 9.9 6.6s-.3-.3 0 0 .3.2.5.4c.3.2.6.5.9.7.5.4.9.8 1.4 1.3s.6.8 1 1.1c-.6-.5-.2-.3 0 0s.2.4.3.5-.2-.7 0-.1 0-.8 0-.2c0 3.2 5 3.2 5 0s-2-4.3-3.7-5.8c-2.7-2.4-5.8-4.4-8.9-6.4-9.1-5.9-18.8-11-28.4-16-11.4-6-22.9-11.7-34.5-17.3s-20-9.6-30.1-14.3c-4.8-2.3-9.7-4.5-14.6-6.7h-.2c-1.2-.6-2.7-.4-3.4.9s-.3 2.9.9 3.4Z"/>
    </g>
    <g id="Layer_7">
        <path class="st17" d="M1276.9 689.4c-5.3 1.9-6.3 1.9-26.8 8.4 0 0-38.1 12-75.8 25.3-77.4 27.2-136.3 55.1-136.3 55.1-93.5 44.4-159.4 93.7-181.5 110.8-32.8 25.3-82.1 63.9-133.3 125.9-38.6 46.8-60.5 85.5-68.2 99.6-17.5 32-27.6 57.4-35 76.3-15 38.1-22.5 57.7-24.4 85.2-1.8 26.5-3.9 55.7 15.9 76.1 19 19.6 47.2 19.8 56.5 19.5 39.3-.9 70.2-5.8 89.4-9.4 27.2-5.2 93.8-20.2 288.5-125.9 20.8-11.3 37.4-20.6 47.2-26 17.9-9.1 35.7-18.2 53.6-27.3 13.1-6.7 44.8-20.8 86.6-17 50.9 4.6 83.7 32.7 93.9 42.2 50.7-6.3 103.8-11.6 159.1-15.6 74.8-5.4 146-7.7 213.1-7.9 0 0 186.4-8.7 223.7 156.3 0 0 223.1 74.6 319.1 11.7 13.6-9.9 31.9-25.9 48-49.8 26.3-39.1 32.2-78 33.7-97.8-4.1-14.4-12.6-37.1-31.5-58.3-25.6-28.8-56.8-39.8-86.5-49.9-22.6-7.7-33.1-8.6-77.1-16.9-59.1-11.1-88.7-16.7-119-25.3-42.2-11.9-82.2-23.3-124.1-49-9.3-5.7-24.1-15.4-62-39.1-16-9.9-29.2-18.1-38-23.5 11.5-11.1 25.6-28.1 28.6-50.8 3.6-27.3-260.4-265.8-260.4-265.8-65 1-130 2-195.1 3.1-31.2 36.2-60.4 52-81.9 59.8Z"/>
        <path class="st17" d="M1276.4 687.6c-8.9 3.2-18.1 5.6-27.1 8.5-11.8 3.8-23.7 7.6-35.4 11.5-21.4 7.1-42.7 14.4-63.9 22.2-18.9 7-37.6 14.3-56.2 22-13.3 5.5-26.5 11.1-39.6 16.9s-11.4 5.1-17 7.8c-17.3 8.1-34.2 16.9-51 26s-33.9 19.1-50.4 29.4c-13.5 8.4-26.8 17.1-39.9 26.1s-19.4 13.6-28.8 20.6c-7.9 5.9-15.6 11.8-23.3 17.9-12 9.4-23.8 18.9-35.3 28.8-14.1 12.1-27.7 24.7-40.8 37.8-15.4 15.4-30.1 31.5-44 48.2-13.5 16.2-26.3 33.1-38.3 50.5-8.4 12.2-16.4 24.6-23.9 37.4-7 11.9-13.6 24.1-19.7 36.5-7.7 15.6-14.6 31.6-21 47.8-6.7 16.9-13.6 33.8-19.1 51.2-2.3 7.2-4.2 14.6-5.6 22.1s-2.2 15.4-2.7 23.2c-1.2 17.6-2.2 36.3 4.1 53.1 3.2 8.6 8.2 16.3 14.9 22.6 6.4 5.9 14 10.2 22.2 13.1 6.8 2.4 13.9 3.8 21.1 4.4 5.7.5 11.4.4 17.2.2 19.9-.6 39.7-2.3 59.4-5.1s19.5-3 29.1-4.9c3.8-.8 7.6-1.6 11.3-2.5s10-2.5 14.9-4c6.4-1.9 12.8-3.9 19.1-6 8.1-2.7 16.1-5.7 24-8.7 9.9-3.8 19.8-7.8 29.6-12s23.8-10.3 35.6-15.8 28.3-13.2 42.3-20.1c16.7-8.2 33.2-16.5 49.7-25.1 19.4-10 38.6-20.2 57.8-30.6 16-8.7 31.9-17.4 47.7-26.3 4.9-2.7 10-5.1 15-7.7s10.5-5.3 15.7-8c8.8-4.5 17.5-9.1 26.4-13.4 12.3-6 25.4-10.3 38.8-13 19.7-3.9 40.1-3.9 59.8 0 16.6 3.3 32.6 9.4 47.3 17.8 9.6 5.5 18.6 11.9 26.9 19.3s1.2 1.1 1.8 1.7.7.7 1.1.9c1.1.6 2.9 0 4.1-.1 5.5-.7 11-1.3 16.5-2 10.9-1.3 21.8-2.5 32.7-3.7 22.5-2.4 45-4.6 67.5-6.5 23.3-2 46.6-3.7 70-5.1 22.7-1.4 45.5-2.6 68.3-3.5s44.3-1.5 66.5-1.9c10.7-.2 21.4-.3 32.1-.4s10.6 0 15.8 0h7c5 0 10 .3 14.9.7s6.6.5 9.8.9 3.7.4 5.5.6.9.1 1.3.2.5 0 .7 0h.5c1 .1 1.9.3 2.9.4 8.6 1.2 17.1 2.9 25.6 4.9 9.6 2.3 19 5 28.3 8.4 10.1 3.6 19.7 7.8 29.2 12.8 10 5.2 19.6 11.3 28.5 18.1 9.5 7.3 18.3 15.5 26.1 24.5 8.5 9.7 15.8 20.3 21.9 31.6 6.9 12.6 12.2 26 16.1 39.9 1.1 3.8 2 7.6 2.9 11.4.2 1 .8 1.6 1.7 1.9s2 .6 3 1c4.9 1.5 9.7 3 14.6 4.4 8.2 2.4 16.3 4.6 24.6 6.8 10.6 2.8 21.3 5.4 32.1 7.7 12.6 2.8 25.2 5.3 37.9 7.5 13.8 2.4 27.6 4.4 41.5 6 14.2 1.6 28.4 2.7 42.6 3.2 14 .4 28 .2 41.9-.9 13.2-1.1 26.4-3 39.3-6.3s23.6-7.2 34.4-13c2.5-1.4 5-2.8 7.4-4.3s5.7-4.1 8.4-6.3c6.6-5.3 12.8-10.9 18.7-17 15-15.4 27.4-33.2 36.8-52.5s13.6-33.9 16.9-51.8c1.2-6.4 2.1-12.9 2.7-19.4.1-1.5.3-2.9-.1-4.3s-.9-3.1-1.4-4.6c-1.1-3.5-2.4-7-3.8-10.5-7.4-18.3-18.2-35.2-32.1-49.1-13.6-13.6-29.9-23.8-47.4-31.5-8.2-3.6-16.6-6.8-25.1-9.7s-13.1-4.6-19.7-6.5c-11.2-3.3-22.6-5.4-34-7.5-19.8-3.6-39.5-7.3-59.3-11-16.6-3.1-33.1-6.3-49.6-9.8-12.7-2.7-25.3-5.7-37.9-9.1-18.8-5.2-37.7-10.6-56.2-16.9-20.3-6.9-40-15.2-58.8-25.5-9.9-5.4-19.3-11.5-28.8-17.5-13.1-8.3-26.2-16.6-39.4-24.8-15.1-9.4-30.2-18.8-45.4-28 .1 1 .3 2 .4 2.9 12.7-12.3 23.6-27.2 27.8-44.6s1.1-5 1.4-7.5 0-.5 0-.7c0-.7-.2-1.5-.3-2.2-.4-1.7-1.2-3.3-2-4.9-2.3-4.5-5.4-8.7-8.4-12.8-4.5-6-9.3-11.7-14.3-17.4s-12.3-13.8-18.6-20.5c-7.3-7.8-14.7-15.5-22.1-23.1-8.2-8.4-16.5-16.7-24.8-24.9-8.7-8.6-17.4-17.2-26.2-25.7-8.9-8.6-17.8-17.2-26.8-25.7s-17.6-16.7-26.4-25c-8.2-7.8-16.5-15.5-24.8-23.2-7.4-6.9-14.8-13.8-22.3-20.7s-12.5-11.6-18.8-17.3c-4.7-4.3-9.5-8.7-14.2-13-2.9-2.6-5.8-5.3-8.7-7.9-.7-.6-1.3-1.2-2-1.8s-.2-.2-.3-.3c-1.3-1-3.7-.5-5.3-.5-3 0-6 0-9 .1-24.2.4-48.4.8-72.6 1.1-24.2.4-48.4.8-72.6 1.1s-24.3.1-36.4.6-1.4.1-2 .7-1 1.1-1.5 1.7c-1 1.1-1.9 2.2-2.9 3.3-2 2.2-3.9 4.3-6 6.4-3.7 3.9-7.6 7.6-11.6 11.2-12.7 11.5-26.7 21.6-42 29.2-5.5 2.8-11.2 5.2-17 7.3-2.3.8-1.3 4.4 1 3.6 10-3.6 19.7-8.2 28.8-13.7 12.1-7.2 23.3-15.9 33.6-25.4 7.2-6.7 14-13.8 20.4-21.2l-1.3.5 76.3-1.2c25.3-.4 50.6-.8 75.8-1.2 14.3-.2 28.6-.4 42.9-.7l-1.3-.5c.7.6 1.4 1.3 2.1 1.9l6 5.4c3.1 2.9 6.3 5.7 9.4 8.6s8.2 7.5 12.3 11.3 9.9 9.2 14.9 13.7c5.7 5.2 11.3 10.5 17 15.7 6.2 5.7 12.3 11.5 18.5 17.3s13.2 12.4 19.7 18.5 13.6 12.8 20.3 19.3c6.9 6.6 13.8 13.2 20.6 19.8 6.8 6.6 13.6 13.2 20.4 19.9 6.6 6.4 13.1 12.9 19.6 19.4 6.2 6.2 12.4 12.5 18.5 18.8 5.7 5.8 11.3 11.7 16.8 17.6 5 5.3 10 10.7 14.8 16.2 4.2 4.7 8.3 9.4 12.3 14.2l5.1 6.3c1.7 2.1.2.2.3.4-.2-.3 0 0 0 0 .2.2.4.5.6.7.4.5.7 1 1.1 1.4.7.9 1.4 1.8 2 2.8 2.1 3 4.2 6 5.8 9.3s.3.6.5 1 .5 1.2.2.5c.2.6.4 1.1.6 1.7s.2 1 .4 1.5 0-.5 0-.1V891.9c-.1 2.8-.9 5.7-1.7 8.4s-2.2 7.1-3.7 10.4c-2.8 6.3-6.5 12.3-10.8 17.8-3.6 4.7-7.7 9.1-12 13.2s-.6 2.3.4 2.9c20.5 12.6 40.9 25.2 61.3 38 11.9 7.5 23.6 15.1 35.5 22.5 20.4 12.8 42.1 23.2 64.6 31.5 22.7 8.4 46.1 15.1 69.5 21.5s32.5 7.9 48.9 11.3c23.7 4.8 47.5 9.3 71.3 13.7 17.4 3.2 35 5.8 52.1 10.2s14.3 4.2 21.4 6.6c10.4 3.6 20.8 7.3 30.9 11.8 10.6 4.8 20.7 10.4 30.1 17.3 10.3 7.6 19.6 16.7 27.3 26.9 7.2 9.5 13.2 19.9 17.9 30.8 1.8 4.3 3.5 8.7 4.9 13.1s.6 2 .9 2.9.7 1.8.7 2.5c.1 1.6-.3 3.4-.5 5-2.1 20-7.1 39.7-14.9 58.2-10.2 24.1-25.2 46.1-44 64.4-3.8 3.7-7.7 7.2-11.7 10.5s-6.7 5.7-10.4 8c-6.1 3.9-12.5 7.2-19.2 10-14.6 6-30.2 9.6-45.9 11.8-17 2.4-34.2 3-51.3 2.6-17.7-.4-35.4-1.8-53-3.9-16.8-2.1-33.6-4.8-50.2-8-14.7-2.8-29.3-6.1-43.8-9.7-11.1-2.7-22.1-5.7-33.1-8.8-6.1-1.8-12.2-3.6-18.3-5.5-.8-.3-1.6-.5-2.3-.8l1.3 1.3c-2.6-11.6-6.2-23.1-10.7-34.1s-9.1-19.8-14.9-29c-5.4-8.5-11.5-16.6-18.2-24.1-6.3-7-13.2-13.6-20.6-19.5s-14.6-11-22.4-15.7c-7.4-4.5-15.1-8.5-23.1-12-7.6-3.4-15.4-6.4-23.3-9s-14.7-4.5-22.2-6.3c-6.8-1.6-13.6-3-20.5-4.1s-12.2-1.8-18.3-2.4-9.8-.9-14.7-1.1-7-.3-10.5-.3h-5.5c-9.5.3-19.1.1-28.6.2-17.2.2-34.3.5-51.5 1-17.6.5-35.3 1.1-52.9 2-18.1.8-36.2 1.8-54.3 2.9s-36.7 2.5-55.1 4-35.8 3.1-53.7 4.8c-17.4 1.7-34.8 3.6-52.2 5.6-8.2 1-16.5 1.9-24.7 3l1.3.5c-7-6.5-14.6-12.4-22.7-17.6-13-8.4-27.3-15-42.2-19.4-18.9-5.6-38.9-7.5-58.6-5.8-15.9 1.4-31.5 5.2-46.3 11.2-5.1 2.1-10 4.4-14.8 6.9-10.3 5.2-20.5 10.4-30.8 15.7-8.7 4.4-17.5 8.7-26.1 13.5-7.2 4-14.3 8-21.5 11.9-19.1 10.5-38.2 20.8-57.5 31-17.2 9.1-34.4 18-51.8 26.7-14.7 7.4-29.4 14.6-44.3 21.6-12.5 5.9-25.1 11.7-37.8 17.3-10.3 4.5-20.7 9-31.2 13.2-8.6 3.5-17.3 6.8-26.1 10-6.9 2.5-13.9 4.9-20.9 7.1-5.5 1.7-11.1 3.4-16.7 4.9-4.3 1.2-8.6 2.2-12.9 3.2s-7.1 1.5-10.6 2.2c-15 2.8-30.1 5-45.3 6.5-10.1 1-20.2 1.7-30.3 2.2s-13.6.7-20.4.4c-14.5-.7-29.2-4.6-40.9-13.6-7-5.3-12.5-12.4-16.2-20.4-3.5-7.8-5.2-16.4-5.9-24.9s-.4-17.6.2-26.4c.5-7.8 1-15.6 2.3-23.4 2.5-15.4 7.5-30.2 13-44.8s12.2-32.2 18.9-48c7.5-17.9 16-35.4 25.3-52.4s9.9-17.5 15.2-26.1c8.8-14.2 18.1-28 27.9-41.4 12.9-17.6 26.5-34.6 41-50.9 13.5-15.2 27.6-29.9 42.4-43.9 12.5-11.9 25.4-23.3 38.6-34.3 10.8-8.9 21.7-17.6 32.8-26.2s13.7-10.5 20.7-15.6c10.1-7.4 20.4-14.6 30.8-21.6 13.6-9.1 27.4-18 41.4-26.5s33.7-19.8 51-29c13.8-7.4 27.8-14.5 42-21.1s13.5-6.2 20.2-9.2c13.5-5.9 27.1-11.7 40.7-17.2s37.7-15 56.7-21.9c20.4-7.4 40.9-14.4 61.5-21.2 10.4-3.4 20.9-6.9 31.3-10.2 8.9-2.8 18-5.3 26.9-8.4s1.3-4.4-1-3.6Z"/>
        <path class="st32" d="M1568.8 1184.6c-19.2-10.1-37.7-21.4-55.6-33.6-13.9-9.5-27.3-19.7-40.3-30.5-13.8-11.5-27.7-23.2-40.5-35.9-14.6-14.5-27.9-30.3-39.2-47.5-12-18.1-22.2-37.6-30.1-57.8-5.5-14.1-10-28.6-13.6-43.3-.6-2.7-1.2-5.3-1.7-8s-.7-4.1-1-6.1-.3-2.3-.5-3.5-.1-.9 0-.3c0-.3 0-.7-.1-1 0-.6-.2-1.3-.2-1.9-1.5-12.9-1.9-25.9-1.1-38.8 1-16.4 4.1-32.7 9.4-48.3 6.2-18.2 15.6-35.4 27.7-50.4 12-14.8 26.5-27.5 42.8-37.5 11.9-7.4 24.3-13.1 37.4-17.6s10-3.2 15.1-4.3c9.4-2 19.1-2.6 28.7-1.5s14.4 2.6 21.1 5.3c2.8 1.2 6.3 2.9 9.2 4.6s7.2 4.3 10.7 6.6c17.2 11.6 33.2 25 48.5 39.1 9.1 8.4 17.6 17.2 26.1 26.1 13.5 14.2 27.1 28.4 40.7 42.5 10.1 10.4 20.2 20.8 30.6 30.9 8.2 8 16.5 15.8 25.1 23.3 12.8 11.2 26.1 21.7 39.9 31.7 8.8 6.4 17.7 12.5 26.8 18.4 2.7 1.8 5.2-2.6 2.5-4.3-17.4-11.2-34.2-23.3-50.2-36.4-9.9-8-19.5-16.4-28.8-25.1-9.5-8.9-18.7-18-27.8-27.3-12.1-12.3-24-24.7-36-37.2-10.9-11.5-21.7-23.2-32.9-34.4-12.2-12.2-25.2-23.7-38.8-34.5-8.5-6.8-17.1-13.4-26.2-19.3-6.4-4.1-13-7.8-20.1-10.5-16.5-6.3-35.1-6.5-52.1-2.6s-22.3 6.8-32.8 11.7c-15.6 7.2-30.2 16.6-43.1 27.9-15.4 13.5-28.4 29.8-37.9 47.9-8.5 16-14.4 33.4-17.6 51.2-2.7 14.9-3.7 30.1-3.2 45.2.4 10.6 1.6 21.2 3.5 31.7 1.7 9 4.1 17.8 6.7 26.6 5.6 18.7 13 37 22 54.4s22.9 38.9 37.3 56.2c12.3 14.7 26.1 28 40.5 40.6 12.7 11.1 25.7 21.9 39.1 32.1s31.8 22.9 48.5 33c9.5 5.8 19.3 11.3 29.1 16.5 2.8 1.5 5.4-2.8 2.5-4.3ZM1331.5 1203.3c-13.4-12-27.8-22.9-43.1-32.3-21-12.9-43.8-23-67.5-29.8-23-6.6-46.9-9.9-70.9-10.2-17.7-.2-35.4.8-53 3.1-20.6 2.7-40.9 6.7-61.1 11.5-20.8 5-41.3 10.8-61.7 17.3s-39.2 13-58.6 20.1c-17.2 6.4-34.3 13.1-51.3 20.1-13.5 5.6-27 11.3-40.3 17.2-8.2 3.6-16.4 7.4-24.5 11.2s-2.1 1-3.2 1.5-1.5 2.3-.9 3.4 2.2 1.5 3.4.9c6.6-3.1 13.3-6.2 20-9.2 5.4-2.4 10.9-4.9 16.4-7.3 6.5-2.8 13.5-5.8 19.6-8.4 16.1-6.8 32.3-13.3 48.6-19.5 18.8-7.2 37.7-14 56.8-20.3 20.1-6.7 40.4-12.8 61-18.2 20.1-5.3 40.5-9.9 61.1-13.2 18.6-3 37.3-5 56.2-5.2s40.2 1 60 4.9c25.5 5 50.1 13.9 73 26.1 17.3 9.2 33.5 20.2 48.4 32.7 2.8 2.3 5.5 4.7 8.1 7.1 2.4 2.1 5.9-1.4 3.5-3.5Z"/>
    </g>
    <g id="Layer_6">
        <path class="st14" d="M1528.3 684.9c-23.4-4.7-50.8-8-81.4-7.3-8.6.2-16.9.7-24.9 1.4-5.6.4-11.7 1.1-18.2 2.2-6.7 1.1-12.9 2.6-18.4 4.1-5.5 1.6-11 3.3-16.5 4.9-8.1 2.5-15 4.2-20.1 5.4-8.4 2-17.5 4.2-29.4 5.4-10.8 1.2-16 .7-17.6.6-7.3-.7-13.5-1.2-19-5.5-6.7-5.2-10.5-14.5-8.4-16.6.8-.8 2.5-.5 3.8-.1l149.8-24.2c33.4 9.9 66.8 19.8 100.3 29.6Z"/>
        <path class="st14" d="M1528.5 684.3c-24.9-5-50.3-7.6-75.7-7.4-13.6 0-27.3.7-40.9 2.4s-13.4 2.1-20 3.6-12.6 3.5-18.9 5.4c-11.3 3.4-22.6 6.5-34.1 9-11.1 2.4-22.5 4.2-33.9 4s-7.8-.5-11.6-1.2c-5.7-1.1-10.6-3.8-14.3-8.4-1.6-1.9-2.9-4.1-3.8-6.4s-1.4-3.4-.8-4.8 2.9-.3 4.2-.5c6.3-1 12.5-2 18.8-3l36.9-6 42.6-6.9c11.8-1.9 23.5-3.8 35.3-5.7l11.2-1.8 3.1-.5c.4 0 1-.3 1.4-.2s1 .4 1.4.5c1.8.5 3.7 1.1 5.5 1.6 3.5 1 7 2.1 10.5 3.1 6.8 2 13.7 4 20.5 6.1 14 4.1 28 8.3 42 12.4 6.7 2 13.4 4 20.1 5.9s1.1-1 .3-1.2c-28.2-8.3-56.3-16.6-84.5-25s-7.2-2.1-10.7-3.2-1.8-.5-2.6-.8-1.6-.7-2.4-.7h-.4c-.5 0-1 .2-1.5.2-2.8.4-5.5.9-8.3 1.3-10.8 1.7-21.6 3.5-32.5 5.2s-28.4 4.6-42.6 6.9c-13.2 2.1-26.4 4.3-39.6 6.4l-23.4 3.8c-.5 0-1.2.3-1.8.3s-1.2-.3-1.9-.4c-1.7-.1-2.9.8-3 2.5s.4 3.4 1 5c.9 2.2 2.1 4.3 3.6 6.1 3.3 4.3 7.8 7.3 13 8.7s8.5 1.5 12.7 1.7 9 0 13.4-.5c11.8-1.1 23.3-3.5 34.8-6.4s12.2-3.2 18.2-5 13.1-4.1 19.6-5.7c13.2-3.3 26.7-4.9 40.3-5.8 27.1-1.8 54.4-.6 81.3 3.5 5.6.9 11.3 1.9 16.9 3s1.1-1 .3-1.2Z"/>
        <path class="st25" d="M1793.9 902.8s-16.3 4.1-18.9 0c-3.4-11.3-8.3-25.5-15.6-41.4 0 0-11.3-24.8-25.5-45.7-32.2-47.3-81.5-76.7-102.4-88.9-23.1-13.5-57.8-30.5-103.1-41.9-11.9-4.6-25.2-9.6-40.4-11.5-28.4-3.4-73.1-2.3-138.5 15.9 0 0-90.2 32-79-39.8 2.3-10.5 5.8-18.8 9.1-25 6.6-12.3 14.4-20.1 24.6-30.4 7.3-7.4 14.2-13.4 20.1-18.1 3.5-4.4 7.2-9.1 10.5-14.4 6.6-10.7 15.7-28.3 26.3-56 0 0 12.9-49 107.2-41.9 42.6 5.4 110.3 20.1 179.4 65 36.6 23.8 108.3 71.8 146.2 166.3 29.6 73.9 24.3 140.6 19.2 173.8l-19.2 34Z"/>
        <path class="st25" d="M1793.5 901.6c-3.9 1-7.9 1.7-11.9 1.8s-4.8.2-5.5-1.1c-.4-.7-.5-1.7-.7-2.4s-.6-1.9-.9-2.9c-.6-1.9-1.2-3.8-1.9-5.8-4.3-12.7-9.4-25.1-15.3-37-7.3-14.8-15.4-29.3-25-42.8-10-14-21.6-26.7-34.2-38.2s-22.9-19.4-35.3-28c-9.1-6.3-18.5-12.2-28.1-17.8-11.2-6.6-22.7-12.7-34.4-18.2-15.7-7.3-31.9-13.6-48.4-18.8s-9.4-2.9-14.1-4.2c-2.4-.7-4.9-1.3-7.3-2s-4.4-1.4-6.5-2.3c-8.6-3.3-17.3-6.2-26.4-8.1-11.6-2.4-23.7-3.1-35.5-3.2-13.5 0-27 .9-40.3 2.5s-34.6 5.4-51.6 9.5c-8.3 2-16.5 4.1-24.7 6.6-5.3 1.6-10.8 2.9-16.2 3.9s-15.1 2.2-22.6 1.9-15-1.5-21.5-5.2-11.3-10.2-13.1-17.8c-3.3-13-.1-27 4.9-39.1 3.2-7.6 7.4-14.8 12.5-21.2 5.6-7 12.1-13.5 18.5-19.8 3.4-3.3 6.9-6.5 10.5-9.6s3.2-2.7 4.8-4.1c.7-.6 1.5-1.1 2.1-1.9s1.6-2 2.3-3c4.5-5.8 8.5-11.8 12.1-18.2 7.4-13.3 13.6-27.3 19.3-41.4 1.2-2.9 2.4-5.8 3.4-8.8s.3-.9.5-1.3.1-.3.2-.4c0 .2 0 0 .1-.2s.3-.7.5-1c2-4.1 4.6-7.8 7.5-11.1 4.8-5.4 10.6-9.9 16.9-13.4 9.3-5.2 19.5-8.5 29.9-10.6 15.2-3 30.9-3.4 46.3-2.4 6.4.4 12.7 1.4 19 2.4s13.3 2.3 19.8 3.7c15.2 3.2 30.3 7.2 45.1 12s34 12.2 50.3 20c17.4 8.2 34.1 17.7 50.3 28.2 7.9 5.1 15.7 10.4 23.3 15.8 9.4 6.7 18.6 13.8 27.4 21.3 10.3 8.7 20.1 18 29.3 27.8 10.4 11 20 22.7 28.7 35 9.6 13.6 18.2 28 25.6 43 8.6 17.5 15.5 35.8 20.7 54.6 4.9 17.7 8.3 35.9 10.2 54.2 1.6 15.4 2 30.9 1.5 46.4-.4 11.8-1.5 23.6-3.1 35.3-.2 1.2-.4 2.3-.5 3.5v.2c0 .2-.1.2-.2.3-.6 1.1-1.2 2.1-1.8 3.1-2.3 4-4.5 8-6.8 12.1-3.5 6.1-6.9 12.3-10.4 18.4s1.4 2.7 2.2 1.3c3.7-6.5 7.4-13.1 11.1-19.6l6.6-11.7c.5-.9 1-1.7 1.5-2.6s.3-1.3.4-1.9c.2-1.2.3-2.4.5-3.5 1.6-12 2.7-24 3.1-36.1.5-15.7 0-31.5-1.7-47.1-2-18.5-5.5-36.8-10.6-54.7-5.3-18.7-12.4-37-21-54.5-7.5-15-16.1-29.5-25.9-43.1-8.8-12.3-18.5-24.1-28.9-35.1-9.3-9.8-19.2-19.1-29.6-27.9-8.9-7.5-18.1-14.6-27.6-21.4-7.7-5.5-15.5-10.7-23.4-15.8-16.5-10.8-33.8-20.4-51.7-28.8-16.4-7.7-33.3-14.3-50.6-19.8s-29.9-8.7-45.2-11.8c-6.5-1.3-13.1-2.5-19.7-3.6s-13.1-2-19.8-2.4c-15.4-.8-31-.3-46.2 2.8-10.4 2.1-20.7 5.6-30 10.9-6.4 3.7-12.3 8.2-17.2 13.8s-5.8 7.3-7.7 11.5c-1.8 3.8-3.1 7.9-4.6 11.8-5.7 14.3-12 28.4-19.5 41.8-3.7 6.6-7.9 12.8-12.6 18.8s-1.3 1.7-2.2 2.4-1.7 1.4-2.5 2c-1.7 1.4-3.3 2.8-4.9 4.2-3.7 3.3-7.3 6.7-10.8 10.1-6.3 6.3-12.6 12.6-18 19.7-5 6.5-9 13.8-12.1 21.4-5 12.3-7.8 26.3-4.6 39.4 1.9 7.8 6.5 14.6 13.4 18.9 6.6 4 14.5 5.6 22.1 6s15.6-.3 23.3-1.7 11.5-2.3 17.1-4c7.3-2.2 14.6-4.2 22-6 17.3-4.3 34.8-7.7 52.5-10 13.7-1.7 27.4-2.8 41.2-2.7s23.9.6 35.6 3c9.2 1.9 18 4.9 26.8 8.2 2.1.8 4.2 1.6 6.3 2.2s4.9 1.3 7.3 2c4.8 1.3 9.6 2.7 14.3 4.2 16.7 5.3 33 11.7 48.9 19.1s22.9 11.5 33.9 18c9.8 5.8 19.4 11.8 28.7 18.3 12.6 8.8 24.6 18.3 35.8 28.8 12.7 11.9 24.4 25 34.2 39.5 8.9 13.2 16.6 27.2 23.5 41.5 6.1 12.7 11.3 25.9 15.6 39.4.6 1.8 1.1 3.6 1.7 5.4s1.1 1.7 2 2.2c2.1 1 4.7 1 7 .9 3.9-.2 7.8-.9 11.5-1.8 1.6-.4.9-2.8-.7-2.4Z"/>
        <path d="M1805.6 832.7c3-.8 2.8-5.2 2.9-7.6 0-4.8-.4-9.5-.9-14.3-1.9-16.6-5.3-33-9.5-49.1-5.7-22-13.1-43.7-22.2-64.5-10.2-23.5-22.8-45.9-38.3-66.3-12.7-16.7-26.7-32.5-42.2-46.6-19.3-17.5-40.6-32.3-62.9-45.6-25.1-14.9-51.9-27-79.7-36-23-7.4-46.6-12.7-70.5-15.9-9.8-1.3-19.6-2.3-29.5-2.9s-8.5-.5-12.8-.6-6.9-.4-10.3-.1-4.7.5-6.5 1.8-2.7 4.8-1.2 7.3c1.3 2.1 3.2 3.8 5 5.3s4 3.2 6.1 4.6c8.6 5.7 18.2 9.8 27.9 13.2 7.7 2.7 15.6 4.9 23.6 6.7s13.4 2.7 20.1 4.3c14.7 3.6 29.1 8.1 44 10.8 13 2.4 25.9 5.5 38.5 9.5 21 6.6 41.2 15.5 60.2 26.6 7.6 4.4 15 9.1 22.1 14.2 5.9 4.2 10.7 7.8 16.2 12.4 5.5 4.5 10.7 9.3 15.6 14.4s3.6 3.1 5.4 4.7c4.3 3.8 8.4 7.8 12.4 11.9 7.7 8 14.9 16.5 21.4 25.5 12.3 17 22.5 35.5 30.8 54.9 7.1 16.7 12.8 34.1 17.3 51.8 3.5 13.8 6.3 27.8 8.6 41.9.8 4.8 1.5 9.7 2.3 14.5.5 3 .9 6 1.6 9 .5 2.2 1.6 4.9 4.4 4.3s1.8-5.5-1.3-4.8c.6-.1 1.1 0 1.7.2-.3-.2.6.6.3.2.4.4.4.6.2.2s0-.4 0 .2c-.1-.9-.5-1.8-.7-2.6-.7-3.2-1.2-6.5-1.7-9.8-1.8-11.5-3.6-23.1-6-34.5-3.3-16.2-7.5-32.2-12.8-47.9-6.3-18.7-14.2-36.9-23.8-54.1-10.7-19-23.6-36.8-38.7-52.5-4-4.1-8.1-8.1-12.4-11.9-1.8-1.6-3.7-3-5.4-4.7s-3.1-3.2-4.7-4.7c-8.3-8-17.4-15.2-26.8-21.9-15.1-10.8-31.3-20.2-48.2-28-22.1-10.2-45.4-17.8-69.2-22.6-7.1-1.4-14.3-2.7-21.3-4.5-7.3-1.8-14.5-3.8-21.7-5.7s-13.9-3.5-20.9-4.8-2.4-.5-3.6-.7c-7.1-1.5-14.2-3.4-21.2-5.6-9.4-3-18.8-6.7-27.4-11.7-4-2.3-7.8-4.9-11.2-8-.8-.7-1.7-1.5-2.3-2.5s-.3-.8-.5-1c-.3-.4.1-.2 0 0 0-.3 0-.3 0 0-.2.2-.2.2 0 0l.2-.1c.2-.1.7-.3.2-.2.4-.2.8-.3 1.2-.4 1-.2 1.5-.3 2.6-.3 3.5-.2 7 0 10.4.2s8.4.4 12.6.6c20.9 1.4 41.6 4.3 62 8.8 25.8 5.7 51 13.9 75.1 24.7s47.5 24.3 69.3 39.7c18.2 12.8 35.2 27.3 50.3 43.6 17 18.4 32.3 38.3 44.7 60.1 11.8 20.7 21.4 42.8 29.1 65.4 6.4 18.9 11.6 38.2 15.4 57.8.7 3.9 1.4 7.7 2 11.6.3 1.8.5 3.6.8 5.3v.5c0 .4 0-.6 0 0s.1.8.2 1.2l.3 2.4c.6 4.8 1 9.7 1 14.5V827.7c0 .8.1-.6 0 .2s0 .4-.1.7-.4.9 0 0c-.2.3-.4.5.2-.2-.2.2-.3.1.4-.3-.3.2.8-.3.5-.2-3.1.9-1.8 5.7 1.3 4.8Z" style="fill:#ba7063"/>
    </g>
    <g id="Layer_5">
        <path class="st3" d="M1845.4 698.6s-39.1-41.2 0-79c0 0-86.8-24.5-24.5-57.9-4.8-3.2-13.7-10.1-19.4-22.1-3.2-6.6-9.5-20-3.7-30.3 5.7-10.1 21.8-14.7 38.7-9.9-.7-3.6-2.9-16.3 4.1-29.6.9-1.8 8.1-15.2 21.6-20.2 17.7-6.6 41.8 3.2 56.4 25.6 0 0 32.3-37.1 50.4 20.1 0 0 65-23.1 58.2 43.2 0 0 35.7-4.8 91.5 43.2 55.9 48 42.7 43.5 42.7 43.5 1.3 1.5 2.7 3 4 4.5 4.9 7.1 11.4 17.8 17 31.7 10.4 25.9 16.7 61.3 10.2 78.4-13.5 35.4-103.4 49.9-218.2 18.3l-129-59.6Z"/>
        <path class="st3" d="M1846.3 697.7c-4.3-4.5-7.8-10.1-10.6-15.7-5.7-11.4-8.3-24.5-4.9-37 2.6-9.5 8.4-17.7 15.4-24.6.7-.7.3-1.8-.6-2.1-2.7-.8-5.3-1.7-7.9-2.6-5.8-2.1-11.6-4.5-17-7.3s-11.6-6.6-16.1-11.4c-3.7-4-6.1-9-4.6-14.3.9-3.2 2.9-6 5.1-8.4 3.5-3.7 7.7-6.6 12-9.2 1.4-.8 2.8-1.6 4.3-2.4s.7-1.7 0-2.2c-4.5-3-8.5-6.6-11.9-10.7-4.4-5.2-7.5-11.3-10-17.6-2.5-6.4-4.3-13.9-1.6-20.6 2.3-5.7 7.8-9.4 13.4-11.3s16.8-2.1 24.8.1c1 .3 1.7-.6 1.5-1.5-2.9-14.2 1.7-28.9 11.7-39.3 5.8-6 13.2-10.2 21.6-10.8s16.1 1.6 23.2 5.3 17.4 12.7 23.3 21.6c.4.6 1.4.9 2 .3 3.2-3.7 7.1-6.6 11.5-8.8 3.5-1.8 7.3-2.9 11.3-2.6s9 2.7 12.4 6.1c6.7 6.7 10.4 16.1 13.2 24.9.2.6.9 1.1 1.5.9 2-.7 4.2-1.3 6.3-1.8 4.9-1.2 9.7-1.9 14.7-2.1s11.9.4 17.4 2.5c5.9 2.3 10.8 6.4 13.9 11.9 4.5 8 5.2 17.7 4.7 26.8s-.2 3.1-.4 4.7.6 1.3 1.2 1.2c4.9-.7 10.2.2 14.9 1.2 14.7 2.9 28.6 9.2 41.4 16.8 20.6 12.1 38.6 28.1 56.2 44.2 5.2 4.7 10.3 9.4 15.1 14.5 1.4 1.4 2.7 2.8 4 4.3s1.3 1.5 2 2.7.4.6.5.9 0-.1 0 0 0 .2.1.3c.1.3 0-.2 0 0 0 .3 0-.2 0 0-.1.2.3-.4.2-.3 0 0 .5-.3.3-.2 0 0 .4 0 0 0s.4 0 0 0h-.2c-.1 0 0 0 0 0-1.3-.4-2 1.2-1.2 2.1 2 2.3 4 4.5 5.7 7.1 1.5 2.2 2.9 4.4 4.2 6.7 3.2 5.5 6.2 11.1 8.7 16.9 5.1 11.4 8.8 23.5 11.4 35.7s4 22.5 3.3 33.9c-.4 6.9-1.9 13.7-5.9 19.4-7.3 10.2-19.7 16-31.2 19.8-17.8 5.9-36.7 8-55.3 8.6-24.6.7-49.2-1.5-73.4-5.5-14.2-2.4-28.4-5.3-42.3-8.9s-3.5-.9-5.2-1.3-3.7-.8-5.4-1.4-.2 0-.3-.1c-.7-.3-1.4-.7-2.2-1-8.4-3.9-16.8-7.7-25.1-11.6-13.2-6.1-26.5-12.2-39.7-18.4-12.9-6-25.8-11.9-38.8-17.9-7.3-3.4-14.6-6.7-21.9-10.1l-1-.5c-1.5-.7-2.7 1.5-1.3 2.2 5.3 2.4 10.6 4.9 15.9 7.3 12.3 5.7 24.5 11.3 36.8 17 13.8 6.4 27.6 12.7 41.4 19.1 9.8 4.5 19.7 9.1 29.5 13.6s3.6 1.7 5.4 2.5c1.6.7 3.5 1 5.1 1.4 3.6 1 7.2 1.9 10.8 2.8 7.2 1.8 14.4 3.4 21.6 4.8 25.5 5.1 51.4 8.3 77.4 8.6 20 .2 40.3-1.2 59.8-6.2 13.2-3.4 27.2-8.6 37.2-18.3 4-3.9 7.1-8.5 8.8-13.8 3-9.5 2.4-20.2 1.3-30-2.9-24.9-10.9-49.6-23.9-71.1-1.2-2.1-2.5-4.1-3.9-6.1s-3.7-4.7-5.7-6.9l-1.2 2.1c1.9.6 3.4-.8 2.7-2.7-.7-2.1-2.5-4-4-5.6-3.6-4.1-7.6-8-11.6-11.7-7.7-7.2-15.6-14.2-23.5-21.1-10-8.7-20.2-17-31.3-24.3-14.2-9.4-29.7-17.4-46.3-21.5s-9.1-1.9-13.7-2.2-4.2-.4-6 0-.2 0-.3 0l1.2 1.2c1-10 .8-20.7-3.3-30s-7.6-11.4-13.8-14.5c-5.7-2.8-12-3.8-18.3-3.9s-10.9.6-16.2 1.8-3.6.8-5.4 1.3-1.9.4-2.6.8 0 0-.1 0l1.5.9c-2.7-8.6-6.2-17.3-12.2-24.2-3.5-4.1-8.1-7.4-13.5-8.3-8.3-1.4-16.2 2.6-22.5 7.8s-3 2.6-4.3 4.1l2 .3c-10.1-15.3-27-28.4-46.1-28.3s-17 3.4-23.5 9.3c-4.6 4.1-8.5 9.3-11.2 14.8-4.3 9-5.5 19.4-3.6 29.3l1.5-1.5c-7.7-2.2-16.1-2.8-23.9-.8s-12.2 4.9-15.7 10.3-3.5 14.7-1.3 21.8c2.1 6.7 5.3 13.5 9.5 19.2 4 5.5 9.1 10.2 14.7 14v-2.2c-5.1 2.7-10.1 5.8-14.5 9.7-2.9 2.6-5.6 5.6-7.2 9.1-2.6 5.7-1.5 11.7 2.1 16.7s9.8 9.4 15.6 12.8 12.1 6 18.4 8.4 4.5 1.6 6.8 2.4 2.3.9 3.4 1 .1 0 .2 0l-.6-2.1c-6.6 6.4-12 13.9-15.1 22.6-2.4 6.8-3.2 14.1-2.3 21.3 1.3 11.3 6.2 22 12.8 31.1s2.9 4 4.6 5.8c1.1 1.2 2.9-.6 1.8-1.8Z"/>
    </g>
    <path d="M2140.1 828s-17.4-1.3-16.9 2.8c5.1 2.6 6.1 10.2 6.1 10.2s2 7.1-12.3 17.4c0 0-6.6 6.1-8.7 7.7-2 1.5-3.1 19.4-28.6 26.6-.6 3.2-1.7 7.8-3.9 12.9-2 4.6-4.5 8.5-11.6 17.4-6.1 7.6-9.2 11.5-14.6 17.4-6.4 6.8-17.2 18.4-33 29.6-13 9.2-22 15.6-35.9 19.7-7.7 2.3-29.8 8.5-54-1-17.3-6.8-27.5-18.5-33-24.9-2.4-2.8-10.6-12.5-17.4-27.6-10.2-22.7-6-32.7-15.3-38.8-3.1-2.1-7.2-3.3-29.3-.7-15.8 1.9-28.9 4.2-38 6.1 2.5-9 4.8-18.9 6.3-29.8 2.6-18.2 4.1-43-.2-69.3 0 0 6.6-95-6.1-108.8l48-3.1 153.7 25s18.9 3.1 23 7.1c4.1 4.1 85.8 51.6 85.8 51.6l30.1 37.8 5.6 14.6Z" style="fill:#944a45" id="Layer_2"/>
    <g id="Layer_3">
        <path class="st12" d="m2079.4 892-2.9.3s-16.9.3-6.6-14.3c10.2-14.6 9.5 14 9.5 14Z"/>
        <path class="st7" d="M2107.8 867.1s-24.6-21.2-33.8-5.4c0 0-8.2 9.4-4.1 16.3 0 0 10.2 2.6 6.6 14.3 0 0 1.8.7 3.3.3s22.4-4.3 27.9-25.5ZM1992.4 819.4s-3.2-25.8 20.9-16.1c24.1 9.7 20.9 25.9 20.9 25.9s-19.1 28.6-37 2.8c0 0-1.9-1.5-4.9-12.6Z"/>
        <path class="st12" d="M2004.3 835.3s12.4 1.3 16.2-7.3c.3-.1 1.8-.8 3.1-.1 1.1.6 1.3 2 1.4 3.3 0 .7.3 2.8-.8 5.1-1.4 3-4.1 4.3-5 4.8-3.5 1.7-6.9 1-8.9.6-3-.6-7.8-2.4-7.7-4.4 0-.8.9-1.5 1.7-1.9Z"/>
        <path class="st7" d="M2017 775.1s-14.3 5.7-1.3 9.8c13 4.1 9.3-.9 36.6 16.2 0 0 11.5 5.2 7.9-6.5-3.6-11.6-29.2-26.3-43.3-19.5ZM2123.2 830.8s-21.6-14.6-18.1 4.6c0 0 14.7 11.4 12 23 0 0 23.2-14 6.1-27.6ZM2045 859.3c-3.6 5.4-6.8 11-9.7 16.8-2.2 4.5-4.3 9.1-5.5 14-1 3.7-1.7 8.1 0 11.8 2 4.5 7.2 5.2 11.5 4.7s1.6-2.7 0-2.5-4.2.3-6.2-.5-2.3-1.3-2.9-2.6c-1.5-2.8-.8-7 0-10.2 2.3-8.7 6.8-16.9 11.4-24.6s2.3-3.9 3.6-5.7-1.3-2.6-2.2-1.3ZM2019.1 883.1c0 1-.1 2.1-.1 3.1 0 1.8.1 3.8.9 5.5s1 1.6 2 1.8 1.4-.2 1.5-.9-.2-1.4-.9-1.5-.1 0-.2 0c0 0 .2.1.2 0s-.1 0 0 0l.1.1-.2-.2c-.2-.2 0 0 0 0s0-.1-.1-.2 0-.1-.1-.2c0-.1 0-.3 0 0-.1-.3-.2-.7-.3-1s0-.4-.1-.5 0-.2 0-.3c0-.2 0 .2 0 0-.2-1.5-.2-3.1-.1-4.6s0-.7 0-1c0-.7-.6-1.2-1.2-1.2s-1.2.6-1.2 1.2ZM2008.9 936.3c-10.6-.9-19.7-8-26.8-15.4-6.3-6.7-11.7-14.3-16.3-22.2s-1.9-3.3-2.7-5-2.9-.2-2.2 1.3c2.5 5 5.5 9.8 8.7 14.3 6.1 8.8 13.4 17.4 22.5 23.3 5.1 3.3 10.8 5.7 16.9 6.2s1.6-2.4 0-2.5Z"/>
    </g>
    <g id="Layer_4">
        <path class="st12" d="M1836.9 703s-34.7 55.5 14.3 101.4c6.7 5.1 22.3 15.5 44.9 18 27 3.1 47.4-6.9 55-11.2 27.4-15.3 37.5-39.6 43.1-52.8 2.5-6 12.5-29.9 4.8-40.9-.8-1.2-3-3.8-4-8.1-1.9-7.4 1.3-12.7 1.6-15.7 1.4-13.5-46.5-45.4-95.1-35.7-36.3 7.3-57.6 34.8-64.6 44.8Z"/>
        <path class="st3" d="M1881.5 691.9s27.9-14.2 51.7-2.1c4.2 1.7 10.8 5 16.9 11.2 11.3 11.5 13.6 25.2 14.4 30.9.8 5.7 2.5 18-3.9 31.7-7 15-19.4 22.1-23.7 24.3-5.8 2.8-13.9 5.7-24 6.5-5.5.5-15.5 1.2-27.3-3.2-8.4-3.2-14.3-7.8-17.7-10.9-3.5-2.9-9.8-8.8-13.4-18.3-2.8-7.2-2.9-13.4-2.9-18.2 0-5.3.6-13.7 4.3-23.5 2.9-6.7 6.4-11.4 9-14.4 4.2-4.9 8.5-8.2 11.2-10.3 2.1-1.6 3.9-2.9 5.3-3.7Z"/>
        <path class="st12" d="M1879.3 698c-3.9 2.4-11.5 8-17 17.9-5.8 10.3-6.1 19.8-6.2 24.3-.4 13.8 4.4 24.3 7.2 29.5 3.1 3.6 17.2 19 39.8 20.6 13.3.9 23.8-3.3 27.9-5.2 10.2-4.8 16.6-11.4 19.9-15.3 2.5-3.4 11.2-16.2 9.9-34.4-1.2-16.2-9.8-26.9-12.8-30.3-3.9-4-11.6-10.9-23.3-14.3-22.9-6.7-42.2 5.2-45.4 7.3ZM1954.2 654.5s41 18 44.8 32.7c0 0 103.7-111.3 165.6-59.4-2.5-7.3-8-20.1-20.4-30.5-18.8-15.7-41.3-15.6-54.6-15.5-20 .1-34.7 5.7-50.4 11.7-8.2 3.1-25.3 10.3-44.6 23.8-17.6 12.4-30.8 25.7-40.3 37.1Z"/>
        <path class="st12" d="M1953.3 656.1c4.7 2.1 9.3 4.4 13.8 6.8 8.2 4.4 16.5 9.2 23.3 15.4s3.2 3.1 4.4 4.7 1.1 1.6 1.6 2.4.6 1.2.9 2.2 2.2 1.9 3.1.8c3.4-3.7 7-7.1 10.6-10.6 8.8-8.3 17.9-16.2 27.5-23.5 12.1-9.3 24.8-17.8 38.4-24.7 13.1-6.7 27.4-12.2 42.2-13.5s28.1 1.5 40 9.6c1.5 1 3 2.1 4.4 3.3s3.8.1 3.1-1.8c-5.2-15.4-15.3-28.9-29.3-37.3-13.6-8-29.2-10.1-44.7-10.1-9 0-18 .8-26.8 2.9-8.6 2-16.8 5.1-25 8.2-14.3 5.5-28 12.3-40.9 20.7-15.9 10.4-30.5 22.9-43 37.2s-2.5 2.9-3.7 4.3 1.1 4.5 2.7 2.7c11.5-13.7 24.6-25.9 39.2-36.3 13.1-9.3 27.4-17.2 42.4-23.2 15.6-6.2 31.5-11.8 48.5-12.6 14.4-.6 29.4.1 42.8 5.9 15.3 6.7 27 19.5 33.1 34.9s.9 2.4 1.3 3.6l3.1-1.8c-11.6-9.7-25.9-14.6-41-14.3s-30 5-43.7 11.3c-14.1 6.5-27.3 14.9-39.8 24.1-10.5 7.8-20.6 16.2-30.2 25.1-3.1 2.9-6.1 5.8-9.1 8.7-1.4 1.4-3 2.8-4.2 4.3l-.2.2 3.1.8c-1-3.6-3.5-6.7-6.1-9.4-3.3-3.4-7.2-6.2-11.1-8.9-7.4-5-15.2-9.2-23.2-13.1-1.7-.8-3.5-1.7-5.3-2.5s-2-.3-2.6.7-.3 2.2.7 2.6Z"/>
        <path class="st15" d="M2025 738.7c-2-2.3-3.6-4.4-4.5-7.4-2-6.5.4-12.5 1.6-15.1 0 0 30.4-37.1 44.5-38.5 2.9-1 7.1-2.3 12.2-2.9 4-.5 11.7-1.1 22.5 1.4 8.1 1.9 17.2 5.3 34.5 16.1 13.1 8.2 25.1 15.7 39.4 29 13.4 12.5 23.5 25.2 30.8 36.1 2.4 4 5 10.1 6.4 17.8 1.9 10.5 1.1 24.2-9.4 37 0 0-18.4 29.5-23.5 30.6-10.6 9.1-16.3 9.5-19.5 8.1-3.6-1.5-4.3-5.1-9.6-12.3-3.9-5.3-7.9-9.1-10.5-11.5-8.2-7.7-15.2-13.7-20.1-17.8-7.7-6.5-12.2-9.9-23.3-19.4-7-6-6.2-5.5-8.3-7.1-9.2-7.2-14-8.7-23.8-15.1-8.9-5.8-6.2-5.3-15.1-11.2-9.6-6.3-16.7-9.5-24-17.7Z"/>
        <path class="st15" d="M2055.5 723.5c3-3.6 6.1-7.1 9.3-10.6 5.7-6.3 11.5-12.5 17.9-18 1.5-1.3 2.8-2.3 4.4-3.4s1.3-.8 1.9-1.1 1.1-.5.6-.3l.9-.3c2.3-.7 1.3-4.3-1-3.6s-5.5 2.9-7.9 4.8c-3.2 2.5-6.2 5.4-9.1 8.3-5.7 5.6-11 11.6-16.3 17.6s-2.3 2.7-3.4 4.1c-1.5 1.8 1.1 4.5 2.7 2.7Z"/>
        <path class="st30" d="M2082.9 732c5.9-7.4 12.2-14.7 19.4-20.9 1.9-1.7 4-3.4 6.4-4.4s1.1-1.8.7-2.6-1.6-1.1-2.6-.7c-2.2 1-4.2 2.5-6.1 4.1s-4.6 4.1-6.8 6.4c-4 4-7.7 8.3-11.3 12.6-.8.9-1.6 1.9-2.3 2.9-.6.8-.8 1.9 0 2.7s2 .8 2.7 0ZM2099.5 749.2c5.3-6.8 10.6-13.6 16.4-20s1.5-1.7 2.4-2.5.7-.7 1-1 .3-.2.4-.4c.4-.3-.3.2 0 0 .8-.6 1.2-1.6.7-2.6s-1.7-1.3-2.6-.7c-1.4 1-2.6 2.3-3.7 3.6-1.8 1.9-3.4 3.9-5.1 5.9-3.4 4.1-6.7 8.2-10 12.3l-2.1 2.7c-.7.9-.8 1.9 0 2.7.6.7 2 .8 2.7 0ZM2120.4 759.1c2.4-3.6 4.8-7.1 7.2-10.6 4.1-5.9 8.2-11.7 12.8-17.2.9-1.1 1.8-2.1 2.8-3.1s.4-.3.6-.5c.5-.4-.2 0 .2-.2s.3-.2.4-.3c.3-.2-.5.1 0 0 2.4-.5 1.4-4.1-1-3.6s-3.5 2.5-4.7 3.8c-2.3 2.6-4.3 5.3-6.4 8-4.3 5.8-8.4 11.7-12.4 17.6-.9 1.4-1.8 2.7-2.7 4.1-1.3 2 1.9 3.9 3.2 1.9ZM2168.4 739.6c-7.2 9-14.4 18.1-21.2 27.5-1.7 2.4-3.8 4.9-4.4 7.8-1.1 5.8 4 10.7 9.6 10.9s9.2-3.5 10.2-8.2-3.1-3.4-3.6-1-2.9 5.3-6 5.4-8.1-4-5.8-8.2c1.1-2 2.5-3.8 3.8-5.6 2.5-3.5 5.1-6.9 7.7-10.2 4.1-5.3 8.2-10.5 12.3-15.7.6-.8.8-1.9 0-2.7s-2-.8-2.7 0ZM2181 769.9c-4.8 5.9-9.6 11.9-13.9 18.2-.8 1.1-2 2.5-2 4-.1 2.4 3.6 2.4 3.8 0v.3c0-.3-.3.4 0 .2s.2-.4.3-.6l1.2-1.8c1.2-1.7 2.4-3.4 3.7-5.1 2.6-3.4 5.2-6.7 7.9-10.2.6-.8 1.3-1.6 1.9-2.4s.8-1.9 0-2.7-2-.8-2.7 0Z"/>
    </g>
</svg>
