<?xml version="1.0" encoding="UTF-8"?>
<svg id="Layer_1" xmlns="http://www.w3.org/2000/svg" version="1.1" viewBox="0 0 529.46 661.72">
  <!-- Generator: Adobe Illustrator 29.0.0, SVG Export Plug-In . SVG Version: 2.1.0 Build 186)  -->
  <path d="M529.46,322.67v295.64c-49.65-9.04-99.84-15.66-150.28-18.84-2.38-8.53-15.27-16.25-23.06-19.32-1.43-.56-8.5-2.47-8.91-3.06-2.86-16.9-5.76-33.83-8.51-50.76-.17-1.02.09-2.12-.05-3.02,15.03-1.26,31.77.33,46.08,5.31,3.49,1.21,8.07,4.96,11.46,2.07,3.13-2.66,1.12-6.21,1.43-9.63,1.12-12.45,20.35-21.99,30.8-25.71,6.16-2.19,17.47-2.7,14.26-12.4-1.12-3.4-8.73-11.24-11.25-14.96-19.35-28.58-15.2-63.39,2.62-91.49,11.89-18.75,33.16-34.12,53.37-42.86,13.1-5.66,27.74-10.08,42.04-10.98ZM478.57,379.28c-5.12.87-8.89,7.53-5.8,12.16,5.9,8.83,19.84.07,14.03-8.71-1.84-2.78-4.93-4.01-8.23-3.45ZM451.95,434.14c-5.81,1.2-4.75,12.15,3.49,10.04,5.26-1.35,4.07-11.6-3.49-10.04ZM495.36,490.65c-5.56,1.15-5.62,10.92,1.12,11.39,9.22.65,8.08-13.3-1.12-11.39ZM456.47,522.99c-5.57.8-5.41,8.83.3,9.35,7,.63,6.92-10.39-.3-9.35ZM401.19,557.79c-5.62.64-5.74,9.14-.12,9.76,7.79.86,6.92-10.54.12-9.76ZM491.26,576.23c-2.69.55-5.47,3.65-5.93,6.35-1.49,8.69,9.26,13.53,14.63,6.44,4.75-6.27-1.07-14.36-8.7-12.79Z" fill="#c1e7f4"/>
  <path d="M529.46,149.46v161.74c-42.77,4.34-87.69,27.91-108.58,66.47-17.66,32.59-17.68,69.54,4.81,99.75,1.1,1.48,4.2,4.46,4.88,5.76.22.41.25.77.21,1.23-12.73,3.39-30.78,11.66-38.25,22.97-2.59,3.92-3.87,7.75-5.01,12.28-12.05-3.15-24.31-5.45-36.81-5.77l-13.7,1.24c-.83-5.09-2.2-10.11-2.48-15.29,3.84-2.41,9.31-2.43,8.21-8.46,9.11,4.32,19.19,7.09,26.6-1.85,6.64-8,4.53-15.31-.74-23.26,1.76-3.44,6-4.26,3.78-8.83-9.02-14.03-18.3-28.13-27.18-42.12-3.26-5.14-7.24-10.75-10.17-15.95-1.98-3.51-2.73-4.86.11-8.34,3.15-3.86,9.34-3.81,13.75-5.08,19.41-5.59,35.91-17.99,43.71-36.96,6.71-16.33,6.1-34.59,8.29-51.81l3.49-2.35c7.14-8.17,10.95-19.19,16.17-28.67l10.19,30.55.86.57c2-10.42,4.45-20.72,5.32-31.33,1.28-15.62,1.36-31.92,1.23-47.7l91.31-68.79ZM475.3,236.37c-2.65.45-5.36,3.01-6.52,5.36-4.52,9.17,6,18.49,14.54,12.9,9.27-6.07,3.94-20.27-8.02-18.26ZM459.32,292.86c-3.06.93-2.26,5.85,1.04,5.57,3.75-.32,3.02-6.8-1.04-5.57ZM371.7,399.34c-9.7,1.65-7.52,16.63,2.31,15.84,10.68-.86,9.13-17.79-2.31-15.84Z" fill="#c1e7f4"/>
  <path d="M308.75,608.9c.53,1.27,2.63,2.82,3.99,3.17,5.26,1.36,12.87,1.09,18.34,1.31,9.98.42,22.92,1.33,32.72-.42,2.11-.37,3.86-1.47,6.37-1.62,4.34-.26,11.17.52,15.76.82,35.52,2.34,71.25,6.93,106.4,12.35,12.39,1.91,24.72,4.44,37.13,6.07v30.71H.41l.18-21.73c48.05-11.67,97.67-20.51,147.03-25.36,12.81-1.26,25.65-1.9,38.49-2.87,1.67-.13,3.93-.38,5.53-.81.31.91,1.84,2.28,2.66,2.87,10.59,7.65,44.6,6.6,57.68,4.86,6.6-.88,14.9-1.55,15.82-9.77l40.95.41Z" fill="#c1e7f4"/>
  <path d="M529.46.41v34.81c-6.27,5.65-12.2,11.7-18.42,17.41-7.13,6.54-27.47,25.87-35.52,28.36-7.47,2.31-8.44-3.98-10.65-9.63-5.49-14.03-8.69-32.15-26.57-34.85-12.97-1.96-23.82,4.44-33.51,12.24-10.34,8.31-18.56,18.98-23.15,31.52-43.43-30.97-100.16-31.35-146.54-6.3-19.43,10.49-36.96,24.56-50.62,41.92-1.48-8.27-1.9-16.77-.99-25.14.04-.33.37-.56.38-.65.71-.06,1.21-.51,1.77-.89,16.54-11.41,33.22-24.86,49.38-37.02,22.85-17.19,45.59-34.55,68.42-51.76h226.03ZM400.74,9.54c-2.83.16-3.92,3.74-1.24,5.15,4.54,2.37,6.05-5.41,1.24-5.15ZM306.18,22.21c-2.65.45-5.65,3.62-6,6.28-1.47,11.16,14.21,12.36,15.48,2.8.78-5.83-3.74-10.06-9.49-9.08ZM476.93,32.85c-7.37,1.52-7.06,13.78,1.19,14.61,11.46,1.14,10.82-17.08-1.19-14.61ZM362.69,35.32c-6.42,1.05-6.18,10.78-.07,11.75,10.1,1.6,9.36-13.27.07-11.75Z" fill="#c1e7f4"/>
  <path d="M529.46,46.27v66.34l-93.36,67.97c-5.2-36.29-19.51-72.88-48.73-96.23,4.21-13.93,14.32-25.31,26.08-33.5,9.74-6.79,23.99-12.57,33.31-1.93,13.48,15.41,9.03,56,40.66,34.13,9.85-6.81,20.46-16.91,29.36-25.1,4.21-3.88,8.14-8.23,12.69-11.68ZM424.93,85.68c-2.54.47-5.1,3.39-5.53,5.94-1.43,8.51,9.26,12.85,14.23,6.04,4.71-6.44-1.34-13.34-8.71-11.98Z" fill="#c1e7f4"/>
  <path d="M67.15,283.36c.14,2.35.4,4.66.82,6.96-19.72,5.86-51.26,18.21-42.88,44.72,2.95,9.33,10.61,14.01,18.71,18.55,6.72,3.77,22.17,8.12,16.06,18.5-3.64,6.18-30.64,20.72-38.3,25.17-6.98,4.05-14.04,8.01-21.16,11.8v31.94c47.56-22.51,94.11-47.17,140.45-72.07-.38,1.42-.6,3.79-.82,5.32-34.52,18.12-69.11,36.17-104.55,52.49-11.64,5.36-23.53,10.15-35.08,15.69v9.62c36.09-13.33,71.69-27.91,106.74-43.74,10.76-4.86,21.32-10.16,32.06-15.03.68-.31,1.26-.69,2.06-.6.48,1.67,1.35,4.69,2.05,6.14-46.46,21.34-93.41,41.73-141.68,58.76l-1.23.82v139.02c9.18-2.54,18.67-4,28.11-5.27,11.85-1.59,23.83-2.74,35.77-3.34.21-.81-.33-.79-.69-1.15-1.16-1.18-2.66-2.24-3.83-3.55-10.63-11.84-17.06-31.53.96-40.01,11.6-5.46,25.84-5.48,38.36-4.02l-4.57-8.73c-11.4-24.96-6.15-58.65,15.21-76.65,17.88-15.06,42.33-21.79,65.52-21.08-1.49,3.55-3.03,7.1-4.5,10.65-22.5.23-50.77,9.23-63.23,29.11-11.1,17.7-11.26,40.06-1.54,58.39,1.81,3.4,7.56,10.41,7.41,13.82-.13,3-3.49,5.52-6.34,5.57-4.51.08-10.38-1.79-15.11-2.08-7.94-.48-17.52.1-25,2.88-9.09,3.37-9.3,8.21-5.94,16.6,1.86,4.64,5.19,8.7,8.8,12.08,3.81,3.57,14.56,9.17,7.19,14.95-3.17,2.48-13.08,1.89-17.41,2.25-17.12,1.41-37.23,2.66-53.86,6.33-1.72.38-3.88.77-5.31,1.65v23.55c24.63-6.78,49.69-12.15,74.85-16.67,38.31-6.88,77.68-11.69,116.59-14.04,1.25-.08,3.22-.3,4.3.41-3.49,3.01-6.2,6.54-4.5,11.47-1.6.44-3.86.69-5.53.81-12.83.97-25.67,1.61-38.49,2.87-49.36,4.85-98.98,13.69-147.03,25.36l-.18,21.73v.41h-.41v-258.79h.41c13.76-7.79,27.63-15.77,40.91-24.4,2.63-1.71,11.81-7.33,12.83-9.7.64-1.47.04-1.63-.96-2.51-3.89-3.45-14.52-7.34-19.83-10.88-13.51-8.99-20.89-23.61-14.84-39.84,7.03-18.85,30.68-27.71,48.63-32.24Z" fill="#fdfefe"/>
  <path d="M529.46,311.2v11.47c-14.31.91-28.95,5.32-42.04,10.98-20.21,8.73-41.48,24.1-53.37,42.86-17.81,28.1-21.97,62.91-2.62,91.49,2.52,3.72,10.12,11.57,11.25,14.96,3.21,9.69-8.1,10.21-14.26,12.4-10.45,3.72-29.68,13.26-30.8,25.71-.31,3.42,1.7,6.97-1.43,9.63-3.39,2.88-7.97-.86-11.46-2.07-14.31-4.98-31.05-6.57-46.08-5.31-.4-2.48-1.19-5.47-1.64-8.19l13.7-1.24c12.5.33,24.76,2.62,36.81,5.77,1.15-4.52,2.42-8.35,5.01-12.28,7.47-11.31,25.52-19.57,38.25-22.97.05-.45.01-.81-.21-1.23-.68-1.3-3.78-4.29-4.88-5.76-22.49-30.21-22.47-67.16-4.81-99.75,20.9-38.56,65.81-62.13,108.58-66.47Z" fill="#fdfefe"/>
  <path d="M114.65,0v.41c-10.38,10.88-18.63,26.05-17.62,41.58.24,3.67,2.64,10.72,1.79,13.63-.51,1.77-2.17,3.44-4.05,3.73-4.74.73-11.3-.33-16.35.03-10.79.77-39.04,7.63-41.06,20.36-2.44,15.37,21.27,16.42,14.59,33.02-3.11,7.74-23.62,23.14-30.88,28.9-6.78,5.39-13.77,10.54-20.66,15.78v37.47l74.53-45.86c-.28,2.31-.51,3.31,0,5.73-4.53,2.12-8.72,5.41-12.97,8.12-20.11,12.8-40.57,25.23-61.56,36.51v6.14l14.2-7.71c19.87-11.4,39.03-23.94,58.31-36.28,1.08-.69,2.38-1.78,3.65-1.88.31.82,1.83,5,2.05,5.32-11.13,8.05-22.94,15.29-34.68,22.44-14.3,8.71-28.81,17.07-43.53,25.06h-.41v-62.65h.41c10.17-7.77,20.69-15.8,30.31-24.36,3.33-2.97,13.97-12.43,14.95-16.17,1.29-4.93-4.59-7.61-7.59-10.45-3.94-3.73-6.67-6.59-7.98-12.09-3.66-15.39,8.72-24.22,21.39-28.97,12.26-4.59,25.9-7.27,39-6.25-4-14.44-.65-28.48,6.48-41.22,1.85-3.31,4.43-6.32,6.21-9.55.13-.24.44-.44.41-.82h11.06Z" fill="#fdfefe"/>
  <path d="M529.46,119.98v20.06l-91.31,68.79c-.2-7.52-.8-15.05-1.64-22.52l92.95-66.34Z" fill="#c1e7f4"/>
  <path d="M529.46,618.32v12.28c-12.4-1.63-24.73-4.16-37.13-6.07-35.15-5.42-70.88-10.01-106.4-12.35-4.6-.3-11.42-1.08-15.76-.82,1.09-1.3,3.02-1.44,4.48-2.28,3.31-1.91,5.58-5.85,4.53-9.6,50.44,3.18,100.63,9.79,150.28,18.84Z" fill="#fdfefe"/>
  <path d="M303.42,0v.41c-22.83,17.21-45.57,34.58-68.42,51.76-16.16,12.16-32.84,25.61-49.38,37.02-.55.38-1.05.83-1.77.89.38-3.02.35-6.12,1.64-9.01L291.96.41h-24.77c-22.28,19.64-44.69,39.16-67.35,58.36-5.05,4.28-10.47,8.25-15.16,12.89-4.34,1.07-10.67,3.42-14.74,5.32,11.04-10.02,22.81-19.38,34.18-29.08,18.03-15.4,35.75-31.18,53.89-46.45l.38-1.04v-.41h45.04Z" fill="#fdfefe"/>
  <path d="M529.46,46.27c-4.55,3.45-8.47,7.79-12.69,11.68-8.9,8.19-19.51,18.29-29.36,25.1-31.63,21.87-27.18-18.72-40.66-34.13-9.31-10.64-23.57-4.86-33.31,1.93-11.76,8.19-21.87,19.57-26.08,33.5-1.71-1.36-3.88-2.78-5.73-4.09,4.59-12.54,12.81-23.2,23.15-31.52,9.69-7.8,20.54-14.2,33.51-12.24,17.88,2.7,21.08,20.82,26.57,34.85,2.21,5.65,3.19,11.94,10.65,9.63,8.05-2.49,28.39-21.82,35.52-28.36,6.22-5.71,12.15-11.76,18.42-17.41v11.06Z" fill="#fdfefe"/>
  <path d="M529.46,149.46l-91.31,68.79c-.03-3.13.08-6.29,0-9.42l91.31-68.79v9.42Z" fill="#fdfefe"/>
  <path d="M529.46,119.98l-92.95,66.34c-.2-1.82-.17-4.06-.41-5.73l93.36-67.97v7.37Z" fill="#fdfefe"/>
  <rect x=".41" y="661.31" width="529.05" height=".41" fill="#dff2f9"/>
  <path d="M103.6,0c.03.38-.28.58-.41.82L.41.41v149.46s-.41,0-.41,0V0h103.6Z" fill="#dff2f9"/>
  <rect x="303.42" width="226.03" height=".41" fill="#dff2f9"/>
  <rect y="212.52" width=".41" height="190.41" fill="#fdfcfc"/>
  <rect x="114.65" width="143.73" height=".41" fill="#dff2f9"/>
  <path d="M491.26,576.23c7.63-1.57,13.45,6.53,8.7,12.79-5.38,7.09-16.12,2.25-14.63-6.44.46-2.7,3.24-5.8,5.93-6.35Z" fill="#fdfefe"/>
  <path d="M478.57,379.28c3.3-.56,6.39.67,8.23,3.45,5.81,8.78-8.13,17.54-14.03,8.71-3.09-4.63.68-11.28,5.8-12.16Z" fill="#fdfefe"/>
  <path d="M495.36,490.65c9.19-1.91,10.33,12.04,1.12,11.39-6.74-.48-6.68-10.24-1.12-11.39Z" fill="#fdfefe"/>
  <path d="M451.95,434.14c7.57-1.56,8.75,8.7,3.49,10.04-8.24,2.11-9.31-8.84-3.49-10.04Z" fill="#fdfefe"/>
  <path d="M401.19,557.79c6.81-.78,7.68,10.63-.12,9.76-5.63-.62-5.5-9.12.12-9.76Z" fill="#fdfefe"/>
  <path d="M456.47,522.99c7.22-1.04,7.31,9.98.3,9.35-5.71-.52-5.87-8.54-.3-9.35Z" fill="#fdfefe"/>
  <path d="M475.3,236.37c11.97-2.01,17.3,12.19,8.02,18.26-8.54,5.59-19.06-3.74-14.54-12.9,1.16-2.35,3.87-4.91,6.52-5.36Z" fill="#fdfefe"/>
  <path d="M371.7,399.34c11.44-1.95,12.99,14.97,2.31,15.84-9.83.8-12-14.18-2.31-15.84Z" fill="#fdfefe"/>
  <path d="M459.32,292.86c4.05-1.23,4.78,5.25,1.04,5.57-3.29.28-4.1-4.64-1.04-5.57Z" fill="#fdfefe"/>
  <path d="M307.52,596.61c.42,3.15.2,9.83,1.23,12.28l-40.95-.41c.45-3.99-.76-8.25-.82-12.28l40.54.41Z" fill="#fdfefe"/>
  <path d="M306.18,22.21c5.75-.98,10.26,3.25,9.49,9.08-1.27,9.56-16.95,8.36-15.48-2.8.35-2.66,3.35-5.83,6-6.28Z" fill="#fdfefe"/>
  <path d="M476.93,32.85c12.01-2.47,12.65,15.75,1.19,14.61-8.24-.82-8.55-13.09-1.19-14.61Z" fill="#fdfefe"/>
  <path d="M362.69,35.32c9.28-1.52,10.03,13.34-.07,11.75-6.11-.97-6.35-10.7.07-11.75Z" fill="#fdfefe"/>
  <path d="M400.74,9.54c4.81-.27,3.31,7.52-1.24,5.15-2.69-1.4-1.59-4.99,1.24-5.15Z" fill="#fdfefe"/>
  <path d="M424.93,85.68c7.36-1.36,13.41,5.54,8.71,11.98-4.97,6.8-15.66,2.47-14.23-6.04.43-2.55,2.98-5.47,5.53-5.94Z" fill="#fdfefe"/>
  <path d="M170.75,444.29c-3,7.2-6.47,14.92-9.2,22.12-2.93,7.72-2.67,16.53-1.39,24.71,2.28,14.57,15.89,19.18,28.61,13.56,5.16-2.28,12.7-7.15,13.11-13.3,2.21.44,3.85,2.04,5.29,3.59,2.19,30.93,1.58,62.08,5.37,92.84l-.42.82c-5.4,2.73-10.32,6.19-14.95,10.04-.35.29-.92.3-1.02.39-1.07-.71-3.04-.48-4.3-.41-38.9,2.35-78.28,7.16-116.59,14.04-25.16,4.52-50.22,9.89-74.85,16.67v-23.55c1.42-.88,3.59-1.27,5.31-1.65,16.64-3.67,36.74-4.92,53.86-6.33,4.33-.36,14.24.24,17.41-2.25,7.37-5.77-3.38-11.38-7.19-14.95-3.61-3.38-6.94-7.44-8.8-12.08-3.36-8.39-3.15-13.23,5.94-16.6,7.48-2.78,17.06-3.36,25-2.88,4.73.29,10.61,2.16,15.11,2.08,2.85-.05,6.21-2.57,6.34-5.57.15-3.42-5.61-10.42-7.41-13.82-9.72-18.33-9.56-40.69,1.54-58.39,12.47-19.88,40.73-28.88,63.23-29.11ZM132.18,498.02c-8.86.88-7.95,15.32,1.1,14.66s8.46-15.61-1.1-14.66ZM139.11,569.68c-4.37.89-6.35,9.38-1.71,10.12,2.6.41,6.12-.85,7.24-3.36.4-.9,1.69-5.35,1.35-6.03-.59-1.2-5.55-1-6.88-.73Z" fill="#c1e7f4"/>
  <path d="M143.32,398.83c1.03,2.14,3.69,5.74,5.31,7.59,8.04,9.14,19.87,13.41,31.54,15.76-1.42,3.91-3.32,7.64-4.91,11.46-23.2-.71-47.64,6.02-65.52,21.08-21.37,18-26.61,51.69-15.21,76.65l4.57,8.73c-12.51-1.46-26.76-1.43-38.36,4.02-18.03,8.48-11.6,28.17-.96,40.01,1.17,1.3,2.66,2.37,3.83,3.55.35.36.9.34.69,1.15-11.94.6-23.92,1.74-35.77,3.34-9.44,1.27-18.93,2.72-28.11,5.27v-139.02l1.23-.82c48.27-17.03,95.22-37.42,141.68-58.76ZM55.6,481.63c-8.93,1.07-7.85,15.1,1.9,13.8,8.48-1.13,6.96-14.87-1.9-13.8ZM27.32,523c-7.68,1.42-5.95,14.37,3.09,12.91s6.25-14.63-3.09-12.91Z" fill="#c1e7f4"/>
  <path d="M78.62,165.02c3.76,5.7,7.82,10.85,13.96,14.91,3.09,2.05,7.87,3.8,10.5,5.85.34.26.75,0,.52.94-2.09-.07-3.99.82-6,1.17-9.46,1.66-19.07,1.02-28.6,2.12-2.16.44-1.31,2.53-1.67,3.64-.3.95-1.62,2.19-1.96,3.38-2.92,10.23,3.61,20.16,10.78,26.76,1.12,1.03,2.57,1.81,3.68,2.85-2.41,3.78-4.45,7.78-6.03,11.99-5.14,13.63-7.51,30.27-6.65,44.74-17.95,4.54-41.6,13.39-48.63,32.24-6.05,16.23,1.33,30.85,14.84,39.84,5.31,3.53,15.95,7.43,19.83,10.88,1,.89,1.6,1.04.96,2.51-1.03,2.37-10.21,8-12.83,9.7-13.28,8.63-27.15,16.61-40.91,24.4v-190.41c14.72-7.99,29.23-16.35,43.53-25.06,11.74-7.15,23.54-14.39,34.68-22.44ZM35.77,245.83c-5.93,5.35,1.23,14.58,7.84,9.68,6.75-5-1.73-15.2-7.84-9.68Z" fill="#c1e7f4"/>
  <path d="M67.97,290.32c3.7,20.43,18.31,39.61,35.41,50.79,12.59,8.24,26.91,13.85,41.58,17.19.4.41-3.69,9.13-4.1,10.64-46.34,24.9-92.89,49.55-140.45,72.07v-31.94c7.12-3.8,14.18-7.75,21.16-11.8,7.66-4.45,34.66-18.99,38.3-25.17,6.11-10.38-9.35-14.73-16.06-18.5-8.1-4.55-15.76-9.22-18.71-18.55-8.38-26.51,23.15-38.86,42.88-44.72ZM76.89,362.47c-5.9.86-4.87,10.15,1.07,9.73,6.64-.47,5.14-10.64-1.07-9.73Z" fill="#c1e7f4"/>
  <path d="M140.04,374.26c-.34,2.35-.41,3.74-.41,5.94v6.55c0,.31,1.4,5.1,1.64,5.94-.79-.09-1.38.3-2.06.6-10.74,4.87-21.31,10.17-32.06,15.03-35.05,15.83-70.66,30.41-106.74,43.74v-9.62c11.55-5.54,23.45-10.34,35.08-15.69,35.44-16.32,70.03-34.37,104.55-52.49Z" fill="#c1e7f4"/>
  <path d="M258.38.41l-.38,1.04c-18.14,15.28-35.85,31.06-53.89,46.45-11.37,9.7-23.14,19.07-34.18,29.08-4.6,2.16-8.29,4.68-11.06,9.01l-26.62,20.88c-4.3-4.48-9.31-10.8-13.72-14.74-3.65-3.26-6.26-1.35-8.57,2.07-5.08,7.5-5.76,24.14-3.51,32.73l-21.29,15.15c-2.49-1.05-4.98-1.99-7.37-3.28-1.31,3.54-2.4,6.43-2.87,10.24L.41,194.91v-37.47c6.9-5.24,13.88-10.4,20.66-15.78,7.26-5.76,27.77-21.17,30.88-28.9,6.68-16.59-17.03-17.65-14.59-33.02,2.02-12.73,30.27-19.59,41.06-20.36,5.05-.36,11.61.7,16.35-.03,1.88-.29,3.53-1.96,4.05-3.73.85-2.91-1.55-9.97-1.79-13.63-1.01-15.53,7.24-30.7,17.62-41.58h143.73ZM175.97,16.07c-9.63,1.63-8.08,15.96,1.89,15.44,11.28-.58,10.64-17.57-1.89-15.44ZM86.3,81.17c-8.9,1.4-7.75,15.7,2.31,14.6,9.54-1.05,7.75-16.18-2.31-14.6Z" fill="#c1e7f4"/>
  <path d="M103.19.82c-1.79,3.24-4.36,6.24-6.21,9.55-7.13,12.74-10.48,26.78-6.48,41.22-13.1-1.02-26.74,1.66-39,6.25-12.67,4.74-25.05,13.57-21.39,28.97,1.31,5.5,4.04,8.36,7.98,12.09,3,2.84,8.88,5.52,7.59,10.45-.98,3.74-11.61,13.2-14.95,16.17-9.62,8.56-20.14,16.59-30.31,24.36V.41s102.78.41,102.78.41ZM47.79,23.43c-3.46,1.04-2.1,7.23,2.19,5.88,3.6-1.14,2.16-7.18-2.19-5.88Z" fill="#c1e7f4"/>
  <path d="M74.93,154.78c.31,1.48,1.09,3.44,1.64,4.91-1.28.1-2.57,1.18-3.65,1.88-19.29,12.33-38.44,24.88-58.31,36.28l-14.2,7.71v-6.14c20.99-11.28,41.45-23.71,61.56-36.51,4.25-2.7,8.44-6,12.97-8.12Z" fill="#c1e7f4"/>
  <path d="M184.68,71.66c4.68-4.64,10.1-8.61,15.16-12.89,22.66-19.2,45.07-38.72,67.35-58.36h24.77l-106.46,80.67,1.64-9.83c-.86-.09-1.65.21-2.45.41Z" fill="#c1e7f4"/>
  <path d="M327.17,95.41c1.06.21,1.57.58,2.46.82,1.44,2,3.19,2.58,5.56,2.48.53-.02.93-.42.99-.43.48-.02,1.21-.08,1.64,0,2.5.44,7.48,4.02,9.83,4.5-1.11,2.26-2.04,5.46-.6,7.76s8.22,8.36,10.62,10.68c2.85,2.76,6.09,5.03,8.83,7.96,5.77,6.19,8.46,13.1,15.14,18.85.73.63,4.82,3.95,5.33,3.48.71-5.58,2.97-9.83,1.44-15.56-.84-3.16-8.53-14.48-10.85-17.2l13.1,6.14c.61.72,1.17,1.61,2.05,2.05l8.81,14.73c9.19,15.34,12.33,31.26,16.17,48.33-.88.01-1.12-.51-1.57-1.09-7.85-9.93-12.7-23.12-24.51-29.54l-25.73-14c-.79-.23-.72.37-.52.93.4,1.12,2.48,3.52,3.26,4.93,2.38,4.31,3.96,8.29,5.46,12.97.39,1.21.33,3.32.61,4.1-.91.36-.95,1.55-1.11,2.37-1.23,6.29-1.57,12.98-2.16,19.33-1.05.22-.84-.51-1.11-1.12-5.75-12.86-21.23-35.52-35.01-39.94-5.19-1.66-10.94-2-16.29-1.11l5.25,13.37c1.73,2.85,3.63,5.83,6.62,7.51.6,10.29,2.09,20.71,2.05,31.12-3.02-1.49-4.88-5.01-7.16-7.38-9.91-10.32-20.81-15.36-33.79-20.88l1.64-2.04c-2.41.54-4.99.62-7.37,1.22-2.48-1.23-5.83-2.1-8.59-2.68-12.78-2.69-21.35-2.88-33.46,2.19-5.21,2.18-14.26,6.1-18.84,9-.36.23-.91.38-.94.89,8.27-.38,15.13,4.18,22.11,7.78-20.69,14.28-45.29,33.91-60.36,54.09-6.7,8.97-13.1,19.48-16.21,30.27-.71.65-4.12-4.67-4.7-5.33-16.77-18.94-42.17-3.91-49.35,16.38-1.11.24-.78-.56-1.02-1.22-5.34-14.97-3.42-35.51-11.92-49.12-.66-1.05-1.48-1.92-2.22-2.9l2.45-1.63c-13.36-5.95-30.62-11.75-32.35-28.67.19,1.08,1.86,3.96,2.53,5.05,8.21,13.43,30.07,27.69,46.18,22.98l18.03-7.55c-4.98.52-8.91-2.3-12.49-5.33-8.43-7.14-13.67-8.72-23.41-13.44-1.72-.83-5.49-3.63-7.09-3.76v-.82c6.57-1.1,11.28-4.37,16.92-7.04,4.38-2.07,9.26-1.13,13.62-2.35.81-.23,1.45-.06,1.4-1.26,2.04.27,4.15-.34,6.16-.6l15.54-4.31c-7.37-.92-8.62-7.89-12.52-12.67-2.15-2.64-12.73-10.48-15.73-10.68v-.41c.87.06,7.26-3.1,8.19-4.09,2.45.53,6.05,1.43,8.44,1.59.61.04,1.14.34.97-.56-4.37-3.14-8.11-7.08-11.46-11.27,2.29,1.75,7.25,2.21,9.77,4.35l11.93,8.34c-1.35-3.24-3.56-6.22-4.48-9.65-.84-3.13-.55-5.76-.84-8.78,4.39.66,9.88,2.11,13.51-1.23.54.31,2.54.42,3.27,1.23.07-.94-.08-1.93,0-2.87l4.09-1.23c.11-1.09,0-.66-.61-.8-.93-.22-2.1-.33-3.07-.42.12-2.44-.06-4.93,0-7.37,4.76-.62,8.58-4.02,11.15-7.89.53-.8,2.26-3.66,2.36-4.39h.82c0,2,2.13,5.09,3.72,6.31.72.55,1.55.74,2.01,1.06,1.17.81.85,1.21,1.23,1.64-1.19-.23-.89.61-.78,1.39.61,4.3,5.96,7.99,10.04,8.4,7.33.73,26.52-10.67,34-14.23,27.06-12.88,56.63-24.05,87.18-23.01,4.36.15,11.64.42,15.75,1.25ZM364.64,144.96v.41c.27-.14.27-.27,0-.41ZM148.03,156.42v.41c.27-.14.27-.27,0-.41Z" fill="#c44160"/>
  <path d="M386.14,196.96l-2.04,22.11,4.7-2.46c.01.85.47,1.72.62,2.46.1.5.52,2.23.38,2.42-4.96,2.09-9.93,4.18-14.58,6.93-4.31,2.55-8.23,5.74-12.45,8.43-1.8,1.15-6.24,4.22-7.96,4.73-.76.23-.55-.12-.6-.6-.31-2.55.53-6.24-3.47-5.97-2.6.17-3.31,2.5-3.5,4.72-.75,8.43,2.48,12.67,11.07,9.23-8.5,6.09-8.24,27.77-5.22,36.55,3.52,10.25,13.74,20.11,25.16,14.71,14.1-6.66,13.68-32.38,7.23-44.24-3.27-6.02-10.8-12.6-18.16-11.53,5.4-3.99,11.28-7.22,16.19-11.86,1.82-1.72,3.79-4.64,5.52-5.95.41-.31.52-.8,1.23-.61.08,5.66.21,11.34.39,17.01.67,21.09,1.33,43.03.02,64.07l-.81,2.04c-1.65-7.26-14.97-3.87-15.55,2.3s7.8,7.45,12.27,5.48c-.09,11.1-2.13,21.94-7.3,31.81-2.77,5.28-6.89,9.73-9.08,15.28-23.75,21.7-71.12,18.72-101.35,17.2-19.82-.99-34.1-3.31-53.02-9.01.11-.83-.07-1.58-.29-2.37-3.71-13.81-8.66-27.27-9.95-41.65-2.92-32.62,4.78-61.16,21.22-88.92,8.35-14.1,18.26-24.78,28.72-37.2.84-1,2.03-2.26,2.47-3.47.49.09,1.16-.1,1.64,0,14.83,3.08,31.95,9.58,45.73,15.9,5.78,2.65,12.04,6.69,17.65,8.97,1.64.67,3.2,1.13,5.01.93.92.77,1.97,1.46,2.87,2.25.84.73,4.46,5.11,5.32,4.31.12-2.82,1.53-5.49,2.05-8.19,5.76-2.89,4.36-9.91,2.05-14.74.33-3.28.81-7.92.82-11.06,1.49.77,3.27,2.33,4.51,3.47,5,4.61,10.22,11.33,15.36,15.35,1.36,1.06,3.02,2.03,4.7,2.47,1.64,2.47,3.73,4.72,5.12,7.37.85.18.56-.35.79-.83.81-1.67,2.16-4.83,2.68-6.55,7.78-1.21,9.75-12.42,4.09-17.2.77-4.04.85-8.24,1.64-12.28l6.14,8.19ZM300.56,244.05c3.73,1.72,12.35,6.64,15.77,6.95,4.62.42,5.21-.92,3.29-4.92-1.71-3.55-7.4-6.44-10.86-8.39-9.11-5.12-19.86-10.03-29.82-13.18-8.45-2.68-20.3-7-27.52.09l4.13,3.24c6.99,3.67,15.21,4.71,22.8,7.09,3.78,1.18,7.54,2.59,11.15,4.2-12.75-2.68-26.73,6.21-29.69,18.83-3.77,16.05,2.31,34.47,20.17,37.57,24.94,4.34,37.85-25.95,25.98-44.81-1.61-2.56-4-4.1-5.4-6.68ZM247.22,286.73c-5.17,1.05-6,8-1.4,11.04,3.95,2.61,10.48,4.09,13.33-.76,4.26-7.27-5.79-11.53-11.92-10.29ZM262.13,301.44c-.69,3.99-2.53,7.65-3.22,11.72-2.56,14.97.62,35.3,12.78,45.56,11.7,9.86,34.79,12.19,49.51,10.59,25.09-2.73,50.35-19.16,48.81-47.07-11.39-2.25-23.22-3.19-34.78-4.94-21.42-3.26-42.87-7.18-63.63-13.35-1.76-.52-8.25-3.28-9.46-2.51Z" fill="#f8e6ba"/>
  <path d="M250.6,197.37c2.51.08,4.93.76,7.37,1.23-.44,1.21-1.62,2.47-2.47,3.47-10.47,12.43-20.38,23.11-28.72,37.2-16.44,27.76-24.14,56.31-21.22,88.92,1.29,14.38,6.23,27.85,9.95,41.65.21.79.4,1.54.29,2.37-13.68-4.12-26.14-8.67-38.9-15.15-1.26-6.35-3.69-12.41-5.29-18.66-2.24-8.78-3.89-17.94-4.53-27-.32-4.54.45-14.59-.41-18.22,6.29-12.92,11.5-26.29,19.9-38.04,16.64-23.27,40.4-42.06,64.04-57.78Z" fill="#f5dba1"/>
  <path d="M310.8,65.52c5.3,3.32,11.25,5.52,16.8,8.39,20.39,10.54,40.89,24,55.89,41.57,2.56,2.99,4.71,6.51,7.16,9.42l-13.1-6.14c-2.06-2.42-10.11-7.52-13.1-9.01.2-.91-.5-.87-1.01-1.22-2.5-1.72-8.8-6.4-11.5-6.58-1.09-.07-1.54.33-2.23.43-.62.08-1.44.54-2.05.41-2.35-.48-7.32-4.07-9.83-4.5,2.61-3.87,3.14-6.97-1.36-9.49-2.92-1.63-7.12-2.99-10.08-.92-3.55,2.49-.76,4.89.79,7.55-4.1-.82-11.39-1.1-15.75-1.25-30.55-1.04-60.12,10.12-87.18,23.01-7.48,3.56-26.67,14.96-34,14.23-4.08-.41-9.43-4.09-10.04-8.4-.11-.77-.4-1.62.78-1.39,1.07,1.23,2.21,3.18,3.09,4.07.34.34.38.58.99.43.03-.49.27-.89.6-1.23,34.42-36.2,73.28-60.86,125.12-59.37Z" fill="#b2414f"/>
  <path d="M249.78,416.44c2.19.32,5.11.23,7.37.41-.95,4.56-.71,10.34-1.84,14.76-.53,2.1-3.62,3.01-5.12,4.69-2.88,3.23-3.05,7.29-.59,10.82,5.29,7.61,17.77.94,15.46-7.68-.6-2.23-2.87-2.61-2.97-5.23l1.64-16.11c.38-.32,8.72,1.18,9.8,1.6-1.32,5.25-1.05,10.82-1.64,16.17-2.02,18.38-6.17,36.44-9,54.67.95.22,1.32-1.12,1.7-1.77,5.25-9.05,8.7-18.6,10.58-28.94l-4.1,39.72c-17.42-1.71-35.6-3.84-52.25-9.4-.65-.22-.92-.82-.98-.84,3.77-8.03,6.95-16.34,10.57-24.44,7.2-16.11,15.84-31.64,21.36-48.45Z" fill="#b4cdbb"/>
  <path d="M166.66,293.19c.86,3.63.09,13.68.41,18.22.64,9.06,2.29,18.22,4.53,27,1.6,6.25,4.04,12.31,5.29,18.66-8.21-4.17-18.07-9.58-25.76-14.57-3.33-2.17-6.54-4.62-9.44-7.34l11.16-2.76,6.85-3.58c-7.26.33-14.36,2.07-21.47-.03-20.94-6.17-19.64-35.92-9.4-50.72,6.07-8.77,16.98-13.28,27.07-8.31,9.31,4.59,6.79,11.77,8.91,19.75.35,1.31,1.73,3.11,1.86,3.67ZM149.87,313.66l-7.56-11.48c-1.17-9.02,6.88,2.46,7.76,2.46,2.41-1.42,1.4-3.88,2.34-5.84.45-.94,1.41-1.37,1.97-2.53,2.46-5.06-.89-14.99-6.16-17.22-2.47-1.05-7.07-1.5-8.5,1.33-1.81,3.59,2.04,2.68,4.1,3.07,4.58.87,5.02,6.69,5.21,10.55-1.61-.6-2.65-1.89-4.48-2.27-4.52-.94-10.13,1.66-10.67,6.57-.43,3.94,2.13,11.92,5.6,14.06.52.32,2.8,1.3,3.21,1.3h7.17Z" fill="#f1d28d"/>
  <path d="M113.02,311.2c2.06,4,2.31,7.71,5.56,11.84,1.56,1.98,3.93,3.62,5.48,5.57,4.74,5.96,8.46,10.8,14.34,15.96.89.78,2,1.23,2.86,2.04-.35.31-.62.83-1.1.96-.98.26-11.41-3.9-13.21-4.66-30.2-12.67-52.65-36.59-50.81-71.25.52-9.75,3.3-22.85,7.39-31.72,6.3,4.48,8.77,11.68,10.85,18.84,3.99,13.71,5.77,26.92,11.73,40.27,1.94,4.35,4.83,8.12,6.9,12.14Z" fill="#a13e41"/>
  <path d="M417.67,190c.37,1.63.8,3.29,1.23,4.91.05.18.24.33.41.41.03.12,0,.27,0,.41.8,14.13,3.01,28.42,2.05,42.59-7.47-15.14-14.88-29.77-25.81-42.78-6.81-8.11-17.19-17.2-20.87-27.24-.28-.78-.23-2.88-.61-4.1-1.5-4.68-3.08-8.66-5.46-12.97-.78-1.41-2.86-3.81-3.26-4.93-.2-.56-.27-1.16.52-.93l25.73,14c11.81,6.43,16.66,19.61,24.51,29.54.46.58.7,1.1,1.57,1.09Z" fill="#b2414f"/>
  <path d="M367.3,244.46c7.35-1.08,14.89,5.51,18.16,11.53,6.45,11.85,6.87,37.58-7.23,44.24-11.43,5.39-21.64-4.46-25.16-14.71-3.01-8.78-3.28-30.46,5.22-36.55.93-.67,8.14-4.38,9.01-4.5ZM366.38,256.42c-1.54.15-2.96,1.67-3.49,3.07-1.26,3.35-.58,7.94-.48,11.36.12,3.99-.78,15.34,5.44,15.24,6.61-.1,3.87-11.28,3.56-15.22-.26-3.29-.03-8.69-1.1-11.6-.58-1.57-2.15-3.03-3.93-2.85Z" fill="#fdfcfc"/>
  <path d="M227.67,563.04c-1.6-.23-7.51-.07-8.5-.92l-.41-1.01-3.79-63.18c18.54,6.27,38.04,8.76,57.5,10.6l-.17,11.51c-.48-.04-.88.22-1.26-.26-.61-.78-1.3-2.51-2.09-3.56-1.52-2.01-2.7-3.61-5.05-4.78l.21,2.04-25.62-.43-1.22.42-2.24,49.15c-2.16.25-4.28-.65-6.36-.82-1.34-.11-1.02.08-1.01,1.22Z" fill="#567fab"/>
  <path d="M412.35,131.85c-6.82-.6-13.2-2.85-19.66-4.91-.87-.43-1.44-1.33-2.05-2.05-2.45-2.92-4.6-6.43-7.16-9.42-15-17.56-35.5-31.02-55.89-41.57-5.55-2.87-11.5-5.07-16.8-8.39,43.56,1.26,83.58,26.66,101.55,66.34Z" fill="#df4663"/>
  <path d="M307.52,447.56c-2.92,16.67-4.43,33.57-6.55,50.37-4.75.68-9.52,1.48-14.33,1.64,1.42-22.31,1.88-44.56,1.66-66.97l-.85-12.2,12.59-4.31.73.35c1.12,4.6,5.87,13.27,5.03,17.72-.26,1.37-1.32,2.91-1.5,4.64-.38,3.8,1.27,5.82,3.23,8.76Z" fill="#a1bfa9"/>
  <path d="M264.11,513.49c.65.16,7.49,9.64,6.14,11.47-1.01-1.91-3.72-.36-4.73.8s-2.5,5.27-3.24,6.99c-4.76,11.1-7.52,22.91-9.64,34.79-3.67-.69-7.39-1.41-11.06-2.05l-6.13-2.69-.83,1.46c-2.27-.38-4.77-.91-6.96-1.23-.02-1.14-.33-1.33,1.01-1.22,2.08.17,4.2,1.07,6.36.82l2.24-49.15,1.22-.42,25.62.43Z" fill="#6a95bf"/>
  <path d="M249.78,416.44c-5.53,16.81-14.17,32.34-21.36,48.45-3.62,8.1-6.8,16.41-10.57,24.44-.33-.11-1.01.02-1.62-.2-2.83-1-8.46-2.69-10.79-3.97-.38-.2-.75-.32-.63-.87l27.41-71.09c.7-.18,1.41-.02,2.1.08,5.16.68,10.34,2.41,15.47,3.16Z" fill="#a1bfa9"/>
  <path d="M307.52,596.61l-40.54-.41c-.14-9.55,2.39-21.72,3.64-31.37,1.09-8.41,1.45-18.95,3.7-27.01.15-.53.05-1.04.64-1.4,10.57,19,19.62,38.89,32.05,56.8.67,1.08.36,2.3.51,3.38Z" fill="#c1e7f4"/>
  <path d="M100.73,230.13c.74.98,1.56,1.85,2.22,2.9,8.5,13.61,6.58,34.15,11.92,49.12.23.65-.09,1.45,1.02,1.22-1.54,4.36-3.01,11.97-3.27,16.59-.21,3.77.7,7.48.41,11.26-2.07-4.02-4.96-7.78-6.9-12.14-5.96-13.35-7.74-26.56-11.73-40.27-2.08-7.16-4.55-14.35-10.85-18.84.65-1.42,4.45-8.8,5.33-9.23,4.1.39,7.84.28,11.87-.6Z" fill="#b2414f"/>
  <path d="M94.59,197.78c1.6.13,5.37,2.93,7.09,3.76,9.75,4.72,14.99,6.3,23.41,13.44,3.58,3.03,7.51,5.85,12.49,5.33l-18.03,7.55c-16.11,4.7-37.97-9.55-46.18-22.98-.66-1.09-2.34-3.97-2.53-5.05-.1-.55,0-1.42,0-2.05,4.19,1.49,7.58,2.29,12.1,2.07,3.39-.17,9.18-2.27,11.65-2.07Z" fill="#b2414f"/>
  <path d="M321.03,503.66c.65,19.05,3.05,38.14,6.14,56.92-4.09,1.31-8.17,2.8-12.28,4.09l-19.66-54.25,14.34-4.72c3.57-.59,8.03-1.17,11.47-2.05Z" fill="#6a95bf"/>
  <path d="M172.39,382.86c.18,2.54,2.25,5.07,3.89,6.97,2.49,2.89,6.26,6.08,9.63,7.78.21,1.59,3.37,3.4,3.28,5.08-.04.78-4.81,10.02-5.33,10.28-2.59,1.25-13.2-2.25-16.12-3.54-15.52-6.87-21.57-19.8-18.51-36.41.58-3.15,3.03-10.5,5.52-12.5,3.67-2.95,5.06,5.54,6.1,7.88,2.55,5.72,6.84,10.42,11.54,14.47Z" fill="#448666"/>
  <path d="M119.98,158.06c3,.2,13.58,8.04,15.73,10.68,3.9,4.77,5.15,11.74,12.52,12.67l-15.54,4.31c-2,.26-4.12.87-6.16.6-3.53-.48-8.47-4.39-11.79-6.02-15.94-7.83-24.4-8.2-30.8-27.14,1.89-.31,3.22,1.11,4.7,1.65,7.99,2.93,17.73,4.39,26.24,4.1,1.35-.05,4.12-.9,5.1-.84Z" fill="#b2414f"/>
  <path d="M309.57,505.71l-14.34,4.72,19.66,54.25c-4.07,1.28-8.14,2.66-12.19,4.03l-1.15-.31-19.09-35.79c-3.58-6.52,1.96-10.48,5.32-15.3,2.14-3.07,4.07-6.28,6.23-9.33,5.13-1.08,10.38-1.42,15.55-2.27Z" fill="#567fab"/>
  <path d="M210.47,408.66c-2.13,9.58-6.83,18.41-11.11,27.18-5.75,11.79-12.6,23.12-17.15,35.47-3.71-.8-7.58-.99-11.28-2.04-.49-.14-.73.28-.54-.57l26.02-63.69c1.36-.42,11.8,3.12,14.06,3.64Z" fill="#a1bfa9"/>
  <path d="M330.86,168.71c-2.99-1.67-4.89-4.65-6.62-7.51l-5.25-13.37c5.35-.89,11.1-.55,16.29,1.11,13.79,4.42,29.26,27.08,35.01,39.94.27.61.06,1.34,1.11,1.12-.55,5.86-1.08,11.73-1.43,17.61-8.15-14.06-17.33-27.27-30.54-37.02-1.52-1.12-6.5-4.72-7.96-5.14-1-.29-.64,2.56-.6,3.26Z" fill="#b2414f"/>
  <path d="M291.96,171.57c12.98,5.52,23.88,10.56,33.79,20.88,2.28,2.37,4.14,5.88,7.16,7.38,0,.59-.42,1.4-.42,2.23-.01,6.76.04,13.53.01,20.29h-1.21c-1.47-4.33-4.75-9.02-7.78-12.5-13.16-15.11-33.69-24.04-53.65-24.77-.16-.73.21-.81.68-1.16,6.01-4.53,15.01-8.11,21.43-12.35Z" fill="#b2414f"/>
  <path d="M412.35,131.85c12.1,26.7,16.84,54.61,16.79,83.94l-9.83-20.06c0-.14.03-.29,0-.41-.04-.19-.22-.35-.41-.41-.43-1.62-.86-3.28-1.23-4.91-3.84-17.06-6.97-32.99-16.17-48.33l-8.81-14.73c6.45,2.07,12.84,4.31,19.66,4.91Z" fill="#e54a7b"/>
  <path d="M318.58,445.92c1.54,13.26,2.01,26.59,2.86,39.92-3.1,4.46-8.23,7.28-12.27,10.86-2.71.52-5.46.84-8.19,1.23,2.12-16.79,3.64-33.69,6.55-50.37,3.23,1.96,8.54,1.05,11.06-1.64Z" fill="#b4cdbb"/>
  <path d="M221.94,411.12c.07,1.4-.64,2.71-1.16,3.96-2.6,6.3-5.73,12.59-8.72,18.72-6.56,13.44-13.67,26.68-21.24,39.56-2.88-.63-5.75-1.43-8.6-2.05,4.55-12.35,11.4-23.68,17.15-35.47,4.28-8.78,8.98-17.6,11.11-27.18,3.73.87,7.71,1.74,11.47,2.46Z" fill="#b4cdbb"/>
  <path d="M312.02,410.3c.81-.44,2.7-3.18,3.61-1.36,4.99,17.15,10.58,34.04,13.87,51.65,1.48,7.91,4.09,20.41,4.23,28.13,0,.55-.16,1.07-.38,1.56-7.86,2.47-16.03,4.86-24.19,6.41,4.04-3.58,9.17-6.4,12.27-10.86-.85-13.32-1.31-26.66-2.86-39.92,3.41-3.65,3.72-12.43-2.05-13.92l-4.5-21.7Z" fill="#d9e2d9"/>
  <path d="M271.49,407.84c-1.12.06-2.19.02-3.3-.18-16.09-3.02-37.41-10.72-52.26-17.76-4.84-2.3-2.92-3.86-1.77-8.26,10.99,3.06,21.72,5.24,33.02,6.9,4.13.61,13.58.78,16.81,2.43,4.31,2.2,6.92,12.41,7.49,16.87Z" fill="#509a79"/>
  <path d="M286.23,170.75c-14.08,3.6-27.8,8.97-39.72,17.2-6.98-3.61-13.85-8.16-22.11-7.78.03-.51.58-.67.94-.89,4.59-2.9,13.63-6.82,18.84-9,12.11-5.07,20.68-4.89,33.46-2.19,2.75.58,6.1,1.45,8.59,2.68Z" fill="#b2414f"/>
  <path d="M214.16,381.64c-1.14,4.4-3.07,5.96,1.77,8.26,14.84,7.04,36.16,14.74,52.26,17.76,1.11.21,2.18.24,3.3.18.05.4.63,1,.41,1.64-.4.39-9-.68-10.38-.88-17.22-2.39-38.77-6.5-55.62-10.72-1.84-.46-9.7-2.6-10.37-3.96-1.09-2.21,2.95-13.68,4.36-16.32.97-.61,12.2,3.46,14.27,4.03Z" fill="#448666"/>
  <path d="M401.7,220.3c5.94,10.36,11.16,21.11,14.77,32.55l-15.18,32.96c-.78-.07-.79-1.63-.83-2.23-.71-10.96.29-22.91.04-34.02-.19-8.08-1.59-17.69-1.25-25.58.09-2.1-.47-3.9,2.46-3.69Z" fill="#b2414f"/>
  <path d="M258.38,593.33l.86,12.5c.24,2.9-6.19,3.53-8.48,3.84-6.2.83-12.56.4-18.76,1.23-1.27-2.57-1.89-5.55-3.22-8.23-2.53-5.09-5.88-8.22-10.91-10.81.56-2.21,2.46-3.34,4.68-3.44,11.77,2.62,23.69,5.23,35.83,4.91Z" fill="#e05442"/>
  <path d="M266.98,192.05c5.94-.58,16.54,2.78,22.21,5.02,14.15,5.59,27.16,17.61,38.8,27.33-1.8.2-3.37-.26-5.01-.93-5.61-2.28-11.87-6.32-17.65-8.97-13.78-6.32-30.9-12.82-45.73-15.9.23-3.49,4.09-6.23,7.37-6.55Z" fill="#f5dba1"/>
  <path d="M355.43,463.53c-1.07.63-2.19,1.78-3.53,2.41-3.98,1.85-8.06,2.41-12.44,2.09-3.3-22.06-9.53-43.59-17.1-64.51.08-.54,2.23-1.42,2.77-1.83,6.95,22.01,18.83,41.98,30.3,61.83Z" fill="#a1bfa9"/>
  <path d="M115.47,106.46c1.79,3.42,2.99,7.12,4.84,10.51,4.82,8.84,12.48,16.48,22.13,19.86.16.2.03.52.06.75.29,3.02,0,5.65.84,8.78.92,3.43,3.13,6.41,4.48,9.65l-11.93-8.34c-2.52-2.15-7.48-2.6-9.77-4.35-2.08-1.59-8.45-12.7-9.62-15.56-3.29-8.04-2.36-13.11-1.02-21.29Z" fill="#b2414f"/>
  <path d="M350.51,587.61c.21,1.53-1.39,2.18-2.21,3.3-2.93,4.03-5.14,8.4-5.58,13.46-6.38-.25-13.09.41-19.43.02-1.21-.07-3.79-.27-4.83-.49-1.39-.3-1.71-1.36-1.89-2.61-.26-1.82-.36-4.92-.47-6.9-.05-.89-.2-3.73.4-4.14l26.03-3.86c2.83-.31,5.34.35,7.98,1.23Z" fill="#e05442"/>
  <path d="M321.03,503.66c.89-.23,6.03-2.62,6.55-2.05l7.13,56.96c-2.34.87-5.25,1.27-7.54,2-3.1-18.78-5.49-37.87-6.14-56.92Z" fill="#8dc1de"/>
  <path d="M115.47,106.46c.38-2.31.41-4.69,1.02-6.96,6.3,8.78,13.63,17.1,22.6,23.26,3.22,2.21,8.82,4.44,11.4,6.62,1.78,1.51,2.79,5.39,5.52,6.97-3.63,3.34-9.13,1.88-13.51,1.23-.02-.23.11-.55-.06-.75-9.64-3.38-17.3-11.02-22.13-19.86-1.85-3.4-3.06-7.09-4.84-10.51Z" fill="#e0476a"/>
  <path d="M325.13,401.7c.38-.28,2.18-2.55,2.86-2.05,7.79,21.24,22.62,38.75,33.68,58.25l.24,1.87c-2.17,1.22-4.33,2.5-6.48,3.76-11.47-19.85-23.35-39.82-30.3-61.83Z" fill="#d9e2d9"/>
  <path d="M244.87,572.45c.99,1.16,5.69,2.01,6.08,3.14l-.34,9.56c-10.1-.73-20.14-2.5-30.3-2.45l-.81-15.15c8.48,1.53,16.94,3.24,25.39,4.91Z" fill="#8dc1de"/>
  <path d="M175.67,80.67c-2.56,5.97-4.51,15.85-4.09,22.31.16,2.51,1.88,7.83,1.63,9.63-.1.73-1.83,3.59-2.36,4.39-2.57,3.87-6.39,7.27-11.15,7.89.3-12.34-.23-21.14,5.93-32.36,2.37-4.32,5.87-9.22,10.04-11.87Z" fill="#b2414f"/>
  <path d="M221.94,411.12c1.35.26,3.11.33,4.5.41l-28.25,63.27c-1.22.75-5.82-1.1-7.37-1.44,7.57-12.88,14.68-26.12,21.24-39.56,2.99-6.13,6.12-12.42,8.72-18.72.52-1.25,1.23-2.56,1.16-3.96Z" fill="#d9e2d9"/>
  <path d="M429.14,215.8c0,3.5-.41,7.13-.43,10.42-.04,10.17.07,20.36.02,30.53l-1.26-.25-6.11-18.18c.96-14.16-1.25-28.46-2.05-42.59l9.83,20.06Z" fill="#df4663"/>
  <path d="M275.17,459.85c-1.88,10.33-5.33,19.89-10.58,28.94-.38.65-.75,2-1.7,1.77,2.83-18.23,6.99-36.28,9-54.67.59-5.35.32-10.92,1.64-16.17,1.13.45,2.02.76,2.07,2.23-1.14,11.73,1.63,26.57-.43,37.9Z" fill="#d9e2d9"/>
  <path d="M252.65,567.54c2.12-11.88,4.87-23.69,9.64-34.79.74-1.72,2.19-5.79,3.24-6.99s3.72-2.71,4.73-.8c-4.86,14.27-6.52,29.39-9.03,44.2-.66.63-7.36-1.39-8.58-1.62Z" fill="#8dc1de"/>
  <path d="M318.58,390.64c.95,1.17-1.25,3.96-2.05,4.91-2.73,3.3-18.96,10.97-23.75,13.1-1.92-4.48-4.53-10.51-9.83-11.47,2.35-2.06,3.9-2.98,6.55-4.5,4.83,1.46,10.07,2.83,15.06,3.57,1.49.22,4.27.8,5.62.53s3.36-4.64,3.48-6.14c1.63-.07,3.28.06,4.91,0Z" fill="#509a79"/>
  <path d="M185.9,481.96c-3.09,5.13-5.43,10.58-6.96,16.38-13.34,1.37-11.48-12.4-10.24-21.3l17.2,4.92Z" fill="#f5dba1"/>
  <path d="M283.36,420.12v35.85c0,.97-.4,1.86-.43,2.83-.36,13.57-.65,27.24-2.07,40.72l-3.64.05c.11-6.64,1.43-13.25,2.05-19.86,1.86-19.81,2.64-39.81,0-59.58h4.1Z" fill="#f1d28d"/>
  <path d="M365.67,218.25c-1.68-.44-3.34-1.4-4.7-2.47-5.14-4.02-10.36-10.74-15.36-15.35-1.24-1.14-3.02-2.71-4.51-3.47,0-.2-.4-.83-.41-1.41-.06-4.47-.58-8.88-.21-13.33,11.18,9.88,17.11,23.84,25.19,36.03Z" fill="#f5dba1"/>
  <path d="M327.99,568.77l1.23,10.65c-6.15,1.04-12.29,3.01-18.55,3.28l-4.77-7.61c-.22-.75,2.09-1.09,2.76-1.29,6.34-1.97,13.04-3.2,19.33-5.03Z" fill="#8dc1de"/>
  <path d="M355.84,472.54l6.14,11.47c-.55.58-.89,1.32-1.66,1.82-3.8,2.48-10.6.36-14.32-1.61-4.55-2.41-5.52-4.81-5.32-10.04,2.46-.15,5.14.22,7.57,0,1.51-.14,6.21-1.13,7.58-1.63Z" fill="#f5dba1"/>
  <path d="M175.26,366.89c6.01,2.82,12.32,5.18,18.43,7.79.23.31-2.92,6.64-3.25,7.07-.8,1.03-2.59.33-3.72.09-6.82-1.45-10.1-4-14.73-8.81.99-1.54,1.43-3.36,2.16-5.02.27-.61.06-1.34,1.11-1.12Z" fill="#509a79"/>
  <path d="M386.55,316.94c-4.47,1.98-12.85.78-12.27-5.48s13.89-9.56,15.55-2.3l.81-2.04c-.12,1.92-.26,3.81-.41,5.73-.25,1.23-2.63,3.63-3.69,4.09Z" fill="#f6abac"/>
  <path d="M158.88,85.99c-1.85,2.9-3.8,9.25-5.32,11.06-2.35,2.8-12.13,9.88-15.6,12.45-.62.46-1.21.96-2.01,1.06-1.21-1.24-2.47-2.42-3.69-3.69l26.62-20.88Z" fill="#fdfcfc"/>
  <path d="M114.65,153.96c-.23,1.02.56.82,1.08,1.15.86.55,3.51,2.48,4.25,2.53v.41c-.98-.06-3.75.79-5.1.84-8.51.29-18.24-1.17-26.24-4.1-1.48-.54-2.81-1.96-4.7-1.65-.43-1.26-1.9-3.27-1.44-4.91,4.28,2.25,8.88,3.88,13.65,4.78,5.76,1.08,12.71,1.58,18.5.95Z" fill="#df4663"/>
  <path d="M185.9,481.96l9.42,1.23c-.74,7.39-9.28,14.42-16.38,15.15,1.53-5.8,3.87-11.25,6.96-16.38Z" fill="#f4ecdb"/>
  <path d="M370.17,364.03c2.19-5.56,6.31-10.01,9.08-15.28,5.17-9.87,7.21-20.71,7.3-31.81,1.06-.47,3.44-2.87,3.69-4.09-1.7,21.35-3.61,36.15-20.06,51.19Z" fill="#f4ecdb"/>
  <path d="M282.95,397.2c5.29.96,7.91,6.98,9.83,11.47-3.65,1.63-7.25,2.75-11.42,2.41-.54-3.85-3.4-7.77-1.04-11.4.73-1.13,1.89-1.83,2.64-2.48Z" fill="#448666"/>
  <path d="M106.46,126.94c.37,1.42,1.06,3.6,1.64,4.91l-17.61,12.28c-2.04-.7-3.37-1.22-5.32-2.05l21.29-15.15Z" fill="#fdfcfc"/>
  <path d="M368.12,601.94l-17.61-1.64c.67-1.46,1.06-2.97,2.05-4.3.83-1.13,4.55-4.79,5.9-4.72.96.05,10.22,6.77,11.06,7.81,2.2,2.7-.35,2.42-1.41,2.84Z" fill="#fdfcfc"/>
  <path d="M222.76,605.62c.87,1.54,1.81,3.07,2.05,4.91-2.2.73-25.01-2.45-24.97-3.89,1.93-1.83,4.09-3.42,6.13-5.12,2.77,1.83,6.96,3.29,10.21,3.91,1.81.35,4.93.93,6.57.18Z" fill="#d9e2d9"/>
  <path d="M151.51,106.46l-11.47,8.19c-1.41-1.36-2.68-2.64-4.09-4.09.8-.1,1.39-.61,2.01-1.06,3.47-2.57,13.25-9.65,15.6-12.45-.83,2.59-1.03,5.16-1.41,7.82-.09.64-.61,1.36-.64,1.6Z" fill="#c1e7f4"/>
  <path d="M329.22,579.41l-1.23-10.65c.16-.05.73-.64,1.41-.83.99-.29,6.44-2.13,6.8-1.85l1.86,12.13c-.48.65-7.45.97-8.83,1.2Z" fill="#d9e2d9"/>
  <path d="M244.87,572.45c5.16,1.02,10.33,2.11,15.54,2.88l-.8,10.22c-3.01.11-6.02-.19-9.01-.41l.34-9.56c-.39-1.12-5.09-1.98-6.08-3.14Z" fill="#d9e2d9"/>
  <path d="M313.66,390.64c-.12,1.5-2.18,5.89-3.48,6.14s-4.12-.31-5.62-.53c-5-.74-10.24-2.11-15.06-3.57,1.04-.6.74-1.38,3.07-1.64,6.17-.69,14.48-.13,21.09-.41Z" fill="#448666"/>
  <path d="M175.67,80.67c.26-.6.59-2.13,1.64-1.43-1.8,8.68-2.56,19.67-1.23,28.45-.77,1.21-2.05,3.55-2.05,4.91h-.82c.25-1.8-1.47-7.12-1.63-9.63-.42-6.46,1.53-16.34,4.09-22.31Z" fill="#df4663"/>
  <path d="M108.1,131.85c.57,1.3,1.71,3.2,2.46,4.5-.83-.11-1.31.32-1.94.72-3.19,2.01-7.9,5.28-10.82,7.62-.62.49-1,.32-.75,1.49-2.43-.55-4.25-1.26-6.55-2.05l17.61-12.28Z" fill="#c1e7f4"/>
  <path d="M110.56,136.36c.91,1.58,2.29,3.85,3.28,5.32-2.83,1.73-5.79,3.43-8.19,5.73-3.15-.27-5.47-.52-8.6-1.23-.25-1.17.14-1,.75-1.49,2.92-2.34,7.63-5.61,10.82-7.62.63-.4,1.11-.83,1.94-.72Z" fill="#fdfcfc"/>
  <path d="M222.76,605.62c-1.64.74-4.76.16-6.57-.18-3.26-.62-7.45-2.08-10.21-3.91,2.36-1.96,4.8-5.62,8.31-4.83,2.77.62,7.08,6.45,8.48,8.92Z" fill="#fdfcfc"/>
  <path d="M185.9,397.61c-3.37-1.7-7.13-4.89-9.63-7.78-1.63-1.89-3.7-4.42-3.89-6.97,1.92,1.03,13.52,5.96,14.13,6.96.95,1.57-.88,5.76-.62,7.79Z" fill="#509a79"/>
  <path d="M389.42,219.07c-.15-.74-.61-1.61-.62-2.46l-4.7,2.46,2.04-22.11,4.83,6.41c-2.65,5.08-1.86,10.23-1.55,15.7Z" fill="#f4ecdb"/>
  <path d="M355.84,472.54c.82-.3,6.07-3.72,6.55-3.28,1.78,6.15,4.76,9.32-.41,14.74l-6.14-11.47Z" fill="#f8e6ba"/>
  <path d="M151.1,115.06l-5.73,4.09c-2.65-1.94-3.07-2.33-5.32-4.5l11.47-8.19c-.3,2.52-.21,5.87-.41,8.6Z" fill="#fdfcfc"/>
  <path d="M312.02,410.3l4.5,21.7c-.8-.21-1.77.39-2.67-.4s-2.78-6.67-3.47-8.2l-.41-12.28c.69-.37,1.55-.55,2.05-.82Z" fill="#b4cdbb"/>
  <path d="M374.26,218.25c1.44-4.74,3.16-12.28,4.09-17.2,5.66,4.78,3.68,15.99-4.09,17.2Z" fill="#f5dba1"/>
  <path d="M289.09,508.17l-8.6,17.4-1.23.61c.04-1.39-.13-2.81.1-4.2.2-1.29,3.65-11.59,4.23-12.55,1.23-2.02,3.48-1.08,5.49-1.26Z" fill="#567fab"/>
  <path d="M368.12,601.94c-.21.08-.5.53-1.11.72-5.86,1.88-12.41,2.48-18.55,2.56-.41-.37,1.74-4.24,2.05-4.91l17.61,1.64Z" fill="#d9e2d9"/>
  <path d="M94.59,196.96v.82c-2.47-.2-8.26,1.9-11.65,2.07-4.52.22-7.91-.58-12.1-2.07,0-.68,0-1.37,0-2.05l19.04,1.67c1.47-.21,3.31-.2,4.71-.44Z" fill="#df4663"/>
  <path d="M266.98,192.05c-3.28.32-7.14,3.06-7.37,6.55-.48-.1-1.15.09-1.64,0-2.44-.46-4.86-1.15-7.37-1.23,3.81-4.85,10.36-6.89,16.38-5.32Z" fill="#f1d28d"/>
  <path d="M175.26,366.89c-1.05-.22-.84.51-1.11,1.12-.73,1.66-1.18,3.48-2.16,5.02-.15-.16-.79-.19-1.09-.53-2.62-2.9-4.97-7.09-5.86-10.94,3.53,1.52,6.77,3.7,10.23,5.32Z" fill="#448666"/>
  <path d="M105.65,147.41c2.4-2.31,5.36-4,8.19-5.73.81,1.21,2.9,2.85,3.48,4.51.53,1.51-3.95,1.58-5.31,1.65-2.36.13-4.21-.24-6.36-.43Z" fill="#c1e7f4"/>
  <path d="M128.17,153.56c-.93,1-7.32,4.15-8.19,4.09-.73-.05-3.38-1.99-4.25-2.53-.52-.33-1.31-.13-1.08-1.15,2.96-.32,7.29-1.67,10.05-1.57,1.14.04,2.41.93,3.47,1.16Z" fill="#e54a7b"/>
  <path d="M338.23,222.76c.83-4.29,1.6-10.36,2.05-14.74,2.31,4.83,3.71,11.85-2.05,14.74Z" fill="#f5dba1"/>
  <path d="M179.76,119.98c-.46-.32-1.29-.51-2.01-1.06-1.59-1.22-3.72-4.31-3.72-6.31,0-1.36,1.28-3.71,2.05-4.91.62,4.12,2.37,8.35,3.69,12.28Z" fill="#e54a7b"/>
  <path d="M310.39,423.4c-.59-1.31-5.06-10.01-4.51-10.64,1.48-.11,2.83-.96,4.1-1.64l.41,12.28Z" fill="#a1bfa9"/>
  <path d="M151.1,115.06c-.19,2.57-.69,5.14-.41,7.78-.6.66-4.73-3.25-5.32-3.68l5.73-4.09Z" fill="#c1e7f4"/>
  <path d="M313.1,436.54c3.24,1.4,1.85,6.17-1.62,5.65-2.47-1.98-.19-4.22,1.62-5.65Z" fill="#f4ecdb"/>
  <path d="M318.58,390.64c1.37-.05,3.12-.79,4.71-.41.36,0,.27.82.19,1.01-.3.69-5.81,3.92-6.94,4.32.79-.96,3-3.74,2.05-4.91Z" fill="#448666"/>
  <path d="M401.7,220.3c-2.92-.21-2.36,1.58-2.46,3.69l-1.64-9.82c.87-.19.93.44,1.3.95,1.15,1.58,1.83,3.51,2.79,5.19Z" fill="#c44160"/>
  <path d="M276.81,508.57l2.87.21c-.43,2-1.17,3.97-1.95,5.85-.25.61.25,1.11-.92.9v-6.96Z" fill="#567fab"/>
  <path d="M278.44,391.06l-2.71,3.65c-.58.1-3.79-3.4-2-3.66,1.44-.2,3.23.15,4.71,0Z" fill="#f1d28d"/>
  <path d="M241.59,565.49c-2.31-.4-4.66-.85-6.96-1.23l.83-1.46,6.13,2.69Z" fill="#8dc1de"/>
  <path d="M159.7,132.26c.97.08,2.14.2,3.07.42.62.15.72-.29.61.8l-4.09,1.23c.08-.88.38-1.79.41-2.46Z" fill="#e54a7b"/>
  <path d="M257.43,439.84c.24-.06.49-.13.74-.06l.62,1.02-2.65,2.26c-1.56-.77.44-2.99,1.29-3.21Z" fill="#b4cdbb"/>
  <path d="M132.18,498.02c9.56-.95,9.77,14.04,1.1,14.66s-9.96-13.79-1.1-14.66Z" fill="#fdfefe"/>
  <path d="M139.11,569.68c1.33-.27,6.29-.47,6.88.73.34.69-.95,5.13-1.35,6.03-1.12,2.51-4.64,3.77-7.24,3.36-4.65-.73-2.67-9.23,1.71-10.12Z" fill="#fdfefe"/>
  <path d="M55.6,481.63c8.87-1.06,10.38,12.68,1.9,13.8-9.75,1.3-10.83-12.73-1.9-13.8Z" fill="#fdfefe"/>
  <path d="M27.32,523c9.34-1.73,12.08,11.46,3.09,12.91s-10.76-11.49-3.09-12.91Z" fill="#fdfefe"/>
  <path d="M35.77,245.83c6.11-5.52,14.59,4.68,7.84,9.68-6.61,4.9-13.77-4.33-7.84-9.68Z" fill="#fdfefe"/>
  <path d="M76.89,362.47c6.21-.9,7.71,9.26,1.07,9.73-5.95.42-6.97-8.87-1.07-9.73Z" fill="#fdfefe"/>
  <path d="M175.97,16.07c12.53-2.13,13.17,14.86,1.89,15.44-9.98.52-11.52-13.8-1.89-15.44Z" fill="#fdfefe"/>
  <path d="M86.3,81.17c10.06-1.58,11.85,13.55,2.31,14.6-10.06,1.1-11.21-13.2-2.31-14.6Z" fill="#fdfefe"/>
  <path d="M47.79,23.43c4.35-1.3,5.79,4.74,2.19,5.88-4.28,1.35-5.65-4.84-2.19-5.88Z" fill="#fdfefe"/>
  <path d="M349.7,102.37c1.66,1.2,4.01,2.43,5.86,3.35,2.89,1.43,6,2.59,8.88,4.02s11.04,6.59,13.1,9.01c2.32,2.72,10.01,14.04,10.85,17.2,1.53,5.73-.73,9.98-1.44,15.56-.51.47-4.6-2.85-5.33-3.48-6.67-5.75-9.37-12.66-15.14-18.85-2.74-2.94-5.97-5.21-8.83-7.96-2.4-2.32-9.16-8.35-10.62-10.68s-.52-5.5.6-7.76c.61.13,1.43-.33,2.05-.41Z" fill="#e54a7b"/>
  <path d="M337.82,98.28c-.43-.08-1.16-.02-1.64,0-2.14-.74-4.36-1.46-6.55-2.05-.89-.24-1.39-.61-2.46-.82-1.55-2.66-4.34-5.06-.79-7.55,2.96-2.08,7.16-.72,10.08.92,4.5,2.52,3.96,5.62,1.36,9.49Z" fill="#df4663"/>
  <path d="M336.18,98.28c-.06,0-.47.4-.99.43-2.37.11-4.12-.47-5.56-2.48,2.19.58,4.41,1.31,6.55,2.05Z" fill="#e54a7b"/>
  <path d="M364.64,144.96c.27.14.27.27,0,.41v-.41Z" fill="#b2414f"/>
  <path d="M148.03,156.42c.27.14.27.27,0,.41v-.41Z" fill="#b2414f"/>
  <path d="M289.5,239.14c2.88.61,7.39,3.21,10.24,4.5l.41.41c.11.05.3-.05.41,0,1.41,2.57,3.79,4.11,5.4,6.68,11.87,18.86-1.04,49.15-25.98,44.81-17.86-3.11-23.94-21.52-20.17-37.57,2.96-12.62,16.94-21.51,29.69-18.83ZM277.93,253.56c-4.14.37-4.87,5.63-5.49,8.84-.73,3.79-2.29,13.59-.62,16.74,2.44,4.61,9.05,2.54,9.81-2.23l1.23-19.46c-.67-2.14-2.48-4.11-4.93-3.89Z" fill="#fdfcfc"/>
  <path d="M262.13,301.44c1.21-.78,7.69,1.98,9.46,2.51,20.76,6.17,42.21,10.09,63.63,13.35,11.56,1.76,23.39,2.69,34.78,4.94,1.54,27.91-23.71,44.34-48.81,47.07-14.72,1.6-37.81-.73-49.51-10.59-12.16-10.25-15.33-30.59-12.78-45.56.7-4.08,2.53-7.73,3.22-11.72ZM273.53,354.61c1.51,1.3,3.6,2.35,5.16,3.65l.9-.66,7.06-45.34c-5.85-1.72-11.86-3.16-17.63-5.15-1.35-.47-3.08-1.96-4.91-1.64-2.8,15.15-3.4,38.12,9.42,49.14ZM287.46,361.98c3.78,1.1,7.81,1.96,11.72,2.4,1.54.18,7.86.99,8.56.06,3.7-15.2,7.79-30.37,10.02-45.87-7.67-1.32-15.39-2.6-22.93-4.5-1.56-.39-3.19-1.23-4.91-1.23-1.09,8.65-2.41,17.29-3.8,25.89-1,6.22-3.07,13.72-3.54,19.82-.22,2.91,2.54,2.74,4.87,3.42ZM326.36,320.21c-1.66-.27-3.6-1.43-5.71-.8-1.68,15.72-6.68,30.79-9.44,46.25,1.87.31,3.65-.23,5.32-.41,4.13-.45,8.3-.85,12.37-1.76,1.35-.3,7.23-1.75,7.62-2.62l7.04-38.21c-5.74-.67-11.5-1.53-17.2-2.46ZM352.97,324.31c-1.42-1.23-4.04-1.08-5.89-1.25l-6.82,36.26.22.62c1.49-1.05,3.31-1.59,4.86-2.52.61-.37.9-1.05,1.08-1.16,1.34-.85,2.89-1.5,4.23-2.53,9.19-7.05,14.89-16.47,15.83-28.18l-13.51-1.23Z" fill="#664548"/>
  <path d="M300.56,244.05c-.11-.05-.3.05-.41,0s-.23-.33-.41-.41c-2.84-1.29-7.35-3.9-10.24-4.5-3.61-1.62-7.37-3.02-11.15-4.2-7.59-2.38-15.81-3.42-22.8-7.09l-4.13-3.24c7.21-7.09,19.07-2.77,27.52-.09,9.95,3.15,20.71,8.06,29.82,13.18,3.46,1.94,9.15,4.83,10.86,8.39,1.92,4,1.33,5.34-3.29,4.92-3.42-.31-12.04-5.23-15.77-6.95Z" fill="#664548"/>
  <path d="M247.22,286.73c6.14-1.25,16.19,3.02,11.92,10.29-2.84,4.85-9.38,3.37-13.33.76-4.6-3.04-3.77-9.99,1.4-11.04Z" fill="#f6abac"/>
  <path d="M349.7,102.37c.69-.09,1.14-.5,2.23-.43,2.69.18,9,4.85,11.5,6.58.51.35,1.21.31,1.01,1.22-2.88-1.43-5.98-2.59-8.88-4.02-1.85-.92-4.2-2.15-5.86-3.35Z" fill="#df4663"/>
  <path d="M149.87,313.66h-7.17c-.41,0-2.69-.98-3.21-1.3-3.47-2.14-6.03-10.12-5.6-14.06.54-4.91,6.15-7.52,10.67-6.57,1.83.38,2.87,1.67,4.48,2.27-.19-3.86-.63-9.68-5.21-10.55-2.07-.39-5.92.52-4.1-3.07,1.43-2.83,6.03-2.37,8.5-1.33,5.27,2.23,8.62,12.16,6.16,17.22-.57,1.16-1.52,1.59-1.97,2.53-.95,1.96.07,4.41-2.34,5.84-.88,0-8.93-11.49-7.76-2.46l7.56,11.48Z" fill="#664548"/>
  <path d="M419.31,195.32c-.17-.08-.36-.23-.41-.41.19.06.37.22.41.41Z" fill="#df4663"/>
  <path d="M366.38,256.42c1.77-.17,3.35,1.28,3.93,2.85,1.07,2.9.84,8.31,1.1,11.6.31,3.94,3.06,15.12-3.56,15.22-6.21.1-5.32-11.25-5.44-15.24-.1-3.42-.78-8.01.48-11.36.53-1.4,1.95-2.92,3.49-3.07Z" fill="#664548"/>
  <path d="M183.86,90.09c-.01.09-.34.32-.38.65-.91,8.37-.49,16.87.99,25.14,13.66-17.36,31.19-31.43,50.62-41.92,46.38-25.05,103.11-24.68,146.54,6.3,1.85,1.32,4.03,2.73,5.73,4.09,29.22,23.35,43.52,59.94,48.73,96.23.24,1.67.21,3.91.41,5.73.83,7.47,1.44,15.01,1.64,22.52.08,3.13-.03,6.29,0,9.42.13,15.78.05,32.08-1.23,47.7-.87,10.61-3.33,20.91-5.32,31.33l-.86-.57-10.19-30.55c-5.22,9.48-9.03,20.5-16.17,28.67l-3.49,2.35c-2.18,17.22-1.58,35.48-8.29,51.81-7.8,18.96-24.3,31.36-43.71,36.96-4.41,1.27-10.6,1.22-13.75,5.08-2.84,3.49-2.08,4.83-.11,8.34,2.93,5.2,6.91,10.81,10.17,15.95,8.87,13.99,18.16,28.08,27.18,42.12,2.22,4.57-2.02,5.39-3.78,8.83,5.27,7.96,7.38,15.26.74,23.26-7.42,8.94-17.49,6.17-26.6,1.85,1.1,6.03-4.38,6.05-8.21,8.46.28,5.18,1.65,10.2,2.48,15.29.44,2.72,1.24,5.71,1.64,8.19.15.9-.11,2,.05,3.02,2.75,16.94,5.65,33.86,8.51,50.76.41.59,7.48,2.5,8.91,3.06,7.79,3.07,20.68,10.79,23.06,19.32,1.05,3.75-1.22,7.69-4.53,9.6-1.46.84-3.38.98-4.48,2.28-2.51.15-4.26,1.24-6.37,1.62-9.8,1.75-22.74.83-32.72.42-5.47-.23-13.08.04-18.34-1.31-1.37-.35-3.46-1.9-3.99-3.17-1.03-2.46-.81-9.14-1.23-12.28-.14-1.09.17-2.31-.51-3.38-12.42-17.91-21.48-37.8-32.05-56.8-.6.36-.5.87-.64,1.4-2.25,8.06-2.61,18.6-3.7,27.01-1.25,9.65-3.79,21.82-3.64,31.37.06,4.03,1.26,8.29.82,12.28-.92,8.22-9.23,8.89-15.82,9.77-13.08,1.75-47.09,2.8-57.68-4.86-.82-.59-2.35-1.96-2.66-2.87-1.7-4.92,1.01-8.45,4.5-11.47.11-.09.67-.1,1.02-.39,4.63-3.86,9.56-7.31,14.95-10.04l.42-.82c-3.78-30.77-3.18-61.91-5.37-92.84-1.45-1.55-3.08-3.15-5.29-3.59-.4,6.15-7.94,11.03-13.11,13.3-12.72,5.61-26.33,1.01-28.61-13.56-1.28-8.19-1.54-17,1.39-24.71,2.74-7.21,6.2-14.93,9.2-22.12,1.48-3.55,3.02-7.09,4.5-10.65,1.6-3.82,3.5-7.55,4.91-11.46-11.67-2.35-23.5-6.62-31.54-15.76-1.62-1.84-4.28-5.45-5.31-7.59-.7-1.45-1.57-4.47-2.05-6.14-.24-.84-1.64-5.63-1.64-5.94v-6.55c0-2.2.07-3.59.41-5.94.22-1.53.44-3.9.82-5.32.4-1.51,4.49-10.23,4.1-10.64-14.67-3.34-28.98-8.95-41.58-17.19-17.1-11.18-31.71-30.35-35.41-50.79-.42-2.31-.68-4.61-.82-6.96-.86-14.46,1.52-31.11,6.65-44.74,1.59-4.21,3.62-8.2,6.03-11.99-1.11-1.04-2.56-1.82-3.68-2.85-7.17-6.6-13.7-16.52-10.78-26.76.34-1.19,1.65-2.43,1.96-3.38.36-1.12-.5-3.21,1.67-3.64,9.52-1.09,19.13-.46,28.6-2.12,2.01-.35,3.91-1.25,6-1.17.23-.94-.18-.67-.52-.94-2.63-2.06-7.41-3.81-10.5-5.85-6.14-4.06-10.19-9.21-13.96-14.91-.22-.33-1.74-4.5-2.05-5.32-.55-1.47-1.33-3.43-1.64-4.91-.51-2.43-.28-3.42,0-5.73.47-3.8,1.56-6.7,2.87-10.24,2.39,1.28,4.87,2.23,7.37,3.28,1.96.82,3.28,1.35,5.32,2.05,2.3.79,4.12,1.5,6.55,2.05,3.13.7,5.45.96,8.6,1.23,2.16.19,4.01.55,6.36.43,1.36-.07,5.84-.15,5.31-1.65-.58-1.66-2.67-3.29-3.48-4.51-.99-1.47-2.36-3.74-3.28-5.32-.75-1.3-1.88-3.2-2.46-4.5s-1.26-3.49-1.64-4.91c-2.25-8.59-1.57-25.24,3.51-32.73,2.32-3.42,4.92-5.33,8.57-2.07,4.41,3.94,9.42,10.26,13.72,14.74,1.21,1.26,2.48,2.44,3.69,3.69,1.41,1.45,2.68,2.73,4.09,4.09,2.25,2.17,2.67,2.56,5.32,4.5.59.43,4.72,4.34,5.32,3.68-.28-2.64.22-5.21.41-7.78.2-2.73.11-6.08.41-8.6.03-.23.55-.96.64-1.6.37-2.66.57-5.23,1.41-7.82,1.52-1.81,3.47-8.16,5.32-11.06,2.76-4.32,6.45-6.85,11.06-9.01,4.07-1.91,10.4-4.25,14.74-5.32.81-.2,1.59-.5,2.45-.41l-1.64,9.83c-1.29,2.89-1.26,5.99-1.64,9.01ZM310.8,65.52c-51.84-1.5-90.7,23.17-125.12,59.37-.33.35-.57.74-.6,1.23-.62.15-.66-.09-.99-.43-.88-.89-2.02-2.84-3.09-4.07-.38-.43-.06-.82-1.23-1.64-1.32-3.93-3.06-8.16-3.69-12.28-1.32-8.79-.57-19.77,1.23-28.45-1.06-.7-1.39.83-1.64,1.43-4.17,2.65-7.67,7.55-10.04,11.87-6.16,11.22-5.63,20.02-5.93,32.36-.06,2.44.12,4.93,0,7.37-.03.67-.33,1.58-.41,2.46-.08.94.06,1.92,0,2.87-.73-.81-2.73-.92-3.27-1.23-2.74-1.58-3.75-5.46-5.52-6.97-2.57-2.18-8.17-4.41-11.4-6.62-8.97-6.16-16.3-14.48-22.6-23.26-.61,2.26-.64,4.65-1.02,6.96-1.34,8.18-2.26,13.25,1.02,21.29,1.17,2.86,7.54,13.97,9.62,15.56,3.35,4.19,7.09,8.12,11.46,11.27.16.91-.36.61-.97.56-2.4-.16-5.99-1.07-8.44-1.59-1.06-.23-2.32-1.12-3.47-1.16-2.75-.1-7.08,1.25-10.05,1.57-5.79.63-12.74.13-18.5-.95-4.77-.9-9.37-2.53-13.65-4.78-.46,1.64,1.01,3.65,1.44,4.91,6.39,18.94,14.86,19.31,30.8,27.14,3.32,1.63,8.26,5.55,11.79,6.02.04,1.2-.59,1.03-1.4,1.26-4.36,1.22-9.23.28-13.62,2.35-5.64,2.66-10.35,5.93-16.92,7.04-1.4.24-3.25.23-4.71.44l-19.04-1.67c0,.68,0,1.37,0,2.05,0,.62-.1,1.49,0,2.05,1.72,16.92,18.98,22.72,32.35,28.67l-2.45,1.63c-4.03.88-7.77.99-11.87.6-.87.43-4.67,7.82-5.33,9.23-4.08,8.86-6.87,21.97-7.39,31.72-1.84,34.67,20.61,58.59,50.81,71.25,1.8.76,12.23,4.92,13.21,4.66.48-.13.75-.66,1.1-.96-.87-.81-1.97-1.26-2.86-2.04-5.88-5.17-9.59-10.01-14.34-15.96-1.55-1.95-3.92-3.59-5.48-5.57-3.25-4.13-3.5-7.84-5.56-11.84.3-3.78-.62-7.48-.41-11.26.26-4.62,1.73-12.22,3.27-16.59,7.17-20.29,32.58-35.33,49.35-16.38.58.66,3.99,5.98,4.7,5.33,3.11-10.79,9.52-21.3,16.21-30.27,15.07-20.18,39.67-39.81,60.36-54.09,11.92-8.22,25.64-13.6,39.72-17.2,2.38-.61,4.97-.69,7.37-1.22l-1.64,2.04c-6.42,4.24-15.42,7.82-21.43,12.35-.47.35-.84.43-.68,1.16,19.96.72,40.5,9.66,53.65,24.77,3.03,3.48,6.31,8.17,7.78,12.5h1.21c.03-6.75-.03-13.52-.01-20.29,0-.83.42-1.65.42-2.23.04-10.41-1.45-20.83-2.05-31.12-.04-.71-.4-3.55.6-3.26,1.47.42,6.44,4.02,7.96,5.14,13.22,9.75,22.4,22.96,30.54,37.02.35-5.87.88-11.75,1.43-17.61.6-6.35.94-13.04,2.16-19.33.16-.82.2-2.01,1.11-2.37,3.68,10.04,14.06,19.13,20.87,27.24,10.93,13.01,18.33,27.64,25.81,42.78l6.11,18.18,1.26.25c.05-10.17-.06-20.35-.02-30.53.01-3.3.42-6.92.43-10.42.05-29.33-4.69-57.24-16.79-83.94-17.98-39.67-57.99-65.08-101.55-66.34ZM341.1,196.96c0,3.13-.49,7.77-.82,11.06-.45,4.39-1.22,10.45-2.05,14.74-.52,2.71-1.93,5.37-2.05,8.19-.85.8-4.47-3.58-5.32-4.31-.91-.78-1.95-1.47-2.87-2.25-11.64-9.73-24.65-21.75-38.8-27.33-5.67-2.24-16.27-5.59-22.21-5.02-6.02-1.57-12.57.47-16.38,5.32-23.64,15.72-47.4,34.51-64.04,57.78-8.4,11.75-13.62,25.11-19.9,38.04-.13-.56-1.51-2.35-1.86-3.67-2.12-7.99.4-15.16-8.91-19.75-10.09-4.97-21-.46-27.07,8.31-10.24,14.79-11.53,44.55,9.4,50.72,7.12,2.1,14.22.36,21.47.03l-6.85,3.58-11.16,2.76c2.9,2.71,6.11,5.17,9.44,7.34,7.69,4.99,17.56,10.4,25.76,14.57,12.76,6.48,25.22,11.03,38.9,15.15,18.92,5.7,33.21,8.02,53.02,9.01,30.24,1.52,77.6,4.49,101.35-17.2,16.46-15.04,18.36-29.84,20.06-51.19.15-1.92.29-3.81.41-5.73,1.32-21.04.66-42.98-.02-64.07-.18-5.67-.31-11.34-.39-17.01-.71-.19-.82.3-1.23.61-1.72,1.31-3.7,4.23-5.52,5.95-4.91,4.64-10.79,7.87-16.19,11.86-.87.13-8.07,3.84-9.01,4.5-8.59,3.44-11.83-.8-11.07-9.23.2-2.22.91-4.54,3.5-4.72,4-.27,3.16,3.42,3.47,5.97.06.47-.16.82.6.6,1.72-.51,6.17-3.59,7.96-4.73,4.22-2.7,8.14-5.88,12.45-8.43,4.65-2.74,9.62-4.83,14.58-6.93.14-.19-.28-1.92-.38-2.42-.3-5.47-1.09-10.62,1.55-15.7l-4.83-6.41-6.14-8.19c-.79,4.04-.88,8.24-1.64,12.28-.93,4.92-2.66,12.45-4.09,17.2-.52,1.72-1.88,4.87-2.68,6.55-.23.48.06,1-.79.83-1.4-2.65-3.48-4.9-5.12-7.37-8.08-12.19-14-26.15-25.19-36.03-.37,4.44.15,8.85.21,13.33,0,.58.41,1.21.41,1.41ZM399.24,223.99c-.35,7.88,1.06,17.5,1.25,25.58.26,11.12-.75,23.06-.04,34.02.04.6.05,2.16.83,2.23l15.18-32.96c-3.6-11.44-8.83-22.19-14.77-32.55-.96-1.68-1.65-3.61-2.79-5.19-.37-.51-.43-1.14-1.3-.95l1.64,9.82ZM185.9,397.61c-.26-2.03,1.57-6.22.62-7.79-.61-1-12.21-5.92-14.13-6.96-4.7-4.04-8.98-8.74-11.54-14.47-1.04-2.34-2.44-10.83-6.1-7.88-2.49,2-4.93,9.35-5.52,12.5-3.06,16.61,2.99,29.54,18.51,36.41,2.91,1.29,13.53,4.79,16.12,3.54.52-.25,5.29-9.5,5.33-10.28.09-1.68-3.08-3.49-3.28-5.08ZM175.26,366.89c-3.46-1.63-6.71-3.8-10.23-5.32.89,3.84,3.24,8.03,5.86,10.94.3.34.94.37,1.09.53,4.64,4.81,7.91,7.36,14.73,8.81,1.12.24,2.92.94,3.72-.09.34-.43,3.48-6.76,3.25-7.07-6.1-2.61-12.42-4.97-18.43-7.79ZM214.16,381.64c-2.07-.58-13.31-4.64-14.27-4.03-1.41,2.64-5.45,14.11-4.36,16.32.67,1.37,8.53,3.5,10.37,3.96,16.85,4.22,38.4,8.33,55.62,10.72,1.39.19,9.99,1.26,10.38.88.22-.63-.36-1.24-.41-1.64-.57-4.46-3.18-14.67-7.49-16.87-3.24-1.65-12.69-1.83-16.81-2.43-11.3-1.66-22.03-3.84-33.02-6.9ZM318.58,390.64c-1.63.06-3.28-.07-4.91,0-6.6.28-14.92-.28-21.09.41-2.33.26-2.03,1.04-3.07,1.64-2.65,1.52-4.2,2.45-6.55,4.5-.74.65-1.9,1.36-2.64,2.48-2.36,3.62.5,7.55,1.04,11.4,4.18.34,7.77-.78,11.42-2.41,4.79-2.14,21.02-9.81,23.75-13.1,1.14-.4,6.65-3.63,6.94-4.32.08-.18.17-1.01-.19-1.01-1.58-.37-3.34.36-4.71.41ZM278.44,391.06c-1.49.14-3.28-.21-4.71,0-1.79.25,1.42,3.76,2,3.66l2.71-3.65ZM325.13,401.7c-.54.41-2.69,1.29-2.77,1.83,7.58,20.92,13.81,42.45,17.1,64.51,4.37.32,8.45-.24,12.44-2.09,1.34-.62,2.46-1.78,3.53-2.41,2.15-1.26,4.31-2.54,6.48-3.76l-.24-1.87c-11.05-19.5-25.88-37.01-33.68-58.25-.68-.51-2.48,1.76-2.86,2.05ZM210.47,408.66c-2.26-.52-12.7-4.06-14.06-3.64l-26.02,63.69c-.18.84.06.43.54.57,3.7,1.05,7.58,1.24,11.28,2.04,2.84.62,5.72,1.42,8.6,2.05,1.56.34,6.15,2.2,7.37,1.44l28.25-63.27c-1.39-.08-3.16-.15-4.5-.41-3.75-.72-7.74-1.59-11.47-2.46ZM312.02,410.3c-.5.27-1.36.45-2.05.82-1.27.68-2.61,1.53-4.1,1.64-.55.63,3.91,9.33,4.51,10.64.69,1.53,2.56,7.39,3.47,8.2s1.87.2,2.67.4c5.77,1.49,5.46,10.27,2.05,13.92-2.51,2.69-7.83,3.6-11.06,1.64-1.96-2.94-3.61-4.96-3.23-8.76.17-1.73,1.24-3.27,1.5-4.64.84-4.45-3.91-13.12-5.03-17.72l-.73-.35-12.59,4.31.85,12.2c.23,22.41-.23,44.66-1.66,66.97,4.82-.16,9.58-.96,14.33-1.64,2.73-.39,5.48-.71,8.19-1.23,8.17-1.56,16.34-3.94,24.19-6.41.22-.49.39-1.02.38-1.56-.14-7.73-2.75-20.22-4.23-28.13-3.29-17.6-8.88-34.5-13.87-51.65-.91-1.82-2.8.92-3.61,1.36ZM217.84,489.33c.06.02.33.63.98.84,16.64,5.56,34.83,7.68,52.25,9.4l4.1-39.72c2.06-11.33-.71-26.16.43-37.9-.05-1.47-.93-1.78-2.07-2.23s-9.42-1.93-9.8-1.6l-1.64,16.11c.1,2.62,2.37,3,2.97,5.23,2.32,8.62-10.17,15.29-15.46,7.68-2.46-3.53-2.29-7.59.59-10.82,1.5-1.68,4.59-2.59,5.12-4.69,1.12-4.41.89-10.19,1.84-14.76-2.26-.19-5.19-.09-7.37-.41-5.13-.75-10.31-2.48-15.47-3.16-.7-.09-1.4-.25-2.1-.08l-27.41,71.09c-.12.55.25.66.63.87,2.33,1.27,7.96,2.97,10.79,3.97.61.22,1.29.09,1.62.2ZM283.36,420.12h-4.1c2.64,19.77,1.86,39.77,0,59.58-.62,6.61-1.94,13.22-2.05,19.86l3.64-.05c1.43-13.47,1.71-27.15,2.07-40.72.03-.97.42-1.86.44-2.83v-35.85ZM313.1,436.54c-1.81,1.43-4.09,3.66-1.62,5.65,3.48.52,4.86-4.25,1.62-5.65ZM257.43,439.84c-.85.22-2.85,2.44-1.29,3.21l2.65-2.26-.62-1.02c-.25-.07-.5,0-.74.06ZM355.84,472.54c-1.38.5-6.07,1.49-7.58,1.63-2.43.22-5.11-.15-7.57,0-.2,5.23.76,7.64,5.32,10.04,3.72,1.97,10.52,4.09,14.32,1.61.77-.5,1.11-1.25,1.66-1.82,5.17-5.42,2.19-8.59.41-14.74-.48-.45-5.73,2.98-6.55,3.28ZM178.94,498.34c7.1-.73,15.65-7.76,16.38-15.15l-9.42-1.23-17.2-4.92c-1.24,8.89-3.1,22.66,10.24,21.3ZM264.11,513.49l-.21-2.04c2.35,1.17,3.53,2.77,5.05,4.78.79,1.04,1.48,2.78,2.09,3.56.38.48.77.21,1.26.26l.17-11.51c-19.45-1.84-38.95-4.33-57.5-10.6l3.79,63.18.41,1.01c.98.85,6.9.69,8.5.92,2.19.31,4.7.85,6.96,1.23s4.65.82,6.96,1.23c3.66.64,7.39,1.36,11.06,2.05,1.22.23,7.92,2.25,8.58,1.62,2.51-14.82,4.17-29.93,9.03-44.2,1.35-1.83-5.5-11.3-6.14-11.47ZM321.03,503.66c-3.44.88-7.89,1.46-11.47,2.05-5.16.85-10.42,1.19-15.55,2.27-2.16,3.05-4.1,6.26-6.23,9.33-3.36,4.82-8.91,8.78-5.32,15.3l19.09,35.79,1.15.31c4.05-1.37,8.11-2.75,12.19-4.03,4.12-1.29,8.19-2.79,12.28-4.09,2.29-.73,5.21-1.13,7.54-2l-7.13-56.96c-.52-.57-5.66,1.82-6.55,2.05ZM289.09,508.17c-2.01.18-4.27-.76-5.49,1.26-.58.96-4.03,11.27-4.23,12.55-.22,1.39-.06,2.8-.1,4.2l1.23-.61,8.6-17.4ZM276.81,508.57v6.96c1.17.21.67-.29.92-.9.78-1.88,1.52-3.85,1.95-5.85l-2.87-.21ZM327.99,568.77c-6.29,1.83-13,3.06-19.33,5.03-.67.21-2.97.54-2.76,1.29l4.77,7.61c6.26-.27,12.4-2.24,18.55-3.28,1.39-.23,8.36-.55,8.83-1.2l-1.86-12.13c-.36-.28-5.81,1.56-6.8,1.85-.67.2-1.24.79-1.41.83ZM244.87,572.45c-8.45-1.67-16.91-3.39-25.39-4.91l.81,15.15c10.17-.04,20.21,1.72,30.3,2.45,2.99.22,6,.52,9.01.41l.8-10.22c-5.21-.78-10.38-1.86-15.54-2.88ZM350.51,587.61c-2.64-.88-5.14-1.54-7.98-1.23l-26.03,3.86c-.6.41-.45,3.24-.4,4.14.1,1.99.21,5.08.47,6.9.18,1.26.5,2.32,1.89,2.61,1.04.22,3.62.42,4.83.49,6.34.39,13.05-.26,19.43-.02.45-5.05,2.65-9.43,5.58-13.46.82-1.13,2.42-1.77,2.21-3.3ZM258.38,593.33c-12.15.33-24.06-2.29-35.83-4.91-2.22.1-4.12,1.22-4.68,3.44,5.03,2.59,8.38,5.72,10.91,10.81,1.33,2.67,1.95,5.66,3.22,8.23,6.2-.83,12.56-.4,18.76-1.23,2.3-.31,8.73-.94,8.48-3.84l-.86-12.5ZM350.52,600.3c-.31.67-2.46,4.55-2.05,4.91,6.14-.08,12.69-.68,18.55-2.56.6-.19.9-.64,1.11-.72,1.05-.42,3.61-.14,1.41-2.84-.85-1.04-10.1-7.76-11.06-7.81-1.36-.07-5.07,3.59-5.9,4.72-.99,1.33-1.37,2.84-2.05,4.3ZM205.97,601.53c-2.04,1.7-4.2,3.29-6.13,5.12-.04,1.44,22.77,4.62,24.97,3.89-.23-1.85-1.17-3.37-2.05-4.91-1.4-2.47-5.71-8.3-8.48-8.92-3.51-.79-5.95,2.87-8.31,4.83Z" fill="#664548"/>
  <path d="M277.93,253.56c2.45-.22,4.26,1.75,4.93,3.89l-1.23,19.46c-.76,4.76-7.37,6.84-9.81,2.23-1.67-3.15-.11-12.95.62-16.74.62-3.21,1.35-8.47,5.49-8.84Z" fill="#664548"/>
  <path d="M300.15,244.05l-.41-.41c.18.08.3.36.41.41Z" fill="#f8e6ba"/>
  <path d="M294.83,314.07c7.54,1.9,15.27,3.18,22.93,4.5-2.23,15.5-6.33,30.67-10.02,45.87-.7.93-7.01.11-8.56-.06-3.92-.45-7.95-1.3-11.72-2.4,3.02-15.86,6.95-31.68,7.37-47.91Z" fill="#fdfcfc"/>
  <path d="M326.36,320.21c5.7.92,11.46,1.78,17.2,2.46l-7.04,38.21c-.39.87-6.27,2.32-7.62,2.62-4.07.91-8.24,1.31-12.37,1.76,2.24-9.59,5.1-19.02,7.17-28.66,1.15-5.34,2.56-10.94,2.66-16.38Z" fill="#fdfcfc"/>
  <path d="M269.03,307.11c5.77,1.99,11.78,3.43,17.63,5.15l-7.06,45.34-.9.66c-1.56-1.3-3.65-2.36-5.16-3.65-4.52-15.35-6.76-31.53-4.5-47.5Z" fill="#fdfcfc"/>
  <path d="M352.97,324.31l13.51,1.23c-.94,11.71-6.64,21.14-15.83,28.18-1.34,1.03-2.89,1.68-4.23,2.53l6.55-31.94Z" fill="#fdfcfc"/>
  <path d="M294.83,314.07c-.42,16.23-4.35,32.05-7.37,47.91-2.34-.68-5.09-.51-4.87-3.42.46-6.1,2.53-13.61,3.54-19.82,1.39-8.61,2.71-17.25,3.8-25.89,1.72,0,3.35.84,4.91,1.23Z" fill="#cde5ed"/>
  <path d="M326.36,320.21c-.1,5.44-1.51,11.04-2.66,16.38-2.07,9.64-4.93,19.07-7.17,28.66-1.68.18-3.46.72-5.32.41,2.76-15.46,7.76-30.53,9.44-46.25,2.11-.63,4.06.53,5.71.8Z" fill="#cde5ed"/>
  <path d="M269.03,307.11c-2.26,15.97-.01,32.15,4.5,47.5-12.82-11.02-12.21-33.99-9.42-49.14,1.84-.32,3.56,1.18,4.91,1.64Z" fill="#cde5ed"/>
  <path d="M352.97,324.31l-6.55,31.94c-.18.11-.47.8-1.08,1.16-1.55.93-3.37,1.47-4.86,2.52l-.22-.62,6.82-36.26c1.85.17,4.48.02,5.89,1.25Z" fill="#cde5ed"/>
</svg>