<?xml version="1.0" standalone="no"?>
<!DOCTYPE svg PUBLIC "-//W3C//DTD SVG 20010904//EN"
 "http://www.w3.org/TR/2001/REC-SVG-20010904/DTD/svg10.dtd">
<svg version="1.0" xmlns="http://www.w3.org/2000/svg"
 width="360.000000pt" height="360.000000pt" viewBox="0 0 360.000000 360.000000"
 preserveAspectRatio="xMidYMid meet">
<metadata>
Created by potrace 1.14, written by Peter Selinger 2001-2017
</metadata>
<g transform="translate(0.000000,360.000000) scale(0.100000,-0.100000)"
fill="#000000" stroke="none">
<path d="M1931 2498 c5 -18 9 -34 9 -35 0 -2 -67 -3 -150 -3 -93 0 -150 4
-150 10 0 6 -25 10 -55 10 -54 0 -55 0 -55 -30 0 -24 4 -30 21 -30 15 0 19 -4
15 -16 -3 -9 -6 -22 -6 -30 0 -10 -12 -14 -41 -14 -69 0 -121 -21 -169 -70
-90 -90 -94 -208 -10 -304 46 -52 98 -76 165 -76 95 0 172 48 206 128 26 61
25 74 -8 70 -21 -2 -29 -10 -35 -34 -10 -41 -77 -101 -122 -110 -48 -8 -97 2
-136 29 -91 61 -94 206 -7 278 28 23 107 43 119 31 6 -6 0 -37 -15 -81 -13
-39 -21 -73 -18 -76 2 -3 69 -2 148 1 l143 7 0 -111 c0 -100 -2 -112 -18 -112
-29 0 -88 -47 -106 -83 -11 -25 -16 -63 -16 -135 l0 -101 28 -3 c24 -3 27 -7
30 -45 2 -34 7 -43 22 -43 21 0 30 19 30 61 0 28 1 29 50 29 49 0 50 -1 50
-29 0 -42 9 -61 30 -61 15 0 20 9 22 43 3 38 6 42 31 45 l27 3 0 101 c0 69 -5
110 -15 132 -18 37 -60 72 -99 82 l-26 6 0 129 0 129 -44 0 c-43 0 -46 2 -71
48 -14 26 -41 58 -60 72 -34 24 -43 52 -27 78 7 9 49 12 177 10 l169 -3 9 -32
c9 -29 6 -34 -27 -64 -53 -46 -76 -97 -76 -166 1 -133 92 -223 225 -223 69 0
120 25 169 82 80 92 74 210 -14 298 -50 50 -107 73 -171 69 -45 -4 -52 2 -67
57 -18 62 -17 64 33 64 41 0 45 2 45 25 0 25 -1 25 -84 25 l-85 0 10 -32z
m250 -220 c101 -56 106 -220 10 -284 -73 -48 -149 -44 -212 13 -69 62 -77 165
-19 234 34 41 43 36 68 -46 17 -59 33 -74 60 -57 10 7 8 24 -11 85 -22 68 -23
76 -8 80 26 6 74 -4 112 -25z m-545 -34 c19 -19 34 -40 34 -45 0 -5 -25 -9
-55 -9 -30 0 -55 3 -55 6 0 21 25 84 33 84 5 0 25 -16 43 -36z m250 -388 c33
-33 34 -36 34 -120 l0 -86 -120 0 -120 0 0 86 c0 84 1 87 34 120 30 30 40 34
86 34 46 0 56 -4 86 -34z"/>
<path d="M1010 1240 l0 -70 54 0 c39 0 55 4 60 15 4 12 -3 15 -34 15 -48 0
-54 17 -7 22 42 4 45 33 3 33 -16 1 -31 6 -34 13 -2 8 9 12 32 12 25 0 36 4
36 15 0 12 -13 15 -55 15 l-55 0 0 -70z"/>
<path d="M1140 1240 l0 -70 55 0 c42 0 55 3 55 15 0 10 -10 15 -30 15 -23 0
-31 5 -36 25 -3 14 -4 32 0 40 8 23 -4 45 -25 45 -17 0 -19 -8 -19 -70z"/>
<path d="M1270 1240 l0 -70 60 0 c47 0 60 3 60 15 0 11 -11 15 -40 15 -22 0
-40 5 -40 10 0 6 16 10 36 10 28 0 35 3 32 18 -2 11 -14 18 -36 20 -46 5 -40
22 8 22 29 0 40 4 40 15 0 12 -13 15 -60 15 l-60 0 0 -70z"/>
<path d="M1421 1284 c-24 -31 -26 -43 -10 -78 16 -33 63 -50 97 -33 33 16 25
33 -15 29 -23 -2 -35 3 -42 17 -20 36 16 75 46 50 18 -15 38 3 30 25 -4 11
-19 16 -46 16 -31 0 -44 -6 -60 -26z"/>
<path d="M1550 1295 c0 -8 9 -15 20 -15 18 0 20 -7 20 -55 0 -48 2 -55 20 -55
18 0 20 7 20 55 0 47 3 55 19 55 10 0 21 7 25 15 4 12 -6 15 -59 15 -51 0 -65
-3 -65 -15z"/>
<path d="M1690 1240 c0 -63 2 -70 20 -70 13 0 20 7 20 20 0 11 4 20 10 20 5 0
15 -9 22 -20 7 -11 23 -20 35 -20 20 0 22 2 11 25 -9 19 -9 28 0 37 7 7 12 20
12 29 0 32 -29 49 -81 49 l-49 0 0 -70z m85 20 c0 -8 -10 -16 -22 -18 -18 -3
-23 2 -23 18 0 16 5 21 23 18 12 -2 22 -10 22 -18z"/>
<path d="M1840 1240 c0 -63 2 -70 20 -70 18 0 20 7 20 70 0 63 -2 70 -20 70
-18 0 -20 -7 -20 -70z"/>
<path d="M1926 1294 c-40 -40 -27 -105 26 -123 35 -12 78 1 78 25 0 13 -7 15
-34 10 -29 -6 -37 -3 -46 14 -19 35 24 84 45 50 8 -12 35 -1 35 15 0 28 -79
35 -104 9z"/>
<path d="M2110 1240 l0 -70 53 0 c29 0 58 5 65 12 14 14 16 48 2 48 -5 0 -7
13 -3 31 7 39 -6 49 -69 49 l-48 0 0 -70z m80 25 c0 -8 -9 -15 -20 -15 -11 0
-20 7 -20 15 0 8 9 15 20 15 11 0 20 -7 20 -15z m-6 -41 c25 -9 19 -24 -9 -24
-24 0 -32 10 -18 23 8 8 8 8 27 1z"/>
<path d="M2260 1240 c0 -63 2 -70 20 -70 18 0 20 7 20 70 0 63 -2 70 -20 70
-18 0 -20 -7 -20 -70z"/>
<path d="M2325 1240 c0 -66 1 -70 23 -70 15 0 22 6 22 20 0 26 14 26 32 -1 8
-13 21 -20 36 -17 l22 3 -27 38 -26 37 28 30 29 30 -26 0 c-17 0 -34 -10 -47
-26 -21 -27 -25 -25 -22 9 2 12 -5 17 -21 17 -22 0 -23 -4 -23 -70z"/>
<path d="M2479 1308 c-5 -16 -8 -98 -4 -115 5 -20 12 -23 60 -23 42 0 55 3 55
15 0 10 -10 15 -34 15 -19 0 -38 5 -41 10 -4 6 8 10 29 10 29 0 36 4 36 20 0
16 -7 20 -36 20 -21 0 -33 4 -29 10 3 6 22 10 41 10 24 0 34 5 34 15 0 12 -13
15 -55 15 -30 0 -55 -1 -56 -2z"/>
<path d="M1420 1090 c0 -11 2 -20 4 -20 2 0 6 9 9 20 3 11 1 20 -4 20 -5 0 -9
-9 -9 -20z"/>
<path d="M1461 1091 c-8 -14 -8 -21 -1 -21 5 0 10 6 10 13 0 8 4 7 10 -3 5 -8
10 -10 10 -5 0 6 -4 16 -9 24 -7 11 -11 9 -20 -8z"/>
<path d="M1511 1088 c0 -16 2 -18 6 -8 3 8 11 18 17 22 7 5 4 8 -6 8 -12 0
-18 -7 -17 -22z"/>
<path d="M1560 1090 c0 -11 4 -20 9 -20 5 0 7 9 4 20 -3 11 -7 20 -9 20 -2 0
-4 -9 -4 -20z"/>
<path d="M1612 1090 c0 -14 2 -19 5 -12 2 6 2 18 0 25 -3 6 -5 1 -5 -13z"/>
<path d="M1690 1090 c0 -11 5 -20 11 -20 5 0 7 5 3 11 -3 6 0 15 7 20 11 7 10
9 -3 9 -11 0 -18 -8 -18 -20z"/>
<path d="M1764 1099 c-3 -6 -1 -16 5 -22 9 -9 11 -8 6 5 -4 11 0 18 12 21 15
4 16 5 1 6 -9 0 -20 -4 -24 -10z"/>
<path d="M1827 1103 c-4 -3 -7 -12 -7 -20 0 -15 36 -18 44 -4 4 5 -3 7 -14 4
-11 -3 -20 -1 -20 5 0 6 8 13 18 15 14 4 14 5 1 6 -9 0 -19 -2 -22 -6z"/>
<path d="M1880 1090 c0 -11 2 -20 4 -20 2 0 6 9 9 20 3 11 1 20 -4 20 -5 0 -9
-9 -9 -20z"/>
<path d="M1930 1099 c0 -5 5 -7 10 -4 6 3 10 8 10 11 0 2 -4 4 -10 4 -5 0 -10
-5 -10 -11z"/>
<path d="M2000 1095 c0 -14 6 -21 20 -21 14 0 20 7 20 21 0 17 -2 17 -10 5 -9
-13 -11 -13 -20 0 -8 12 -10 12 -10 -5z"/>
<path d="M2062 1090 c0 -14 2 -19 5 -12 2 6 2 18 0 25 -3 6 -5 1 -5 -13z"/>
<path d="M2100 1092 c0 -11 7 -18 20 -18 13 0 20 7 20 18 0 11 -7 18 -20 18
-13 0 -20 -7 -20 -18z"/>
<path d="M2160 1090 c0 -11 2 -20 4 -20 2 0 6 9 9 20 3 11 1 20 -4 20 -5 0 -9
-9 -9 -20z"/>
<path d="M1660 1085 c0 -8 2 -15 4 -15 2 0 6 7 10 15 3 8 1 15 -4 15 -6 0 -10
-7 -10 -15z"/>
<path d="M1530 1080 c0 -5 5 -10 10 -10 6 0 10 5 10 10 0 6 -4 10 -10 10 -5 0
-10 -4 -10 -10z"/>
<path d="M1790 1080 c0 -5 5 -10 11 -10 5 0 7 5 4 10 -3 6 -8 10 -11 10 -2 0
-4 -4 -4 -10z"/>
</g>
</svg>
